<?xml version="1.0" encoding="UTF-8" standalone="no"?>
<!DOCTYPE svg PUBLIC "-//W3C//DTD SVG 1.1//EN" "http://www.w3.org/Graphics/SVG/1.1/DTD/svg11.dtd">
<!-- Generated by Microsoft Visio, SVG Export Family_graph.svg Page-1 -->
<svg xmlns="http://www.w3.org/2000/svg" xmlns:xlink="http://www.w3.org/1999/xlink" xmlns:ev="http://www.w3.org/2001/xml-events"
		xmlns:v="http://schemas.microsoft.com/visio/2003/SVGExtensions/" width="10.669in" height="6.2397in"
		viewBox="0 0 768.171 449.258" xml:space="preserve" color-interpolation-filters="sRGB" class="st12">
	<v:documentProperties v:langID="3082" v:metric="true" v:viewMarkup="false">
		<v:userDefs>
			<v:ud v:nameU="msvNoAutoConnect" v:val="VT0(1):26"/>
		</v:userDefs>
	</v:documentProperties>

	<style type="text/css">
	<![CDATA[
		.st1 {fill:#6666ff;stroke:#6666ff;stroke-linecap:round;stroke-linejoin:round;stroke-width:0.24}
		.st2 {fill:#000000;font-family:Calibri;font-size:1.41666em}
		.st3 {fill:#99ff66;stroke:#99ff66;stroke-linecap:round;stroke-linejoin:round;stroke-width:0.24}
		.st4 {fill:#ff5050;stroke:#ff5050;stroke-linecap:round;stroke-linejoin:round;stroke-width:0.24}
		.st5 {fill:#6666ff;stroke:#6666ff;stroke-linecap:round;stroke-linejoin:round;stroke-width:1.5}
		.st6 {fill:#6666ff;stroke:#6666ff;stroke-linecap:round;stroke-linejoin:round;stroke-width:2.25}
		.st7 {stroke:#000000;stroke-linecap:round;stroke-linejoin:round;stroke-width:2.25}
		.st8 {fill:#ffffff;stroke:none;stroke-linecap:butt;stroke-width:7.2}
		.st9 {fill:#000000;font-family:Calibri;font-size:1.16666em}
		.st10 {fill:#ffffff;stroke:none;stroke-linecap:butt}
		.st11 {stroke:#000000;stroke-dasharray:2.25,4.5;stroke-linecap:round;stroke-linejoin:round;stroke-width:2.25}
		.st12 {fill:none;fill-rule:evenodd;font-size:12px;overflow:visible;stroke-linecap:square;stroke-miterlimit:3}
	]]>
	</style>

	<g v:mID="0" v:index="1" v:groupContext="foregroundPage">
		<title>Page-1</title>
		<v:pageProperties v:drawingScale="0.0393701" v:pageScale="0.0393701" v:drawingUnits="24" v:shadowOffsetX="8.50394"
				v:shadowOffsetY="-8.50394"/>
		<v:layer v:name="Connector" v:index="0"/>
		<g id="shape2-1" v:mID="2" v:groupContext="shape" transform="translate(51.0148,-200.48)">
			<title>Circle.2</title>
			<desc>Phil</desc>
			<v:userDefs>
				<v:ud v:nameU="visVersion" v:val="VT0(15):26"/>
			</v:userDefs>
			<v:textBlock v:margins="rect(4,4,4,4)" v:tabSpace="42.5197"/>
			<v:textRect cx="42.5197" cy="406.739" width="74.41" height="63.7795"/>
			<path d="M0 406.74 A42.5197 42.5197 0 0 1 85.04 406.74 A42.5197 42.5197 0 1 1 0 406.74 Z" class="st1"/>
			<text x="29.76" y="411.84" class="st2" v:langID="1033"><v:paragraph v:horizAlign="1"/><v:tabList/>Phil</text>		</g>
		<g id="shape4-4" v:mID="4" v:groupContext="shape" transform="translate(29.7549,-58.7482)">
			<title>Circle.4</title>
			<desc>Haley</desc>
			<v:userDefs>
				<v:ud v:nameU="visVersion" v:val="VT0(15):26"/>
			</v:userDefs>
			<v:textBlock v:margins="rect(4,4,4,4)" v:tabSpace="42.5197"/>
			<v:textRect cx="42.5197" cy="406.739" width="74.41" height="63.7795"/>
			<path d="M0 406.74 A42.5197 42.5197 0 0 1 85.04 406.74 A42.5197 42.5197 0 1 1 0 406.74 Z" class="st3"/>
			<text x="23.13" y="411.84" class="st2" v:langID="1033"><v:paragraph v:horizAlign="1"/><v:tabList/>Haley</text>		</g>
		<g id="shape5-7" v:mID="5" v:groupContext="shape" transform="translate(564.794,-346.099)">
			<title>Circle.5</title>
			<desc>Gloria</desc>
			<v:userDefs>
				<v:ud v:nameU="visVersion" v:val="VT0(15):26"/>
			</v:userDefs>
			<v:textBlock v:margins="rect(4,4,4,4)" v:tabSpace="42.5197"/>
			<v:textRect cx="42.5197" cy="406.739" width="74.41" height="63.7795"/>
			<path d="M0 406.74 A42.5197 42.5197 0 0 1 85.04 406.74 A42.5197 42.5197 0 1 1 0 406.74 Z" class="st4"/>
			<text x="21.74" y="411.84" class="st2" v:langID="1033"><v:paragraph v:horizAlign="1"/><v:tabList/>Gloria</text>		</g>
		<g id="shape6-10" v:mID="6" v:groupContext="shape" transform="translate(359.282,-346.099)">
			<title>Circle.6</title>
			<desc>Jay</desc>
			<v:userDefs>
				<v:ud v:nameU="visVersion" v:val="VT0(15):26"/>
			</v:userDefs>
			<v:textBlock v:margins="rect(4,4,4,4)" v:tabSpace="42.5197"/>
			<v:textRect cx="42.5197" cy="406.739" width="74.41" height="63.7795"/>
			<path d="M0 406.74 A42.5197 42.5197 0 0 1 85.04 406.74 A42.5197 42.5197 0 1 1 0 406.74 Z" class="st4"/>
			<text x="31.89" y="411.84" class="st2" v:langID="1033"><v:paragraph v:horizAlign="1"/><v:tabList/>Jay</text>		</g>
		<g id="shape9-13" v:mID="9" v:groupContext="shape" transform="translate(192.747,-200.48)">
			<title>Circle.9</title>
			<desc>Claire</desc>
			<v:userDefs>
				<v:ud v:nameU="visVersion" v:val="VT0(15):26"/>
			</v:userDefs>
			<v:textBlock v:margins="rect(4,4,4,4)" v:tabSpace="42.5197"/>
			<v:textRect cx="42.5197" cy="406.739" width="74.41" height="63.7795"/>
			<path d="M0 406.74 A42.5197 42.5197 0 0 1 85.04 406.74 A42.5197 42.5197 0 1 1 0 406.74 Z" class="st5"/>
			<text x="22.82" y="411.84" class="st2" v:langID="1033"><v:paragraph v:horizAlign="1"/><v:tabList/>Claire</text>		</g>
		<g id="shape10-16" v:mID="10" v:groupContext="shape" transform="translate(564.794,-176.02)">
			<title>Circle.10</title>
			<desc>Joe</desc>
			<v:userDefs>
				<v:ud v:nameU="visVersion" v:val="VT0(15):26"/>
			</v:userDefs>
			<v:textBlock v:margins="rect(4,4,4,4)" v:tabSpace="42.5197"/>
			<v:textRect cx="42.5197" cy="406.739" width="74.41" height="63.7795"/>
			<path d="M0 406.74 A42.5197 42.5197 0 0 1 85.04 406.74 A42.5197 42.5197 0 1 1 0 406.74 Z" class="st6"/>
			<text x="31.1" y="411.84" class="st2" v:langID="1033"><v:paragraph v:horizAlign="1"/><v:tabList/>Joe</text>		</g>
		<g id="shape11-19" v:mID="11" v:groupContext="shape" transform="translate(330.936,-176.02)">
			<title>Circle.11</title>
			<desc>Mitchell</desc>
			<v:userDefs>
				<v:ud v:nameU="visVersion" v:val="VT0(15):26"/>
			</v:userDefs>
			<v:textBlock v:margins="rect(4,4,4,4)" v:tabSpace="42.5197"/>
			<v:textRect cx="42.5197" cy="406.739" width="74.41" height="63.7795"/>
			<path d="M0 406.74 A42.5197 42.5197 0 0 1 85.04 406.74 A42.5197 42.5197 0 1 1 0 406.74 Z" class="st1"/>
			<text x="14.26" y="411.84" class="st2" v:langID="1033"><v:paragraph v:horizAlign="1"/><v:tabList/>Mitchell</text>		</g>
		<g id="shape12-22" v:mID="12" v:groupContext="shape" transform="translate(664.007,-268.146)">
			<title>Circle.12</title>
			<desc>Manny</desc>
			<v:userDefs>
				<v:ud v:nameU="visVersion" v:val="VT0(15):26"/>
			</v:userDefs>
			<v:textBlock v:margins="rect(4,4,4,4)" v:tabSpace="42.5197"/>
			<v:textRect cx="42.5197" cy="406.739" width="74.41" height="63.7795"/>
			<path d="M0 406.74 A42.5197 42.5197 0 0 1 85.04 406.74 A42.5197 42.5197 0 1 1 0 406.74 Z" class="st6"/>
			<text x="18.4" y="411.84" class="st2" v:langID="1033"><v:paragraph v:horizAlign="1"/><v:tabList/>Manny</text>		</g>
		<g id="shape13-25" v:mID="13" v:groupContext="shape" transform="translate(465.582,-176.02)">
			<title>Circle.13</title>
			<desc>Cameron</desc>
			<v:userDefs>
				<v:ud v:nameU="visVersion" v:val="VT0(15):26"/>
			</v:userDefs>
			<v:textBlock v:margins="rect(4,4,4,4)" v:tabSpace="42.5197"/>
			<v:textRect cx="42.5197" cy="406.739" width="74.41" height="63.7795"/>
			<path d="M0 406.74 A42.5197 42.5197 0 0 1 85.04 406.74 A42.5197 42.5197 0 1 1 0 406.74 Z" class="st1"/>
			<text x="10.99" y="411.84" class="st2" v:langID="1033"><v:paragraph v:horizAlign="1"/><v:tabList/>Cameron</text>		</g>
		<g id="shape17-28" v:mID="17" v:groupContext="shape" transform="translate(118.223,-58.7482)">
			<title>Circle.17</title>
			<desc>Alex</desc>
			<v:userDefs>
				<v:ud v:nameU="visVersion" v:val="VT0(15):26"/>
			</v:userDefs>
			<v:textBlock v:margins="rect(4,4,4,4)" v:tabSpace="42.5197"/>
			<v:textRect cx="42.5197" cy="406.739" width="74.41" height="63.7795"/>
			<path d="M0 406.74 A42.5197 42.5197 0 0 1 85.04 406.74 A42.5197 42.5197 0 1 1 0 406.74 Z" class="st3"/>
			<text x="27.74" y="411.84" class="st2" v:langID="1033"><v:paragraph v:horizAlign="1"/><v:tabList/>Alex</text>		</g>
		<g id="shape18-31" v:mID="18" v:groupContext="shape" transform="translate(206.92,-58.7482)">
			<title>Circle.18</title>
			<desc>Luke</desc>
			<v:userDefs>
				<v:ud v:nameU="visVersion" v:val="VT0(15):26"/>
			</v:userDefs>
			<v:textBlock v:margins="rect(4,4,4,4)" v:tabSpace="42.5197"/>
			<v:textRect cx="42.5197" cy="406.739" width="74.41" height="63.7795"/>
			<path d="M0 406.74 A42.5197 42.5197 0 0 1 85.04 406.74 A42.5197 42.5197 0 1 1 0 406.74 Z" class="st3"/>
			<text x="26.39" y="411.84" class="st2" v:langID="1033"><v:paragraph v:horizAlign="1"/><v:tabList/>Luke</text>		</g>
		<g id="shape19-34" v:mID="19" v:groupContext="shape" transform="translate(394.716,-48.4612)">
			<title>Circle.19</title>
			<desc>Lily</desc>
			<v:userDefs>
				<v:ud v:nameU="visVersion" v:val="VT0(15):26"/>
			</v:userDefs>
			<v:textBlock v:margins="rect(4,4,4,4)" v:tabSpace="42.5197"/>
			<v:textRect cx="42.5197" cy="406.739" width="74.41" height="63.7795"/>
			<path d="M0 406.74 A42.5197 42.5197 0 0 1 85.04 406.74 A42.5197 42.5197 0 1 1 0 406.74 Z" class="st3"/>
			<text x="31.2" y="411.84" class="st2" v:langID="1033"><v:paragraph v:horizAlign="1"/><v:tabList/>Lily</text>		</g>
		<g id="shape31-37" v:mID="31" v:groupContext="shape" v:layerMember="0" transform="translate(401.802,-346.099)">
			<title>Dynamic connector.31</title>
			<desc>Parent</desc>
			<v:textBlock v:margins="rect(4,4,4,4)" v:tabSpace="42.5197"/>
			<v:textRect cx="-14.1732" cy="491.778" width="70" height="24.8035"/>
			<path d="M0 449.26 L-28.35 534.3" class="st7"/>
			<rect v:rectContext="textBkgnd" x="-33.0881" y="483.378" width="37.83" height="16.8" class="st8"/>
			<text x="-33.09" y="495.98" class="st9" v:langID="1033"><v:paragraph v:horizAlign="1"/><v:tabList/>Parent</text>		</g>
		<g id="shape33-42" v:mID="33" v:groupContext="shape" v:layerMember="0" transform="translate(136.054,-235.914)">
			<title>Dynamic connector.33</title>
			<desc>Partner</desc>
			<v:textBlock v:margins="rect(4,4,4,4)" v:tabSpace="42.5197"/>
			<v:textRect cx="28.3465" cy="442.172" width="70" height="24.8035"/>
			<path d="M0 442.17 L56.69 442.17" class="st7"/>
			<rect v:rectContext="textBkgnd" x="6.99093" y="433.772" width="42.711" height="16.8" class="st10"/>
			<text x="6.99" y="446.37" class="st9" v:langID="1033"><v:paragraph v:horizAlign="1"/><v:tabList/>Partner</text>		</g>
		<g id="shape35-47" v:mID="35" v:groupContext="shape" v:layerMember="0" transform="translate(431.872,-358.549)">
			<title>Dynamic connector.35</title>
			<desc>Parent</desc>
			<v:textBlock v:margins="rect(4,4,4,4)" v:tabSpace="42.5197"/>
			<v:textRect cx="87.7209" cy="498.003" width="70" height="24.8035"/>
			<path d="M0 449.26 L175.44 546.75" class="st7"/>
			<rect v:rectContext="textBkgnd" x="68.806" y="489.603" width="37.83" height="16.8" class="st10"/>
			<text x="68.81" y="502.2" class="st9" v:langID="1033"><v:paragraph v:horizAlign="1"/><v:tabList/>Parent</text>		</g>
		<g id="shape36-52" v:mID="36" v:groupContext="shape" v:layerMember="0" transform="translate(600.227,-346.099)">
			<title>Dynamic connector.36</title>
			<path d="M7.09 449.26 L7.09 534.3" class="st7"/>
		</g>
		<g id="shape37-55" v:mID="37" v:groupContext="shape" v:layerMember="0" transform="translate(607.314,-346.099)">
			<title>Dynamic connector.37</title>
			<desc>Parent</desc>
			<v:textBlock v:margins="rect(4,4,4,4)" v:tabSpace="42.5197"/>
			<v:textRect cx="28.3465" cy="466.975" width="70" height="24.8035"/>
			<path d="M0 449.26 L56.69 484.69" class="st7"/>
			<rect v:rectContext="textBkgnd" x="9.43154" y="458.575" width="37.83" height="16.8" class="st8"/>
			<text x="9.43" y="471.18" class="st9" v:langID="1033"><v:paragraph v:horizAlign="1"/><v:tabList/>Parent</text>		</g>
		<g id="shape39-60" v:mID="39" v:groupContext="shape" v:layerMember="0" transform="translate(365.65,-366.237)">
			<title>Dynamic connector.39</title>
			<desc>Parent</desc>
			<v:textBlock v:margins="rect(4,4,4,4)" v:tabSpace="42.5197"/>
			<v:textRect cx="-65.1915" cy="489.617" width="70" height="24.8035"/>
			<path d="M0 449.26 L-130.38 529.98" class="st7"/>
			<rect v:rectContext="textBkgnd" x="-84.1064" y="481.217" width="37.83" height="16.8" class="st10"/>
			<text x="-84.11" y="493.82" class="st9" v:langID="1033"><v:paragraph v:horizAlign="1"/><v:tabList/>Parent</text>		</g>
		<g id="shape41-65" v:mID="41" v:groupContext="shape" v:layerMember="0" transform="translate(373.456,-176.02)">
			<title>Dynamic connector.41</title>
			<desc>Parent</desc>
			<v:textBlock v:margins="rect(4,4,4,4)" v:tabSpace="42.5197"/>
			<v:textRect cx="31.8898" cy="470.518" width="70" height="24.8035"/>
			<path d="M0 449.26 L63.78 491.78" class="st7"/>
			<rect v:rectContext="textBkgnd" x="12.9748" y="462.119" width="37.83" height="16.8" class="st8"/>
			<text x="12.97" y="474.72" class="st9" v:langID="1033"><v:paragraph v:horizAlign="1"/><v:tabList/>Parent</text>		</g>
		<g id="shape42-70" v:mID="42" v:groupContext="shape" v:layerMember="0" transform="translate(508.101,-176.02)">
			<title>Dynamic connector.42</title>
			<desc>Parent</desc>
			<v:textBlock v:margins="rect(4,4,4,4)" v:tabSpace="42.5197"/>
			<v:textRect cx="-35.4331" cy="470.518" width="70" height="24.8035"/>
			<path d="M0 449.26 L-70.87 491.78" class="st7"/>
			<rect v:rectContext="textBkgnd" x="-54.348" y="462.119" width="37.83" height="16.8" class="st8"/>
			<text x="-54.35" y="474.72" class="st9" v:langID="1033"><v:paragraph v:horizAlign="1"/><v:tabList/>Parent</text>		</g>
		<g id="shape43-75" v:mID="43" v:groupContext="shape" v:layerMember="0" transform="translate(415.975,-211.453)">
			<title>Dynamic connector.43</title>
			<desc>Partner</desc>
			<v:textBlock v:margins="rect(4,4,4,4)" v:tabSpace="42.5197"/>
			<v:textRect cx="24.8031" cy="442.172" width="70" height="24.8035"/>
			<path d="M0 442.17 L49.61 442.17" class="st7"/>
			<rect v:rectContext="textBkgnd" x="3.44762" y="433.772" width="42.711" height="16.8" class="st8"/>
			<text x="3.45" y="446.37" class="st9" v:langID="1033"><v:paragraph v:horizAlign="1"/><v:tabList/>Partner</text>		</g>
		<g id="shape44-80" v:mID="44" v:groupContext="shape" v:layerMember="0" transform="translate(444.322,-381.532)">
			<title>Dynamic connector.44</title>
			<desc>Partner</desc>
			<v:textBlock v:margins="rect(4,4,4,4)" v:tabSpace="42.5197"/>
			<v:textRect cx="60.2362" cy="442.172" width="70" height="24.8035"/>
			<path d="M0 442.17 L120.47 442.17" class="st7"/>
			<rect v:rectContext="textBkgnd" x="38.8807" y="433.772" width="42.711" height="16.8" class="st8"/>
			<text x="38.88" y="446.37" class="st9" v:langID="1033"><v:paragraph v:horizAlign="1"/><v:tabList/>Partner</text>		</g>
		<g id="shape47-85" v:mID="47" v:groupContext="shape" v:layerMember="0" transform="translate(249.44,-172.134)">
			<title>Dynamic connector.47</title>
			<path d="M0 456.34 L-130.18 456.34 A2.3622 2.3622 -180 1 0 -134.91 456.34 L-177.17 456.34" class="st7"/>
		</g>
		<g id="shape48-88" v:mID="48" v:groupContext="shape" v:layerMember="0" transform="translate(242.353,-165.047)">
			<title>Dynamic connector.48</title>
			<path d="M7.09 449.26 L7.09 470.52" class="st7"/>
		</g>
		<g id="shape49-91" v:mID="49" v:groupContext="shape" v:layerMember="0" transform="translate(168.515,-165.047)">
			<title>Dynamic connector.49</title>
			<path d="M-6.95 449.26 L-7.22 470.52" class="st7"/>
		</g>
		<g id="shape50-94" v:mID="50" v:groupContext="shape" v:layerMember="0" transform="translate(79.3612,-165.047)">
			<title>Dynamic connector.50</title>
			<path d="M-7.09 449.26 L-7.09 470.52" class="st7"/>
		</g>
		<g id="shape51-97" v:mID="51" v:groupContext="shape" v:layerMember="0" transform="translate(123.604,-212.93)">
			<title>Dynamic connector.51</title>
			<desc>Parent?</desc>
			<v:textBlock v:margins="rect(4,4,4,4)" v:tabSpace="42.5197"/>
			<v:textRect cx="13.3115" cy="473.2" width="70" height="24.8035"/>
			<path d="M0 449.26 L26.62 497.14" class="st11"/>
			<rect v:rectContext="textBkgnd" x="-8.84713" y="464.8" width="44.3172" height="16.8" class="st8"/>
			<text x="-8.85" y="477.4" class="st9" v:langID="1033"><v:paragraph v:horizAlign="1"/><v:tabList/>Parent?</text>		</g>
		<g id="shape52-102" v:mID="52" v:groupContext="shape" v:layerMember="0" transform="translate(205.197,-212.93)">
			<title>Dynamic connector.52</title>
			<desc>Parent</desc>
			<v:textBlock v:margins="rect(4,4,4,4)" v:tabSpace="42.5197"/>
			<v:textRect cx="-13.3115" cy="473.2" width="70" height="24.8035"/>
			<path d="M0 449.26 L-26.62 497.14" class="st7"/>
			<rect v:rectContext="textBkgnd" x="-32.2264" y="464.8" width="37.83" height="16.8" class="st10"/>
			<text x="-32.23" y="477.4" class="st9" v:langID="1033"><v:paragraph v:horizAlign="1"/><v:tabList/>Parent</text>		</g>
		<g id="shape54-107" v:mID="54" v:groupContext="shape" v:layerMember="0" transform="translate(72.2746,-57.8865)">
			<title>Dynamic connector</title>
			<desc>Sibling</desc>
			<v:textBlock v:margins="rect(4,4,4,4)" v:tabSpace="42.5197"/>
			<v:textRect cx="35.4241" cy="459.027" width="70" height="24.8035"/>
			<path d="M0 448.4 L0 459.03 L58.4 459.03 L58.4 435.95" class="st7"/>
			<rect v:rectContext="textBkgnd" x="16.7383" y="450.627" width="37.3719" height="16.8" class="st8"/>
			<text x="16.74" y="463.23" class="st9" v:langID="1033"><v:paragraph v:horizAlign="1"/><v:tabList/>Sibling</text>		</g>
		<g id="shape57-112" v:mID="57" v:groupContext="shape" v:layerMember="0" transform="translate(190.813,-72.0597)">
			<title>Dynamic connector.57</title>
			<desc>Sibling</desc>
			<v:textBlock v:margins="rect(4,4,4,4)" v:tabSpace="42.5197"/>
			<v:textRect cx="23.0887" cy="473.2" width="70" height="24.8035"/>
			<path d="M0 450.12 L0 473.2 L58.63 473.2 L58.63 462.57" class="st7"/>
			<rect v:rectContext="textBkgnd" x="4.4028" y="464.8" width="37.3719" height="16.8" class="st8"/>
			<text x="4.4" y="477.4" class="st9" v:langID="1033"><v:paragraph v:horizAlign="1"/><v:tabList/>Sibling</text>		</g>
		<g id="shape58-117" v:mID="58" v:groupContext="shape" v:layerMember="0" transform="translate(42.2047,-64.1113)">
			<title>Dynamic connector.58</title>
			<desc>Sibling</desc>
			<v:textBlock v:margins="rect(4,4,4,4)" v:tabSpace="42.5197"/>
			<v:textRect cx="117.686" cy="482.968" width="70" height="24.8035"/>
			<path d="M0 442.17 L0 482.97 L237.31 482.97 L237.31 442.17" class="st7"/>
			<rect v:rectContext="textBkgnd" x="99.0004" y="474.568" width="37.3719" height="16.8" class="st8"/>
			<text x="99" y="487.17" class="st9" v:langID="1033"><v:paragraph v:horizAlign="1"/><v:tabList/>Sibling</text>		</g>
		<g id="shape66-122" v:mID="66" v:groupContext="shape" v:layerMember="0" transform="translate(649.834,-218.54)">
			<title>Dynamic connector.66</title>
			<desc>Sibling?</desc>
			<v:textBlock v:margins="rect(4,4,4,4)" v:tabSpace="42.5197"/>
			<v:textRect cx="53.1496" cy="449.258" width="70" height="24.8035"/>
			<path d="M0 449.26 L56.69 449.26 L56.69 399.65" class="st11"/>
			<rect v:rectContext="textBkgnd" x="31.22" y="440.859" width="43.8591" height="16.8" class="st8"/>
			<text x="31.22" y="453.46" class="st9" v:langID="1033"><v:paragraph v:horizAlign="1"/><v:tabList/>Sibling?</text>		</g>
		<g id="shape72-127" v:mID="72" v:groupContext="shape" v:layerMember="0" transform="translate(330.936,-218.54)">
			<title>Dynamic connector.72</title>
			<desc>Sibling</desc>
			<v:textBlock v:margins="rect(4,4,4,4)" v:tabSpace="42.5197"/>
			<v:textRect cx="-26.5748" cy="437.028" width="70" height="24.8035"/>
			<path d="M0 449.26 L-53.15 424.8" class="st7"/>
			<rect v:rectContext="textBkgnd" x="-45.2607" y="428.629" width="37.3719" height="16.8" class="st10"/>
			<text x="-45.26" y="441.23" class="st9" v:langID="1033"><v:paragraph v:horizAlign="1"/><v:tabList/>Sibling</text>		</g>
		<g id="shape74-132" v:mID="74" v:groupContext="shape" v:layerMember="0" transform="translate(437.235,-48.4612)">
			<title>Dynamic connector.74</title>
			<desc>Uncle?</desc>
			<v:textBlock v:margins="rect(4,4,4,4)" v:tabSpace="42.5197"/>
			<v:textRect cx="-116.929" cy="408.634" width="70" height="24.8035"/>
			<path d="M0 449.26 L0 459.89 L-116.93 459.89 L-116.93 307.87 L-171.9 307.87 L-171.9 284.79" class="st11"/>
			<rect v:rectContext="textBkgnd" x="-136.391" y="400.234" width="38.9237" height="16.8" class="st8"/>
			<text x="-136.39" y="412.83" class="st9" v:langID="1033"><v:paragraph v:horizAlign="1"/><v:tabList/>Uncle?</text>		</g>
		<g id="shape75-137" v:mID="75" v:groupContext="shape" v:layerMember="0" transform="translate(359.045,-178.537)">
			<title>Dynamic connector.75</title>
			<desc>Uncle</desc>
			<v:textBlock v:margins="rect(4,4,4,4)" v:tabSpace="42.5197"/>
			<v:textRect cx="-11.1008" cy="480.121" width="70" height="24.8035"/>
			<path d="M0 449.26 L0 496.46 L-36.38 496.46 A2.3622 2.3622 -180 0 0 -41.1 496.46 L-79.54 496.46" class="st7"/>
			<rect v:rectContext="textBkgnd" x="-27.3191" y="471.722" width="32.4366" height="16.8" class="st8"/>
			<text x="-27.32" y="484.32" class="st9" v:langID="1033"><v:paragraph v:horizAlign="1"/><v:tabList/>Uncle</text>		</g>
		<g id="shape77-142" v:mID="77" v:groupContext="shape" v:layerMember="0" transform="translate(359.282,-388.619)">
			<title>Dynamic connector.77</title>
			<desc>Grandparent</desc>
			<v:textBlock v:margins="rect(4,4,4,4)" v:tabSpace="42.5197"/>
			<v:textRect cx="-170.079" cy="449.258" width="84.26" height="24.8035"/>
			<path d="M0 449.26 L-340.16 449.26 L-340.16 706.54 L-317.08 706.54" class="st7"/>
			<rect v:rectContext="textBkgnd" x="-206.62" y="440.859" width="73.0827" height="16.8" class="st8"/>
			<text x="-206.62" y="453.46" class="st9" v:langID="1033"><v:paragraph v:horizAlign="1"/><v:tabList/>Grandparent</text>		</g>
		<g id="shape78-147" v:mID="78" v:groupContext="shape" v:layerMember="0" transform="translate(19.125,-168.934)">
			<title>Dynamic connector.78</title>
			<desc>Grandparent?</desc>
			<v:textBlock v:margins="rect(4,4,4,4)" v:tabSpace="42.5197"/>
			<v:textRect cx="49.6063" cy="442.172" width="89.39" height="24.8035"/>
			<path d="M0 449.26 L0 442.17 L97.77 442.17 L97.77 486.85 L111.55 486.85" class="st11"/>
			<rect v:rectContext="textBkgnd" x="9.82148" y="433.772" width="79.5699" height="16.8" class="st8"/>
			<text x="9.82" y="446.37" class="st9" v:langID="1033"><v:paragraph v:horizAlign="1"/><v:tabList/>Grandparent?</text>		</g>
	</g>
</svg>
