<svg xmlns="http://www.w3.org/2000/svg" xmlns:xlink="http://www.w3.org/1999/xlink" version="1.1" class="marks" width="321" height="380" viewBox="0 0 321 380"><rect width="321" height="380" fill="white"/><g fill="none" stroke-miterlimit="10" transform="translate(61,16)"><g class="mark-group role-frame root" role="graphics-object" aria-roledescription="group mark container"><g transform="translate(0,0)"><path class="background" aria-hidden="true" d="M0.5,0.5h250v250h-250Z" stroke="#ddd"/><g><g class="mark-group role-axis" role="graphics-symbol" aria-roledescription="axis" aria-label="X-axis for a linear scale with values from 0.0 to 1.0"><g transform="translate(0.5,250.5)"><path class="background" aria-hidden="true" d="M0,0h0v0h0Z" pointer-events="none"/><g><g class="mark-rule role-axis-grid" pointer-events="none"><line transform="translate(0,-250)" x2="0" y2="250" stroke="#ddd" stroke-width="1" opacity="1"/><line transform="translate(50,-250)" x2="0" y2="250" stroke="#ddd" stroke-width="1" opacity="1"/><line transform="translate(100,-250)" x2="0" y2="250" stroke="#ddd" stroke-width="1" opacity="1"/><line transform="translate(150,-250)" x2="0" y2="250" stroke="#ddd" stroke-width="1" opacity="1"/><line transform="translate(200,-250)" x2="0" y2="250" stroke="#ddd" stroke-width="1" opacity="1"/><line transform="translate(250,-250)" x2="0" y2="250" stroke="#ddd" stroke-width="1" opacity="1"/></g></g><path class="foreground" aria-hidden="true" d="" pointer-events="none" display="none"/></g></g><g class="mark-group role-axis" role="graphics-symbol" aria-roledescription="axis" aria-label="Y-axis for a linear scale with values from 0.0 to 1.0"><g transform="translate(0.5,0.5)"><path class="background" aria-hidden="true" d="M0,0h0v0h0Z" pointer-events="none"/><g><g class="mark-rule role-axis-grid" pointer-events="none"><line transform="translate(0,250)" x2="250" y2="0" stroke="#ddd" stroke-width="1" opacity="1"/><line transform="translate(0,200)" x2="250" y2="0" stroke="#ddd" stroke-width="1" opacity="1"/><line transform="translate(0,150)" x2="250" y2="0" stroke="#ddd" stroke-width="1" opacity="1"/><line transform="translate(0,100)" x2="250" y2="0" stroke="#ddd" stroke-width="1" opacity="1"/><line transform="translate(0,50)" x2="250" y2="0" stroke="#ddd" stroke-width="1" opacity="1"/><line transform="translate(0,0)" x2="250" y2="0" stroke="#ddd" stroke-width="1" opacity="1"/></g></g><path class="foreground" aria-hidden="true" d="" pointer-events="none" display="none"/></g></g><g class="mark-group role-axis" role="graphics-symbol" aria-roledescription="axis" aria-label="X-axis titled 'FPR' for a linear scale with values from 0.0 to 1.0"><g transform="translate(0.5,250.5)"><path class="background" aria-hidden="true" d="M0,0h0v0h0Z" pointer-events="none"/><g><g class="mark-rule role-axis-tick" pointer-events="none"><line transform="translate(0,0)" x2="0" y2="5" stroke="#888" stroke-width="1" opacity="1"/><line transform="translate(50,0)" x2="0" y2="5" stroke="#888" stroke-width="1" opacity="1"/><line transform="translate(100,0)" x2="0" y2="5" stroke="#888" stroke-width="1" opacity="1"/><line transform="translate(150,0)" x2="0" y2="5" stroke="#888" stroke-width="1" opacity="1"/><line transform="translate(200,0)" x2="0" y2="5" stroke="#888" stroke-width="1" opacity="1"/><line transform="translate(250,0)" x2="0" y2="5" stroke="#888" stroke-width="1" opacity="1"/></g><g class="mark-text role-axis-label" pointer-events="none"><text text-anchor="start" transform="translate(0,24)" font-family="arial narrow" font-size="21px" fill="#000" opacity="1">0.0</text><text text-anchor="middle" transform="translate(50,24)" font-family="arial narrow" font-size="21px" fill="#000" opacity="1">0.2</text><text text-anchor="middle" transform="translate(100,24)" font-family="arial narrow" font-size="21px" fill="#000" opacity="1">0.4</text><text text-anchor="middle" transform="translate(150,24)" font-family="arial narrow" font-size="21px" fill="#000" opacity="1">0.6</text><text text-anchor="middle" transform="translate(200,24)" font-family="arial narrow" font-size="21px" fill="#000" opacity="1">0.8</text><text text-anchor="end" transform="translate(250,24)" font-family="arial narrow" font-size="21px" fill="#000" opacity="1">1.0</text></g><g class="mark-rule role-axis-domain" pointer-events="none"><line transform="translate(0,0)" x2="250" y2="0" stroke="#888" stroke-width="1" opacity="1"/></g><g class="mark-text role-axis-title" pointer-events="none"><text text-anchor="middle" transform="translate(125,49)" font-family="arial narrow" font-size="21px" font-weight="bold" fill="#000" opacity="1">FPR</text></g></g><path class="foreground" aria-hidden="true" d="" pointer-events="none" display="none"/></g></g><g class="mark-group role-axis" role="graphics-symbol" aria-roledescription="axis" aria-label="Y-axis titled 'TPR' for a linear scale with values from 0.0 to 1.0"><g transform="translate(0.5,0.5)"><path class="background" aria-hidden="true" d="M0,0h0v0h0Z" pointer-events="none"/><g><g class="mark-rule role-axis-tick" pointer-events="none"><line transform="translate(0,250)" x2="-5" y2="0" stroke="#888" stroke-width="1" opacity="1"/><line transform="translate(0,200)" x2="-5" y2="0" stroke="#888" stroke-width="1" opacity="1"/><line transform="translate(0,150)" x2="-5" y2="0" stroke="#888" stroke-width="1" opacity="1"/><line transform="translate(0,100)" x2="-5" y2="0" stroke="#888" stroke-width="1" opacity="1"/><line transform="translate(0,50)" x2="-5" y2="0" stroke="#888" stroke-width="1" opacity="1"/><line transform="translate(0,0)" x2="-5" y2="0" stroke="#888" stroke-width="1" opacity="1"/></g><g class="mark-text role-axis-label" pointer-events="none"><text text-anchor="end" transform="translate(-7,256)" font-family="arial narrow" font-size="21px" fill="#000" opacity="1">0.0</text><text text-anchor="end" transform="translate(-7,206)" font-family="arial narrow" font-size="21px" fill="#000" opacity="1">0.2</text><text text-anchor="end" transform="translate(-7,156)" font-family="arial narrow" font-size="21px" fill="#000" opacity="1">0.4</text><text text-anchor="end" transform="translate(-7,106)" font-family="arial narrow" font-size="21px" fill="#000" opacity="1">0.6</text><text text-anchor="end" transform="translate(-7,55.999999999999986)" font-family="arial narrow" font-size="21px" fill="#000" opacity="1">0.8</text><text text-anchor="end" transform="translate(-7,6)" font-family="arial narrow" font-size="21px" fill="#000" opacity="1">1.0</text></g><g class="mark-rule role-axis-domain" pointer-events="none"><line transform="translate(0,250)" x2="0" y2="-250" stroke="#888" stroke-width="1" opacity="1"/></g><g class="mark-text role-axis-title" pointer-events="none"><text text-anchor="middle" transform="translate(-34.95833396911621,125) rotate(-90) translate(0,-4)" font-family="arial narrow" font-size="21px" font-weight="bold" fill="#000" opacity="1">TPR</text></g></g><path class="foreground" aria-hidden="true" d="" pointer-events="none" display="none"/></g></g><g class="mark-group role-scope layer_0_pathgroup" role="graphics-object" aria-roledescription="group mark container"><g transform="translate(0,0)"><path class="background" aria-hidden="true" d="M0,0h250v250h-250Z"/><g><g class="mark-line role-mark layer_0_marks" role="graphics-symbol" aria-roledescription="line mark container"><path d="M1.674529015089661,239.20685948701768L4.0823732196316795,224.35827901426924L4.995237231243763,220.55923161123002L5.79848196195833,217.80547693946178L6.320118540022377,215.74447523346515L6.745365750400677,214.12229924955872L7.106353382321813,212.78856489197L7.384181559768968,211.6471249519264L7.641219873597629,210.6092281597917L7.939837914663279,209.58119261983887L8.344295261423085,208.4644058102498L8.625903414073605,207.4067865137515L8.852701926275364,206.4970859999803L9.179669781366233,205.49616890352738L9.425368169584807,204.7072687289832L9.659726632193292,203.89864605007543L9.912984970818592,203.15658682339483L10.15112340863044,202.4662991706687L10.343902144001936,201.84010965712426L10.532900904170068,201.12270356089817L10.712449726329796,200.51130592562643L10.907118449302972,199.80869170767303L11.139586924309777,199.1430571854014L11.404185188545163,198.41332452394806L11.617753787535154,197.83151064522173L11.816202485711694,197.18806394035914L11.990081345066375,196.56433973986017L12.160180229217696,195.86912146104314L12.347289001784148,195.27498101708957L12.551407662765731,194.63646493831789L12.78954610057758,193.93631603340995L12.982324835949075,193.24109775459286L13.241253137379418,192.6469573106393L13.42836190994587,192.0799353101857L13.611690707308961,191.40443953573225L13.817699355892225,190.81276440482412L14.055837793704073,190.171783013007L14.292086243914241,189.5135444298717L14.545344582539538,188.8503752206455L14.766473131936253,188.15515694182847L15.008391544951465,187.506779610875L15.263539871178445,186.79676945378526L15.586727751065952,186.0152652183774L15.892905742538328,185.33730413087855L16.280353200883003,184.59524490419793L16.609211043575556,183.91235319060814L16.972088663098372,183.16043271174576L17.319846381807736,182.4159081720197L17.63547431128852,181.71575926711176L17.977562067192842,180.90960190124943L18.325319785902202,180.16507736152337L18.720327194653603,179.32440561302477L19.138014454625175,178.4738726123443L19.531131875774893,177.6479927421184L19.9960688257885,176.77280661098345L20.500695515437418,175.8384529667577L20.965632465451026,174.93861370516828L21.538298708760472,173.91797410435177L22.0618252744262,172.9712938948988L22.679851220175998,171.91367459840052L23.328116967552695,170.77223465835692L23.919683086878948,169.65544784876784L24.63031842511113,168.6027591783605L25.36552360216517,167.53774394272585L26.142308506456196,166.3100180460915L26.95311318757749,165.05763901900264L27.78848770752064,163.72636997445935L28.803411049623513,162.372913112507L29.937403610632312,160.8099046416914L30.933427076718377,159.33811275355745L32.10332940215912,157.69867957833287L33.36773110768394,155.97296044651748L34.62457286280202,154.328596645202L35.94945417158064,152.5806896959776L37.44632435211225,150.75882335538964L39.043363875532975,148.97886733657438L40.70655296501255,146.98442908280492L42.40565181892407,144.87658642894473L44.11987057364904,142.74409064463006L46.13648734464302,140.41190450363388L48.366672714626986,137.84058299722898L50.78396685717742,135.31117181259677L53.29576037981191,132.55988245387402L56.11562188152046,129.83571153865117L58.96761317245759,126.98827497115583L62.13712238047719,123.72913112507025L65.50319029907163,120.19633753093967L69.30206537845112,116.71778082380901L73.52618766820889,112.72890431627009L78.11318757748948,108.71537467827666L83.16134446158033,104.12742710069325L89.13181529529167,99.10065380101965L95.67117239710907,93.52165037916515L103.01755420484442,86.98610549567584L112.43347243642083,79.74301576814224L123.39729051377422,71.29685327442878L136.13202697390307,62.123423432307426L150.8663703166107,51.97372962418767L166.5721672865826,41.47642667665941L184.76140796516376,29.665111875906007L250,0" stroke="#e05a00" stroke-width="2"/></g></g><path class="foreground" aria-hidden="true" d="" display="none"/></g><g transform="translate(0,0)"><path class="background" aria-hidden="true" d="M0,0h250v250h-250Z"/><g><g class="mark-line role-mark layer_0_marks" role="graphics-symbol" aria-roledescription="line mark container"><path d="M0.0011620340243562331,250L0.0011620340243562331,250L0.0011620340243562331,250L0.005810170121781165,249.99883796597564L0.005810170121781165,249.99883796597564L0.006972204146137399,249.99651389792692L0.006972204146137399,249.9976759319513L0.008134238170493632,249.99418982987822L0.010458306219206098,249.98256948963464L0.016268476340987263,249.9709491493911L0.02324068048712466,249.95351863902576L0.03602305475504323,249.93260202658735L0.05345356512038672,249.8803104954913L0.06274983731523659,249.79896811378637L0.09063865389978619,249.7048433578135L0.12201357255740448,249.57934368318305L0.16965696755601004,249.4131728177001L0.23937900901738401,249.1958724551455L0.31491122060053917,248.93906293576276L0.42646648693873757,248.60439713674816L0.5728827740076229,248.16166217346844L0.7344055033931394,247.59575160360694L0.9598401041182486,246.93455424374824L1.2375662359393884,246.16528771962442L1.56409779678349,245.27516965696756L1.9452449567723344,244.26187598772893L2.4007622943199776,243.09519382727527L2.9143813330854327,241.7054011341452L3.4558891884354375,240.25983080784604L4.054336710978897,238.71548758947662L4.657432369619782,237.02589011806265L5.346518546063029,235.2351956865297L6.062331505066468,233.46890396950823L6.817653620898019,231.53527935297947L7.72752626196895,229.5644696476713L8.675746025843637,227.51464162870687L9.655340708375942,225.38347122803756L10.736032351027237,223.13842149298134L11.980570791112763,220.89220972390072L13.304127544854513,218.67388677140468L14.73691549688575,216.31147159988845L16.330064144278143,214.01761643580923L17.9906107650832,211.5843171888073L19.781305196616156,208.93836571534814L21.77651761643581,206.35516407920423L24.09361346100214,203.584874965139L26.504834061541324,200.73672957144183L29.198428929999068,197.7351956865297L32.24063400576369,194.67323603235104L35.376963837501165,191.64032722878127L38.965324904713206,188.49470112484894L42.93715719996281,185.1445570326299L47.24016919215394,181.8420563354095L52.12071209445013,178.33852375197546L57.34754113600446,174.78618573951846L63.074044808031985,170.92242260853396L69.36297294784791,166.9738309937715L76.5954727154411,162.2954820117133L86.50646090917542,154.82360323510272L111.87017755879893,128.78939295342568L151.92084224226085,71.89155898484708L179.67718694803384,35.548944873105896L194.98582318490284,23.00478758018035L204.97466765826903,16.90759505438319L211.98057079111277,13.221623129125227L217.69777819094543,10.658176071395381L222.65385330482476,8.71641721669611L227.06377242725668,7.018685507111655L230.8729199590964,5.601003997397047L234.14520777168354,4.483127265966336L237.0375104583062,3.5860369991633223L239.4034117318955,2.8225806451612767L241.47531839732267,2.205540578228138L243.17072603885842,1.7569954448266312L244.61281026308453,1.342149298131451L245.73765919866133,1.0586129961885349L246.63126336339127,0.7901831365622336L247.3900715812959,0.6019336246165241L247.9792228316445,0.46597564376685274L248.43822627126522,0.3637166496235078L248.80078088686435,0.2823742679185781L249.08547922283165,0.23008273682254L249.29464534721578,0.16733289950729424L249.48638096123454,0.12898577670353295L249.62350097610857,0.09412475597286862L249.72343590220322,0.06972204146138417L249.78734777354282,0.049967463047306815L249.82685693037092,0.037185088779395636L249.87914846146694,0.025564748535850113L249.91284744817327,0.019754578414049595L249.93608812866043,0.016268476340980387L249.9523566050014,0.01162034024357328L249.96862508134237,0.004648136097434863L249.9709491493911,0.004648136097434863L249.98140745561028,0.0034861020730692083L249.98373152365903,0.0034861020730692083L249.9872176257321,0.0011620340243656546L249.98837965975642,0L249.99070372780517,0L249.99535186390256,0L250,0" stroke="#440154" stroke-width="2"/></g></g><path class="foreground" aria-hidden="true" d="" display="none"/></g><g transform="translate(0,0)"><path class="background" aria-hidden="true" d="M0,0h250v250h-250Z"/><g><g class="mark-line role-mark layer_0_marks" role="graphics-symbol" aria-roledescription="line mark container"><path d="M0.0011620340243562331,249.99883796597564L0.0011620340243562331,249.99883796597564L0.0011620340243562331,250L0.0023240680487124662,249.99883796597564L0.0034861020730686996,249.99883796597564L0.0034861020730686996,249.99883796597564L0.0046481360974249325,249.99883796597564L0.0046481360974249325,249.99883796597564L0.0046481360974249325,249.99883796597564L0.005810170121781165,249.99883796597564L0.008134238170493632,249.99535186390256L0.009296272194849865,249.99418982987822L0.010458306219206098,249.99302779585386L0.012782374267918565,249.98837965975642L0.015106442316631032,249.98605559170772L0.01859254438969973,249.98373152365903L0.02672678256019336,249.9732732174398L0.031374918657618295,249.95700474109884L0.03950915682811193,249.9279538904899L0.05926373524216789,249.88960676768616L0.08599051780236126,249.80826438598123L0.11968950450869201,249.6897369154969L0.17662917170214743,249.5293762201357L0.27191596169935855,249.26094636050945L0.3823091940132007,248.87515106442316L0.5240773449846612,248.34293948126802L0.7739146602212512,247.63874686250813L1.080691642651297,246.78348982058196L1.4711350748349912,245.74463140280747L1.9998605559170772,244.51055126894116L2.592497908338756,242.9243748256949L3.28855628892814,241.0895231012364L4.10895231012364,238.9630008366645L4.982801896439528,236.63660871990334L5.865947754950265,234.1974993027796L6.871107186018407,231.77465836199684L8.022682904155435,229.16472994329274L9.250952867899972,226.43859812215302L10.530352328716184,223.7391930835735L11.936413498187228,220.88291345170586L13.555126894115459,218.0336060239844L15.209863344798736,215.3016640327229L17.060983545598216,212.330343032444L18.884214929813147,209.43920237984568L21.059542623408014,206.38072882774009L23.339453379194943,203.34782002417032L25.832016361439063,200.2103281584085L28.59300920330947,197.0263549316724L31.760713953704563,193.77846983359672L35.138746862508135,190.45621455796226L38.861903876545504,187.07120944501256L42.88951380496421,183.44682532304546L47.31686343776146,179.83987171144372L52.21367481639862,176.24453844008553L57.59040624709492,172.64571906665427L63.314585851073716,168.860974249326L69.46523194199126,165.1505996095566L76.40954727154411,161.0683740819931L84.13474946546434,156.27730779957238L94.30719531467881,149.06107650832018L117.61992191131357,123.47424932602027L155.97053081714233,78.5767407269685L182.73101236404202,53.68713395928232L202.74704843357813,21.33378265315608L213.65273775216136,11.973598586966617L221.7823277865576,7.96109510086454L227.13000836664497,5.741610114344153L231.26336339128008,4.461048619503583L234.75295156642187,3.5383936041647193L237.76494375755323,2.778423352235743L240.1819745282142,2.1613832853026036L242.2445849214465,1.6268476340987326L243.93650646090916,1.2236218276471256L245.26006321465093,0.9214929813144979L246.34191689132658,0.6914102444919579L247.13326206191317,0.5298875151064364L247.81072789811287,0.4055498745003383L248.33712931114624,0.3021288463326277L248.75429952589013,0.23008273682254L249.04713210002788,0.16384679743422503L249.26908059867995,0.1080691642651177L249.4317653620898,0.08599051780236455L249.54448266245237,0.05926373524217654L249.6362833503765,0.04531932694989971L249.7025192897648,0.02905085060891932L249.76526912708005,0.02091661243841525L249.79896811378637,0.016268476340980387L249.83499116854142,0.012782374267911178L249.8593938830529,0.00929627219484197L249.8884447336618,0.008134238170504071L249.90587524402713,0.005810170121772762L249.92098168634377,0.004648136097434863L249.93725016268476,0.0023240680487035537L249.95351863902576,0.0023240680487035537L249.9709491493911,0.0023240680487035537L249.97792135353723,0.0023240680487035537L249.98373152365903,0.0023240680487035537L249.9918657618295,0.0011620340243656546L249.99535186390256,0.0011620340243656546L249.99535186390256,0.0011620340243656546L250,0" stroke="#6a00a8" stroke-width="2"/></g></g><path class="foreground" aria-hidden="true" d="" display="none"/></g><g transform="translate(0,0)"><path class="background" aria-hidden="true" d="M0,0h250v250h-250Z"/><g><g class="mark-line role-mark layer_0_marks" role="graphics-symbol" aria-roledescription="line mark container"><path d="M0,249.99883796597564L0.0011620340243562331,249.99883796597564L0.012782374267918565,249.99651389792692L0.02556474853583713,249.99302779585386L0.04299525890118063,249.98605559170772L0.07088407548573022,249.96746304731803L0.08250441572929255,249.9546806730501L0.09296272194849864,249.9442223668309L0.10458306219206098,249.93841219670912L0.12201357255740448,249.9291159245143L0.13130984475225435,249.9198196523194L0.16036069536116015,249.91052338012457L0.1940596820674909,249.8884447336618L0.2463512131635214,249.86636608719903L0.3183973226736079,249.83615320256578L0.3857952960862694,249.78850980756718L0.46365157571813703,249.7397043785442L0.5577763316909919,249.67114437110718L0.7320814353444268,249.54099656037928L1.3433113321558054,249.1447429580738L4.552849307427722,246.5429487775402L15.333038951380496,235.42576926652413L32.596216417216695,216.43232313842148L41.710049270242635,207.5660035325834L42.45491307985498,207.00241703077066L42.50023240680488,206.97685228223483L42.507204610951014,206.97220414613741L42.50952867899972,206.9640699079669L42.52114901924328,206.9536116017477L42.538579529608626,206.94199126150414L42.56530631216882,206.92456075113878L42.594357162777726,206.89899600260296L42.63851445570326,206.87691735614018L42.73961141582225,206.81416751882495L43.02314771776518,206.59686715627035L44.32578785906852,205.53128195593567L48.569536116017474,201.4734591428837L55.59054569117784,193.61927117225991L59.78665055312819,189.58817514176815L60.375801803476804,189.21400018592544L60.37812587152552,189.20935204982803L60.388584177744725,189.2070279817793L60.38974621176908,189.20586594775497L60.39555638189086,189.2023798456819L60.402528586037,189.18959747141395L60.40717672213442,189.18494933531653L60.40833875615878,189.18378730129217L60.41298689225621,189.18146323324348L60.42228316445106,189.17332899507298L60.43622757274333,189.16635679092684L60.44668587896253,189.15357441665893L60.45365808310867,189.14195407641535L60.46063028725481,189.12917170214743L60.46411638932788,189.12103746397696L60.47341266152273,189.11406525983082L60.49200520591243,189.09431068141674L60.519894022496985,189.07688017105139L60.54197266895975,189.05596355861297L60.57683368969043,189.0152923677605L60.622153016640326,188.96067676861577L60.73138421492982,188.89560286325184L60.863856093706424,188.7503486102073L61.182253416380036,188.46448824021567L62.31872269220043,187.46165287719623L71.4790369062006,179.2379380868272L105.65561959654178,143.88305289578878L107.00822720089243,142.7512317560658L107.03727805150135,142.73496327972484L107.08840754857302,142.70823649716462L107.14418518174213,142.66524123826346L107.24063400576368,142.60249140094822L107.3603235102724,142.523473087292L107.50557776331692,142.43980663753837L107.68569303709212,142.32592730315145L107.91228967184159,142.15743236961978L108.19466393976016,141.97847912986893L108.62694059682069,141.64613739890302L109.45198475411361,141.04768987635958L112.32685693037092,138.94440829227477L125.32653156084412,127.44027145114808L185.0841312633634,67.90694431532957L249.5293762201357,0.37766105791578464L249.94073626475782,0.04415729292553405L249.9767593195129,0.018592544389711696L249.98256948963464,0.013944408292276833L249.98373152365903,0.012782374267911178L249.98605559170772,0.010458306219207625L249.98605559170772,0.010458306219207625L249.98605559170772,0.010458306219207625L249.98605559170772,0.010458306219207625L249.98605559170772,0.01162034024357328L249.98605559170772,0.012782374267911178L249.98954169378078,0.00929627219484197L249.99070372780517,0.004648136097434863L249.99418982987822,0.0011620340243656546L249.99418982987822,0.0011620340243656546L249.99418982987822,0.0011620340243656546L249.99418982987822,0.0011620340243656546L249.99418982987822,0.0023240680487035537L249.9976759319513,0L250,0" stroke="#21918c" stroke-width="2"/></g></g><path class="foreground" aria-hidden="true" d="" display="none"/></g><g transform="translate(0,0)"><path class="background" aria-hidden="true" d="M0,0h250v250h-250Z"/><g><g class="mark-line role-mark layer_0_marks" role="graphics-symbol" aria-roledescription="line mark container"><path d="M0.0011620340243562331,250L0.0011620340243562331,250L0.0023240680487124662,249.9976759319513L0.0023240680487124662,249.9976759319513L0.0023240680487124662,249.99883796597564L0.0034861020730686996,249.99651389792692L0.0046481360974249325,249.99535186390256L0.0046481360974249325,249.99535186390256L0.006972204146137399,249.99070372780517L0.006972204146137399,249.99302779585386L0.008134238170493632,249.98373152365903L0.008134238170493632,249.98373152365903L0.008134238170493632,249.9872176257321L0.008134238170493632,249.98837965975642L0.009296272194849865,249.98140745561028L0.010458306219206098,249.97792135353723L0.01162034024356233,249.9767593195129L0.012782374267918565,249.9755972854885L0.017430510365343498,249.97211118341545L0.019754578414055965,249.96630101329367L0.022078646462768428,249.96165287719623L0.027888816584549597,249.95700474109884L0.034861020730686997,249.9546806730501L0.04183322487682439,249.94538440085526L0.05229153109603049,249.94306033280657L0.06158780329088035,249.93725016268476L0.07669424560751138,249.92679185646554L0.09180068792414242,249.9174955842707L0.10690713024077345,249.90355117597844L0.12898577670354186,249.88960676768616L0.15803662731244772,249.86636608719903L0.18476340987264106,249.83847727061448L0.224272566700753,249.79315794366457L0.26726782560193363,249.75945895695824L0.33466579901459514,249.71646369805708L0.393929534256763,249.6386074184252L0.4752719159616994,249.5781816491587L0.5717207399832667,249.46546434879613L0.6774658361996839,249.36901552477457L0.7948312726596635,249.24467788416845L0.951705865947755,249.09942363112393L1.1027702891140652,248.94138700381146L1.3293669238635308,248.7496513897927L1.600120851538533,248.52537882309196L1.9010876638467975,248.2290601468811L2.2706144835920794,247.88044993957422L2.6947569024821045,247.47606209909824L3.2327786557590406,247.01822069350192L3.8393604164729944,246.47090266803013L4.563307613646927,245.83643209073162L5.341870409965604,245.11248489355768L6.300548480059496,244.2270149669982L7.409128939295343,243.19861485544297L8.787301292181835,242.0156642186483L10.357209259087107,240.51315422515572L12.145579622571349,238.8328530259366L14.274425955191967,236.88295993306684L16.71702147438877,234.51938272752625L19.443153295528493,231.8188156549224L22.77005670726039,228.7487217625732L26.41187133959282,225.0244027145115L30.634702984103374,220.90731616621733L35.46295435530352,216.19294412940408L40.83852375197546,210.87663846797432L46.65334200985405,204.78990424839637L53.14562610393232,198.18722692200427L60.07251092311983,190.85130612624337L67.49209816863437,183.0575439248861L75.35674444547736,174.96397694524495L83.38988565585201,166.14413870038115L91.81928046853211,156.89899600260296L100.54499395742307,146.83113321558056L109.60769731337734,135.94519847541136L119.21655666077903,124.11453007344056L129.27396114158225,111.04513340150598L139.60095751603606,97.39239564934462L149.89309286975922,83.91977317095845L159.6483685042298,71.82648507948313L168.39732267360787,61.839964674165664L176.28985776703544,53.81495770196151L183.5862694059682,47.17858138886308L190.2795853862601,41.55666077902762L196.93455424374827,36.33796597564376L203.7917170214744,31.073951845310035L210.81621269870783,25.72743329924701L217.78028260667472,20.384400855257027L224.87914846146694,15.374872176257327L231.42721018871433,10.955656781630573L237.1304731802547,7.301059775030206L241.61941061634283,4.505205912429116L244.90680487124664,2.671516221994991L247.2331969880078,1.4200055777633114L248.63344798735707,0.7100027888816696L249.35274704843357,0.3474481732825274L249.66882030305848,0.16268476340985938L249.8617179511016,0.07088407548572206L249.9442223668309,0.032536952681960774L249.97792135353723,0.012782374267911178L249.99302779585386,0.0011620340243656546L249.9976759319513,0.0011620340243656546L250,0" stroke="#5ec962" stroke-width="2"/></g></g><path class="foreground" aria-hidden="true" d="" display="none"/></g><g transform="translate(0,0)"><path class="background" aria-hidden="true" d="M0,0h250v250h-250Z"/><g><g class="mark-line role-mark layer_0_marks" role="graphics-symbol" aria-roledescription="line mark container"><path d="M0.0011620340243562331,249.99418982987822L0.0011620340243562331,249.99535186390256L0.0011620340243562331,249.99651389792692L0.0011620340243562331,249.9976759319513L0.0011620340243562331,249.99883796597564L0.0011620340243562331,250L0.0011620340243562331,250L0.0011620340243562331,250L0.0011620340243562331,250L0.0011620340243562331,250L0.0011620340243562331,250L0.0023240680487124662,249.99418982987822L0.0034861020730686996,249.99418982987822L0.0046481360974249325,249.99418982987822L0.005810170121781165,249.99418982987822L0.006972204146137399,249.99418982987822L0.008134238170493632,249.9918657618295L0.008134238170493632,249.99302779585386L0.01162034024356233,249.98954169378078L0.016268476340987263,249.98605559170772L0.017430510365343498,249.98373152365903L0.024402714511480898,249.98256948963464L0.029050850608905828,249.98256948963464L0.032536952681974526,249.9732732174398L0.04067119085246816,249.96978711536676L0.04996746304731802,249.9604908431719L0.06158780329088035,249.94770846890395L0.07204610951008646,249.93957423073348L0.08366644975364879,249.92446778841685L0.10109696011899229,249.91284744817327L0.11620340243562331,249.88960676768616L0.14176815097146045,249.86869015524775L0.16617086548294135,249.83963930463884L0.20219392023798458,249.8001301478107L0.2463512131635214,249.7501626847634L0.3044529143813331,249.69554708561867L0.35209630937993863,249.61071860184066L0.42530445291438135,249.5514548665985L0.5171051408385238,249.4712745189179L0.6298224412010783,249.37831179696943L0.7355675374174956,249.2516500883146L0.8808217904620248,249.0889653249047L1.0644231663103096,248.91001208515385L1.2805614948405688,248.7020079947941L1.5629357627591336,248.44287440736264L1.889467323603235,248.12099098261598L2.3101236404201915,247.71195500604256L2.870224040159896,247.28316445105514L3.4489169842893,246.73584642558333L4.111276378172352,246.08045923584643L5.117597843264851,245.24379473830993L6.234312540671191,244.180533606024L7.510225899414335,242.8581388863066L9.161476248024542,241.21502277586688L11.104397136748164,239.22678256019336L13.495863158873291,236.88179789904248L16.43580924049456,234.0266803011992L19.840568931858325,230.35697685228223L23.94835920795761,226.06326113228596L28.67086548294134,220.96076973133773L34.03016640327229,214.85079483127268L39.739239564934465,208.38407548573025L45.77252021939202,201.34795946825324L51.82439341823929,194.13870038114717L57.933206284280004,187.34196337268756L64.03504694617457,180.6649158687366L70.42623408013387,173.61834154504044L77.59249790833876,165.72929255368595L85.94752254346007,156.2552291531096L95.41809984196337,145.29724830343034L105.91242911592451,132.88207678720832L116.89016454401785,119.25838988565584L128.33852375197546,104.87008459607696L139.35925443896997,91.19410616342846L149.0994236311239,79.906107650832L157.38472622478386,71.74630473180255L164.30347680580087,65.7920423910012L170.42274797806078,60.910337454680665L176.65589848470765,56.09951659384588L183.6420470391373,50.58566514827553L191.53109603049177,43.920237984568175L200.55893836571533,36.27637817235288L209.72041461373988,28.214186111369333L219.2119085246816,20.307706609649536L228.3931393511202,13.230919401320069L236.34726224783861,7.696151343311336L242.37357069815005,3.9822906014688186L246.21757925072046,1.7639676489727696L248.31156456261039,0.836664497536499L249.18890025099935,0.4218183508413187L249.4794087570884,0.27772613182114325L249.61652877196244,0.20916612438412474L249.70135725574045,0.1650088314585907L249.77107929720182,0.12898577670353295L249.8326671004927,0.09412475597286862L249.88612066561308,0.06042576926651444L249.9233057543925,0.037185088779395636L249.9628149112206,0.019754578414049595L249.98256948963464,0.015106442316642488L249.99302779585386,0.004648136097434863L250,0" stroke="#3b528b" stroke-width="2"/></g></g><path class="foreground" aria-hidden="true" d="" display="none"/></g></g><g class="mark-line role-mark layer_1_marks" role="graphics-symbol" aria-roledescription="line mark container"><path d="M0,250L250,0" stroke="black" stroke-width="5" stroke-dasharray="3,1"/></g><g class="mark-group role-legend" role="graphics-symbol" aria-roledescription="legend" aria-label="Symbol legend for stroke color with 6 values: SciCheck, TransE, TransD, TransH, SimplE, ComplEx"><g transform="translate(0,321)"><path class="background" aria-hidden="true" d="M0,0h255v38h-255Z" pointer-events="none"/><g><g class="mark-group role-legend-entry"><g transform="translate(0,0)"><path class="background" aria-hidden="true" d="M0,0h0v0h0Z" pointer-events="none"/><g><g class="mark-group role-scope" role="graphics-object" aria-roledescription="group mark container"><g transform="translate(0,0)"><path class="background" aria-hidden="true" d="M0,0h78.625v18h-78.625Z" pointer-events="none" opacity="1"/><g><g class="mark-symbol role-legend-symbol" pointer-events="none"><path transform="translate(9,9)" d="M-5,0L5,0" stroke="#e05a00" stroke-width="6" opacity="1"/></g><g class="mark-text role-legend-label" pointer-events="none"><text text-anchor="start" transform="translate(22,14)" font-family="arial narrow" font-size="18px" fill="#000" opacity="1">SciCheck</text></g></g><path class="foreground" aria-hidden="true" d="" pointer-events="none" display="none"/></g><g transform="translate(91,0)"><path class="background" aria-hidden="true" d="M0,0h69.83333206176758v18h-69.83333206176758Z" pointer-events="none" opacity="1"/><g><g class="mark-symbol role-legend-symbol" pointer-events="none"><path transform="translate(9,9)" d="M-5,0L5,0" stroke="#21918c" stroke-width="6" opacity="1"/></g><g class="mark-text role-legend-label" pointer-events="none"><text text-anchor="start" transform="translate(22,14)" font-family="arial narrow" font-size="18px" fill="#000" opacity="1">TransD</text></g></g><path class="foreground" aria-hidden="true" d="" pointer-events="none" display="none"/></g><g transform="translate(173,0)"><path class="background" aria-hidden="true" d="M0,0h81.85416793823242v18h-81.85416793823242Z" pointer-events="none" opacity="1"/><g><g class="mark-symbol role-legend-symbol" pointer-events="none"><path transform="translate(9,9)" d="M-5,0L5,0" stroke="#6a00a8" stroke-width="6" opacity="1"/></g><g class="mark-text role-legend-label" pointer-events="none"><text text-anchor="start" transform="translate(22,14)" font-family="arial narrow" font-size="18px" fill="#000" opacity="1">SimplE</text></g></g><path class="foreground" aria-hidden="true" d="" pointer-events="none" display="none"/></g><g transform="translate(0,20)"><path class="background" aria-hidden="true" d="M0,0h78.625v18h-78.625Z" pointer-events="none" opacity="1"/><g><g class="mark-symbol role-legend-symbol" pointer-events="none"><path transform="translate(9,9)" d="M-5,0L5,0" stroke="#5ec962" stroke-width="6" opacity="1"/></g><g class="mark-text role-legend-label" pointer-events="none"><text text-anchor="start" transform="translate(22,14)" font-family="arial narrow" font-size="18px" fill="#000" opacity="1">TransE</text></g></g><path class="foreground" aria-hidden="true" d="" pointer-events="none" display="none"/></g><g transform="translate(91,20)"><path class="background" aria-hidden="true" d="M0,0h69.83333206176758v18h-69.83333206176758Z" pointer-events="none" opacity="1"/><g><g class="mark-symbol role-legend-symbol" pointer-events="none"><path transform="translate(9,9)" d="M-5,0L5,0" stroke="#3b528b" stroke-width="6" opacity="1"/></g><g class="mark-text role-legend-label" pointer-events="none"><text text-anchor="start" transform="translate(22,14)" font-family="arial narrow" font-size="18px" fill="#000" opacity="1">TransH</text></g></g><path class="foreground" aria-hidden="true" d="" pointer-events="none" display="none"/></g><g transform="translate(173,20)"><path class="background" aria-hidden="true" d="M0,0h81.85416793823242v18h-81.85416793823242Z" pointer-events="none" opacity="1"/><g><g class="mark-symbol role-legend-symbol" pointer-events="none"><path transform="translate(9,9)" d="M-5,0L5,0" stroke="#440154" stroke-width="6" opacity="1"/></g><g class="mark-text role-legend-label" pointer-events="none"><text text-anchor="start" transform="translate(22,14)" font-family="arial narrow" font-size="18px" fill="#000" opacity="1">ComplEx</text></g></g><path class="foreground" aria-hidden="true" d="" pointer-events="none" display="none"/></g></g></g><path class="foreground" aria-hidden="true" d="" pointer-events="none" display="none"/></g></g></g><path class="foreground" aria-hidden="true" d="" pointer-events="none" display="none"/></g></g></g><path class="foreground" aria-hidden="true" d="" display="none"/></g></g></g></svg>