<svg xmlns="http://www.w3.org/2000/svg" xmlns:xlink="http://www.w3.org/1999/xlink" version="1.1" class="marks" width="330" height="399" viewBox="0 0 330 399"><rect width="330" height="399" fill="white"/><g fill="none" stroke-miterlimit="10" transform="translate(61,16)"><g class="mark-group role-frame root" role="graphics-object" aria-roledescription="group mark container"><g transform="translate(0,0)"><path class="background" aria-hidden="true" d="M0.5,0.5h250v250h-250Z" stroke="#ddd"/><g><g class="mark-group role-axis" role="graphics-symbol" aria-roledescription="axis" aria-label="X-axis for a linear scale with values from 0.0 to 1.0"><g transform="translate(0.5,250.5)"><path class="background" aria-hidden="true" d="M0,0h0v0h0Z" pointer-events="none"/><g><g class="mark-rule role-axis-grid" pointer-events="none"><line transform="translate(0,-250)" x2="0" y2="250" stroke="#ddd" stroke-width="1" opacity="1"/><line transform="translate(50,-250)" x2="0" y2="250" stroke="#ddd" stroke-width="1" opacity="1"/><line transform="translate(100,-250)" x2="0" y2="250" stroke="#ddd" stroke-width="1" opacity="1"/><line transform="translate(150,-250)" x2="0" y2="250" stroke="#ddd" stroke-width="1" opacity="1"/><line transform="translate(200,-250)" x2="0" y2="250" stroke="#ddd" stroke-width="1" opacity="1"/><line transform="translate(250,-250)" x2="0" y2="250" stroke="#ddd" stroke-width="1" opacity="1"/></g></g><path class="foreground" aria-hidden="true" d="" pointer-events="none" display="none"/></g></g><g class="mark-group role-axis" role="graphics-symbol" aria-roledescription="axis" aria-label="Y-axis for a linear scale with values from 0.0 to 1.0"><g transform="translate(0.5,0.5)"><path class="background" aria-hidden="true" d="M0,0h0v0h0Z" pointer-events="none"/><g><g class="mark-rule role-axis-grid" pointer-events="none"><line transform="translate(0,250)" x2="250" y2="0" stroke="#ddd" stroke-width="1" opacity="1"/><line transform="translate(0,200)" x2="250" y2="0" stroke="#ddd" stroke-width="1" opacity="1"/><line transform="translate(0,150)" x2="250" y2="0" stroke="#ddd" stroke-width="1" opacity="1"/><line transform="translate(0,100)" x2="250" y2="0" stroke="#ddd" stroke-width="1" opacity="1"/><line transform="translate(0,50)" x2="250" y2="0" stroke="#ddd" stroke-width="1" opacity="1"/><line transform="translate(0,0)" x2="250" y2="0" stroke="#ddd" stroke-width="1" opacity="1"/></g></g><path class="foreground" aria-hidden="true" d="" pointer-events="none" display="none"/></g></g><g class="mark-group role-axis" role="graphics-symbol" aria-roledescription="axis" aria-label="X-axis titled 'FPR' for a linear scale with values from 0.0 to 1.0"><g transform="translate(0.5,250.5)"><path class="background" aria-hidden="true" d="M0,0h0v0h0Z" pointer-events="none"/><g><g class="mark-rule role-axis-tick" pointer-events="none"><line transform="translate(0,0)" x2="0" y2="5" stroke="#888" stroke-width="1" opacity="1"/><line transform="translate(50,0)" x2="0" y2="5" stroke="#888" stroke-width="1" opacity="1"/><line transform="translate(100,0)" x2="0" y2="5" stroke="#888" stroke-width="1" opacity="1"/><line transform="translate(150,0)" x2="0" y2="5" stroke="#888" stroke-width="1" opacity="1"/><line transform="translate(200,0)" x2="0" y2="5" stroke="#888" stroke-width="1" opacity="1"/><line transform="translate(250,0)" x2="0" y2="5" stroke="#888" stroke-width="1" opacity="1"/></g><g class="mark-text role-axis-label" pointer-events="none"><text text-anchor="start" transform="translate(0,24)" font-family="arial narrow" font-size="21px" fill="#000" opacity="1">0.0</text><text text-anchor="middle" transform="translate(50,24)" font-family="arial narrow" font-size="21px" fill="#000" opacity="1">0.2</text><text text-anchor="middle" transform="translate(100,24)" font-family="arial narrow" font-size="21px" fill="#000" opacity="1">0.4</text><text text-anchor="middle" transform="translate(150,24)" font-family="arial narrow" font-size="21px" fill="#000" opacity="1">0.6</text><text text-anchor="middle" transform="translate(200,24)" font-family="arial narrow" font-size="21px" fill="#000" opacity="1">0.8</text><text text-anchor="end" transform="translate(250,24)" font-family="arial narrow" font-size="21px" fill="#000" opacity="1">1.0</text></g><g class="mark-rule role-axis-domain" pointer-events="none"><line transform="translate(0,0)" x2="250" y2="0" stroke="#888" stroke-width="1" opacity="1"/></g><g class="mark-text role-axis-title" pointer-events="none"><text text-anchor="middle" transform="translate(125,49)" font-family="arial narrow" font-size="21px" font-weight="bold" fill="#000" opacity="1">FPR</text></g></g><path class="foreground" aria-hidden="true" d="" pointer-events="none" display="none"/></g></g><g class="mark-group role-axis" role="graphics-symbol" aria-roledescription="axis" aria-label="Y-axis titled 'TPR' for a linear scale with values from 0.0 to 1.0"><g transform="translate(0.5,0.5)"><path class="background" aria-hidden="true" d="M0,0h0v0h0Z" pointer-events="none"/><g><g class="mark-rule role-axis-tick" pointer-events="none"><line transform="translate(0,250)" x2="-5" y2="0" stroke="#888" stroke-width="1" opacity="1"/><line transform="translate(0,200)" x2="-5" y2="0" stroke="#888" stroke-width="1" opacity="1"/><line transform="translate(0,150)" x2="-5" y2="0" stroke="#888" stroke-width="1" opacity="1"/><line transform="translate(0,100)" x2="-5" y2="0" stroke="#888" stroke-width="1" opacity="1"/><line transform="translate(0,50)" x2="-5" y2="0" stroke="#888" stroke-width="1" opacity="1"/><line transform="translate(0,0)" x2="-5" y2="0" stroke="#888" stroke-width="1" opacity="1"/></g><g class="mark-text role-axis-label" pointer-events="none"><text text-anchor="end" transform="translate(-7,256)" font-family="arial narrow" font-size="21px" fill="#000" opacity="1">0.0</text><text text-anchor="end" transform="translate(-7,206)" font-family="arial narrow" font-size="21px" fill="#000" opacity="1">0.2</text><text text-anchor="end" transform="translate(-7,156)" font-family="arial narrow" font-size="21px" fill="#000" opacity="1">0.4</text><text text-anchor="end" transform="translate(-7,106)" font-family="arial narrow" font-size="21px" fill="#000" opacity="1">0.6</text><text text-anchor="end" transform="translate(-7,55.999999999999986)" font-family="arial narrow" font-size="21px" fill="#000" opacity="1">0.8</text><text text-anchor="end" transform="translate(-7,6)" font-family="arial narrow" font-size="21px" fill="#000" opacity="1">1.0</text></g><g class="mark-rule role-axis-domain" pointer-events="none"><line transform="translate(0,250)" x2="0" y2="-250" stroke="#888" stroke-width="1" opacity="1"/></g><g class="mark-text role-axis-title" pointer-events="none"><text text-anchor="middle" transform="translate(-34.95833396911621,125) rotate(-90) translate(0,-4)" font-family="arial narrow" font-size="21px" font-weight="bold" fill="#000" opacity="1">TPR</text></g></g><path class="foreground" aria-hidden="true" d="" pointer-events="none" display="none"/></g></g><g class="mark-group role-scope layer_0_pathgroup" role="graphics-object" aria-roledescription="group mark container"><g transform="translate(0,0)"><path class="background" aria-hidden="true" d="M0,0h250v250h-250Z"/><g><g class="mark-line role-mark layer_0_marks" role="graphics-symbol" aria-roledescription="line mark container"><path d="M1.674529015089661,239.20685948701768L4.0823732196316795,224.35827901426924L4.995237231243763,220.55923161123002L5.79848196195833,217.80547693946178L6.320118540022377,215.74447523346515L6.745365750400677,214.12229924955872L7.106353382321813,212.78856489197L7.384181559768968,211.6471249519264L7.641219873597629,210.6092281597917L7.939837914663279,209.58119261983887L8.344295261423085,208.4644058102498L8.625903414073605,207.4067865137515L8.852701926275364,206.4970859999803L9.179669781366233,205.49616890352738L9.425368169584807,204.7072687289832L9.659726632193292,203.89864605007543L9.912984970818592,203.15658682339483L10.15112340863044,202.4662991706687L10.343902144001936,201.84010965712426L10.532900904170068,201.12270356089817L10.712449726329796,200.51130592562643L10.907118449302972,199.80869170767303L11.139586924309777,199.1430571854014L11.404185188545163,198.41332452394806L11.617753787535154,197.83151064522173L11.816202485711694,197.18806394035914L11.990081345066375,196.56433973986017L12.160180229217696,195.86912146104314L12.347289001784148,195.27498101708957L12.551407662765731,194.63646493831789L12.78954610057758,193.93631603340995L12.982324835949075,193.24109775459286L13.241253137379418,192.6469573106393L13.42836190994587,192.0799353101857L13.611690707308961,191.40443953573225L13.817699355892225,190.81276440482412L14.055837793704073,190.171783013007L14.292086243914241,189.5135444298717L14.545344582539538,188.8503752206455L14.766473131936253,188.15515694182847L15.008391544951465,187.506779610875L15.263539871178445,186.79676945378526L15.586727751065952,186.0152652183774L15.892905742538328,185.33730413087855L16.280353200883003,184.59524490419793L16.609211043575556,183.91235319060814L16.972088663098372,183.16043271174576L17.319846381807736,182.4159081720197L17.63547431128852,181.71575926711176L17.977562067192842,180.90960190124943L18.325319785902202,180.16507736152337L18.720327194653603,179.32440561302477L19.138014454625175,178.4738726123443L19.531131875774893,177.6479927421184L19.9960688257885,176.77280661098345L20.500695515437418,175.8384529667577L20.965632465451026,174.93861370516828L21.538298708760472,173.91797410435177L22.0618252744262,172.9712938948988L22.679851220175998,171.91367459840052L23.328116967552695,170.77223465835692L23.919683086878948,169.65544784876784L24.63031842511113,168.6027591783605L25.36552360216517,167.53774394272585L26.142308506456196,166.3100180460915L26.95311318757749,165.05763901900264L27.78848770752064,163.72636997445935L28.803411049623513,162.372913112507L29.937403610632312,160.8099046416914L30.933427076718377,159.33811275355745L32.10332940215912,157.69867957833287L33.36773110768394,155.97296044651748L34.62457286280202,154.328596645202L35.94945417158064,152.5806896959776L37.44632435211225,150.75882335538964L39.043363875532975,148.97886733657438L40.70655296501255,146.98442908280492L42.40565181892407,144.87658642894473L44.11987057364904,142.74409064463006L46.13648734464302,140.41190450363388L48.366672714626986,137.84058299722898L50.78396685717742,135.31117181259677L53.29576037981191,132.55988245387402L56.11562188152046,129.83571153865117L58.96761317245759,126.98827497115583L62.13712238047719,123.72913112507025L65.50319029907163,120.19633753093967L69.30206537845112,116.71778082380901L73.52618766820889,112.72890431627009L78.11318757748948,108.71537467827666L83.16134446158033,104.12742710069325L89.13181529529167,99.10065380101965L95.67117239710907,93.52165037916515L103.01755420484442,86.98610549567584L112.43347243642083,79.74301576814224L123.39729051377422,71.29685327442878L136.13202697390307,62.123423432307426L150.8663703166107,51.97372962418767L166.5721672865826,41.47642667665941L184.76140796516376,29.665111875906007L250,0" stroke="#e05a00" stroke-width="2"/></g></g><path class="foreground" aria-hidden="true" d="" display="none"/></g><g transform="translate(0,0)"><path class="background" aria-hidden="true" d="M0,0h250v250h-250Z"/><g><g class="mark-line role-mark layer_0_marks" role="graphics-symbol" aria-roledescription="line mark container"><path d="M0.4025673591581239,245.99140098809747L3.759185339744171,226.3921622767659L5.188015966615259,222.63749050854477L5.9288911064743415,220.52718254163915L6.4656475853518405,219.07757847091426L7.095013456711724,217.84985257427988L7.51459070428498,216.85879673000878L7.811318757748949,216.07236186851006L8.16663642686504,215.28592700701134L8.414224802685295,214.74355813701223L8.627793401675286,214.12229924955872L8.799782273428287,213.69333477965034L8.988781033596421,213.24957843146925L9.255269285433487,212.7836342658791L9.451827996008346,212.33741260465254L9.621926880159666,211.91337876083506L9.895975082403458,211.38087114301774L10.103873718588407,211.03819262970012L10.355242069612023,210.61169347283717L10.57826060661042,210.20491682033784L10.825848982430676,209.75129921997495L10.97326801536182,209.401224767521L11.156596812724908,209.001844054158L11.281335994435878,208.70354117565847L11.434424990172065,208.40277298411354L11.54026429586622,208.06009447079592L11.770842783271341,207.69769345311468L12.029771084701684,207.37473744416064L12.169630167226103,207.0542467482521L12.42099851824972,206.6450047827073L12.662916931264931,206.28013845198063L12.821675889806162,206.00402339089018L12.991774773957482,205.6884633210725L13.142973782091989,205.40741763389116L13.318742629048353,205.1313025728007L13.430251897547553,204.94886940743734L13.641930508935863,204.57167651148342L13.78178959146028,204.28076957212028L13.915978711179655,204.01944638930252L14.125767334966284,203.68416381512125L14.345005896761316,203.34641592789453L14.552904532946263,202.97661897107693L14.70410354108077,202.72269172739556L14.908222202062355,202.42438884889603L15.076431098611993,202.150739100851L15.272989809186852,201.85490153539698L15.401508966101183,201.57139053517014L15.550817986634007,201.30267141321607L15.713356920378601,201.01422978689834L15.900465692945055,200.7036003431716L16.089464453113187,200.38064433421758L16.24822341165442,200.11685583835435L16.371072605763707,199.8801857859911L16.682920560041126,199.4462906899918L16.958858749886602,199.12086936799233L17.76399346820285,198.41578983699353L18.448168980011488,197.72057155817646L18.627717802171215,197.35817054049522L20.74261392845263,195.91842772195216L22.802700414285283,194.04478980740976L24.471559466569897,192.3437238060489L25.390093440987027,191.20967980514163L32.76482506274759,185.1499403394243L33.54538994224198,184.22051732128946L34.273035168889294,183.29849024229094L34.93264084187608,182.48247162424687L35.54121684961747,181.71575926711176L36.42573104720433,180.66800122279528L37.058876893767575,179.93087262220558L37.578623484229944,179.16416026507045L38.659696392391666,177.95862218584514L39.31363210257341,177.08590136775567L41.67989657987844,175.11118561834982L42.857358855725906,174.00919068703342L44.02159121836161,172.72229727730826L44.805936073059364,171.61783703294645L46.23287671232877,170.35066612758487L49.14345761891802,167.74729555158913L51.52862197223986,165.81695543700138L53.25040067737156,163.99015847032257L56.011672563427986,161.41883696391767L58.88634370558529,158.65522103996764L60.98800991865493,156.34029209028964L63.94773050288791,153.63337836638496L67.13235961172094,150.55173705957182L70.96147449272733,146.7872040391689L76.05310109165683,142.35210587040342L80.76106020744504,137.7049907797292L86.29683389276967,132.31828177541985L93.13291904805105,125.86902284852131L100.48497081859142,118.71221907757848L108.1526505186126,111.57513781099924L117.33988025038555,103.31633910874002L129.4962805043999,93.31702939639274L137.91428528228855,85.68442020767797L147.40958299313556,77.47246245328232L158.503810215005,68.17576695888845L172.62012761196286,56.61098346268009L188.60753273458525,43.66069403492856L208.21804408963078,28.479296301044315L250,0" stroke="#5ec962" stroke-width="2"/></g></g><path class="foreground" aria-hidden="true" d="" display="none"/></g><g transform="translate(0,0)"><path class="background" aria-hidden="true" d="M0,0h250v250h-250Z"/><g><g class="mark-line role-mark layer_0_marks" role="graphics-symbol" aria-roledescription="line mark container"><path d="M2.1886056427469835,236.95109805043043L5.346774925156491,221.22486613350162L5.953460945296198,218.62396087055137L6.325788502827422,216.98945832141763L6.656536333121655,215.69023834646524L7.07422359309323,214.4008796236946L7.335041882125253,213.32353782283275L7.561840394327013,212.3842535525161L7.828328646164081,211.38580176910864L8.1099367988146,210.44898281183742L8.387764976261757,209.5195597937026L8.809232211436694,208.44714861893164L9.043590674045179,207.54237873125132L9.28739907466207,206.7904582523889L9.584127128126038,206.01388464307198L9.948894735250537,205.12883725975524L10.158683359037164,204.4484108592109L10.362802020018748,203.82468665871193L10.540460854576795,203.124537753804L10.765369379176873,202.33810289230524L11.011067767395446,201.65767649176092L11.205736490368624,200.97231946512568L11.407965163748527,200.21053773408147L11.613973812331793,199.54983383790074L11.816202485711694,198.96555464612896L12.029771084701684,198.36155294999358L12.218769844869817,197.75755125385822L12.413438567842995,197.17820268817735L12.670476881671656,196.45093533976942L12.923735220296955,195.86912146104314L13.150533732498715,195.20348693877148L13.390562157912244,194.5846933643634L13.602240769300554,194.02013667695522L13.844159182315764,193.47037186781978L14.061507756509117,192.8269251629572L14.282636305905834,192.2229234668218L14.56046448335299,191.5868727010956L14.796712933563155,190.93603005709664L15.048081284586774,190.31477116964314L15.329689437237292,189.60476101255335L15.628307478302943,188.89721616850906L15.932595482173639,188.2636307158283L16.202863709214068,187.5511552456931L16.484471861864588,186.93975761042137L16.76985998971847,186.19276775764988L17.14029755964801,185.5394598006055L17.476715352747288,184.83191495656118L17.809353170643202,184.16874574733498L18.14766095134416,183.4414783989271L18.431159091596356,182.7536560592464L18.839396413559527,182.0066662064749L19.21172397109075,181.30898261461243L19.61051135504551,180.53980494443184L20.039538540627174,179.78788446556942L20.398636184946625,178.97186584752532L20.7860836432913,178.20022286429932L21.258580543711634,177.32010610707349L21.712177568115155,176.47450373248398L22.28295382382292,175.53275414912184L22.95200943481811,174.62058832230514L23.501995826907375,173.6615815476249L24.10868184704708,172.68038695553562L24.721037829991836,171.6498861025373L25.342843750944994,170.62185056258446L26.036469200762042,169.56176595304072L26.786794278629532,168.45977102172432L27.610828872962596,167.2961432642717L28.451873355710788,166.06841736763732L29.326937615289243,164.88260179277563L30.319181106171943,163.5587286873687L31.40781396474039,162.1337777470983L32.47376697208866,160.74334118946425L33.67012912395295,159.30852899701205L34.91752094106263,157.77263896969637L36.16869273337567,156.1874426814717L37.797862046024974,154.42227854092914L39.40435150745411,152.49440373938683L41.16014998941607,150.57885550307176L42.95185823580997,148.40444939698443L44.9949348332275,146.09938169948822L47.50672835586198,143.4590314278107L49.976942151259486,140.75458301695147L52.91398288427228,137.76169297977458L55.820783815658174,134.48036131627993L59.37774048202244,130.95003303519482L63.1482657473767,127.09921405820113L67.51791708246394,122.93283501138974L72.5433941153346,118.3966590077608L78.13397744110799,113.45370635163255L84.4200762043001,108.1458873647776L91.2750612355983,102.15764197737828L98.25667543620914,96.44797696411489L105.61250718195289,90.73091601171518L113.6298345882851,84.74513593736133L122.41449696089994,78.3205301409173L131.98161420061084,71.6395317877464L142.8887326499138,63.78504442494107L157.50967673652062,54.48095299141084L175.8066467083976,43.21693768674748L196.85921860352596,30.219807311132357L250,0" stroke="#21918c" stroke-width="2"/></g></g><path class="foreground" aria-hidden="true" d="" display="none"/></g><g transform="translate(0,0)"><path class="background" aria-hidden="true" d="M0,0h250v250h-250Z"/><g><g class="mark-line role-mark layer_0_marks" role="graphics-symbol" aria-roledescription="line mark container"><path d="M0.3534276815144093,246.0702910055519L2.8123015513018235,229.949609001351L4.010553690767789,225.62298460658533L4.8213583718890805,223.26614533513467L5.552783573739757,221.21993550741072L6.129229792252563,219.5878982713225L6.6527563579182925,218.25909453982467L6.998624089025976,217.30255307818985L7.240542502041186,216.44955476446398L7.520260667090024,215.74940585955605L7.873688348604434,214.9259913023756L8.191206265686898,214.14941769305867L8.427454715897063,213.52569349255967L8.612673500861835,213.00058181387874L8.76198252139466,212.54942952656128L8.91696150473253,211.9651503347895L9.062490550061993,211.43510803001763L9.223139496204904,211.05544982101827L9.408358281169674,210.59197096847356L9.5576673017025,210.1038389854744L9.763675950285766,209.64282544597512L9.933774834437086,209.20153441083949L10.079303879766549,208.8070843235674L10.239952825909462,208.3633279753863L10.413831685264144,207.95162069679606L10.566920681000333,207.65085250525112L10.672759986694487,207.3476190006607L10.784269255193687,206.99507923516128L10.901448486497928,206.71156823493448L11.007287792192084,206.40586941729862L11.13013698630137,206.09523997357184L11.288895944842603,205.73037364284517L11.491124618222505,205.37783387734575L11.632873688348605,205.02529411184634L11.746272944449483,204.63084402457423L11.878572076567178,204.30542270257476L12.001421270676463,203.89864605007543L12.175300130031147,203.52391846716696L12.33594907617406,203.1171418146676L12.52116786113883,202.7152957882592L12.659136956061568,202.34303351839617L12.827345852611206,201.95104874416953L13.006894674770933,201.52208427426115L13.201563397744112,201.13256481307994L13.456711723971091,200.67894721271705L13.704300099791347,200.22779492539962L13.923538661586381,199.786503890264L14.186246938220085,199.23180845503762L14.56046448335299,198.6056189414932L14.838292660800144,198.10269508022128L15.238970032356587,197.48143619276775L15.560267924642414,196.93413669667774L15.917475581360186,196.37944126145138L16.269013275272915,195.8444683305886L16.747180138498294,195.26511976490772L17.26881671656234,194.41705207727279L17.79045329462639,193.69718066800124L18.414149203181225,192.91567643259341L19.04351507454111,192.15142938850377L19.699340772324533,191.31815357914147L20.451555837793705,190.4010571262339L21.23968066769482,189.52833630814442L22.07505518763797,188.60877454219138L22.934999546402977,187.61278807182936L23.902673198463816,186.7252753754672L24.979966131422177,185.56657824410544L26.267047688167168,184.38815860838008L27.934016752850102,182.899109528928L30.06214279234328,181.28186417111243L32.09009948894735,179.69913319593323L33.588859657080654,178.45168479493526L34.936420817079444,177.19684045480093L36.30666182829841,175.8581754711213L37.49924400495932,174.60333113098702L38.69560615682361,173.22029051248927L39.963787837551784,171.83724989399155L41.32646889836403,170.29149861449406L42.85168889292086,168.65206543926948L44.67174695333999,166.783358150818L46.71293356315583,164.75194020136678L48.90153920590281,162.57013815614306L51.21866400556412,160.09003323241984L53.872206598324716,157.51378109992407L56.82436723215096,154.65894859329237L60.22067495237231,151.41213131243407L63.93639057727782,147.74621081384913L68.31549185037346,143.61188083662861L73.16898001149112,138.8316388415001L78.61592427953673,133.68653051564488L84.81319362544981,127.90783673710887L91.98947654903384,121.3353121579378L100.12965314947533,114.18097370004044L108.61758746862621,106.51385012868933L118.21683449756569,98.24272486120286L127.96350055943634,89.78423580226216L138.4567117239711,80.84994132554951L149.94972632979528,71.63460116165551L163.04167044664186,61.198931040263496L179.38439323838034,48.717051091147546L202.03967461973448,32.071257408265694L250,0" stroke="#3b528b" stroke-width="2"/></g></g><path class="foreground" aria-hidden="true" d="" display="none"/></g><g transform="translate(0,0)"><path class="background" aria-hidden="true" d="M0,0h250v250h-250Z"/><g><g class="mark-line role-mark layer_0_marks" role="graphics-symbol" aria-roledescription="line mark container"><path d="M1.8994375396897396,237.56989162483853L4.770328706643684,223.87014703127002L5.25983549547915,222.0186969341367L5.632163053010372,220.8673957419113L5.923221143669297,220.00207086295816L6.14056971786265,219.26987288845936L6.467537572953521,218.47111146173341L6.781275514832623,217.66248878282565L6.957044361788987,217.0362992692812L7.1611630227705705,216.4446241383731L7.446551150624452,215.7025649116925L7.684689588436299,214.98022818937548L7.86801838579939,214.39348368455828L8.038117269950709,213.90288638851362L8.22333605491548,213.4788525446961L8.565423810819802,212.85266303115168L8.729852732166078,212.4483516916978L8.920741479935892,211.92324001301685L9.053040612053586,211.53372055183567L9.264719223441894,211.15652765588175L9.4159182315764,210.79659195124597L9.589797090931082,210.43419093356474L9.731546161057183,210.14574930724703L9.890305119598414,209.79074422870218L10.022604251716109,209.46532290670268L10.149233421028757,209.1966037847486L10.255072726722913,208.82187620184013L10.53479089177175,208.30662577534096L10.772929329583599,207.85300817497807L10.897668511294567,207.56456654866034L11.050757507030754,207.25640241797905L11.18494662675013,206.98768329602493L11.288895944842603,206.71403354797994L11.61019383712843,206.14947686057175L11.742492969246122,205.91773743429943L11.871012126160451,205.54300985139093L12.007091233481507,205.215123216346L12.169630167226103,204.83793032039208L12.30759926214884,204.57167651148342L12.468248208291753,204.21913674598403L12.572197526384226,203.91590324139358L13.11651395566845,203.01113335371326L13.280942877014727,202.63394045775934L13.400012095920651,202.38740915321426L13.726979951011522,201.8228524658061L13.955668450814963,201.41607581330678L14.152227161389822,201.06846667389826L14.36390577277813,200.65675939530803L14.522664731319361,200.3584565168085L14.666303789047143,200.00838206435452L14.866642474825365,199.66816886408236L15.025401433366596,199.32549035076474L15.269209833983489,198.89159525476546L15.55270797423569,198.3368998195391L15.838096102089569,197.89067815831254L16.102694366324958,197.55539558413128L16.99854848952191,196.596388809451L17.53530496839941,195.98252586113384L17.843372947473465,195.46727543463467L18.66362756660316,194.57729742522704L20.973192415857753,192.28455629295806L26.323747316217606,187.3711873933752L29.746514862862497,184.56319583460706L30.417460461459374,183.59679312079047L31.088406060056247,182.724072302701L31.70265203060268,181.82423304111157L32.34524781517433,180.88741408384035L32.87444434364511,180.1428895441143L33.426320723336055,179.3613853087065L34.10293628473797,178.45168479493526L34.69261241646255,177.5937558551185L35.5790166016511,176.43012809766583L36.32178172911186,175.34292504462218L38.32327859929239,173.481613695307L40.34934530829478,171.53894701549203L41.21873960506819,170.25944954490322L42.64946021954096,168.58796730008777L44.21814992893647,166.8671787943633L46.99643170340802,164.23915508791308L49.56492485409296,161.79356454682613L52.1012882155493,159.03980987505795L54.446762829235844,156.49807212519846L57.168344975656964,153.781297149112L59.782197828782245,150.9757709033893L62.96115697481025,147.57117358762218L66.48409386434425,143.96935122821895L70.78948562097433,139.64519214649877L75.91513199673409,134.62334947291606L80.88390940155432,129.33278767737926L86.58222202062355,123.52451014229787L93.08377937040734,117.00375713708128L100.23927243037285,109.96775370536552L107.77276301067465,102.5101817428777L116.02255889201366,94.91455224984469L124.00019655871057,86.92447266953957L136.79541262209318,76.19789560878439L148.39426653361153,66.11476525289181L161.6638694850162,55.0208565483645L177.84594333061173,41.624345459386426L196.3356920378602,26.57360931691105L250,0" stroke="#440154" stroke-width="2"/></g></g><path class="foreground" aria-hidden="true" d="" display="none"/></g></g><g class="mark-line role-mark layer_1_marks" role="graphics-symbol" aria-roledescription="line mark container"><path d="M0,250L250,0" stroke="black" stroke-width="5" stroke-dasharray="3,1"/></g><g class="mark-group role-legend" role="graphics-symbol" aria-roledescription="legend" aria-label="Symbol legend for stroke color with 5 values: SciCheck, CAFE baseline, CAFE+RoBERTa, CAFE+SciBERT, CAFE+Ontology"><g transform="translate(0,321)"><path class="background" aria-hidden="true" d="M0,0h264v57h-264Z" pointer-events="none"/><g><g class="mark-group role-legend-entry"><g transform="translate(0,0)"><path class="background" aria-hidden="true" d="M0,0h0v0h0Z" pointer-events="none"/><g><g class="mark-group role-scope" role="graphics-object" aria-roledescription="group mark container"><g transform="translate(0,0.25)"><path class="background" aria-hidden="true" d="M0,0h127.25v16.5h-127.25Z" pointer-events="none" opacity="1"/><g><g class="mark-symbol role-legend-symbol" pointer-events="none"><path transform="translate(8.5,8.5)" d="M-5,0L5,0" stroke="#e05a00" stroke-width="6" opacity="1"/></g><g class="mark-text role-legend-label" pointer-events="none"><text text-anchor="start" transform="translate(21,13.5)" font-family="arial narrow" font-size="17px" fill="#000" opacity="1">SciCheck</text></g></g><path class="foreground" aria-hidden="true" d="" pointer-events="none" display="none"/></g><g transform="translate(141,0.25)"><path class="background" aria-hidden="true" d="M0,0h122.60416412353516v16.5h-122.60416412353516Z" pointer-events="none" opacity="1"/><g><g class="mark-symbol role-legend-symbol" pointer-events="none"><path transform="translate(8.5,8.5)" d="M-5,0L5,0" stroke="#3b528b" stroke-width="6" opacity="1"/></g><g class="mark-text role-legend-label" pointer-events="none"><text text-anchor="start" transform="translate(21,13.5)" font-family="arial narrow" font-size="17px" fill="#000" opacity="1">CAFE+SciBERT</text></g></g><path class="foreground" aria-hidden="true" d="" pointer-events="none" display="none"/></g><g transform="translate(0,20)"><path class="background" aria-hidden="true" d="M0,0h127.25v16.5h-127.25Z" pointer-events="none" opacity="1"/><g><g class="mark-symbol role-legend-symbol" pointer-events="none"><path transform="translate(8.5,8.5)" d="M-5,0L5,0" stroke="#5ec962" stroke-width="6" opacity="1"/></g><g class="mark-text role-legend-label" pointer-events="none"><text text-anchor="start" transform="translate(21,13.5)" font-family="arial narrow" font-size="17px" fill="#000" opacity="1">CAFE baseline</text></g></g><path class="foreground" aria-hidden="true" d="" pointer-events="none" display="none"/></g><g transform="translate(141,20)"><path class="background" aria-hidden="true" d="M0,0h122.60416412353516v16.5h-122.60416412353516Z" pointer-events="none" opacity="1"/><g><g class="mark-symbol role-legend-symbol" pointer-events="none"><path transform="translate(8.5,8.5)" d="M-5,0L5,0" stroke="#440154" stroke-width="6" opacity="1"/></g><g class="mark-text role-legend-label" pointer-events="none"><text text-anchor="start" transform="translate(21,13.5)" font-family="arial narrow" font-size="17px" fill="#000" opacity="1">CAFE+Ontology</text></g></g><path class="foreground" aria-hidden="true" d="" pointer-events="none" display="none"/></g><g transform="translate(0,40)"><path class="background" aria-hidden="true" d="M0,0h127.25v16.5h-127.25Z" pointer-events="none" opacity="1"/><g><g class="mark-symbol role-legend-symbol" pointer-events="none"><path transform="translate(8.5,8.5)" d="M-5,0L5,0" stroke="#21918c" stroke-width="6" opacity="1"/></g><g class="mark-text role-legend-label" pointer-events="none"><text text-anchor="start" transform="translate(21,13.5)" font-family="arial narrow" font-size="17px" fill="#000" opacity="1">CAFE+RoBERTa</text></g></g><path class="foreground" aria-hidden="true" d="" pointer-events="none" display="none"/></g></g></g><path class="foreground" aria-hidden="true" d="" pointer-events="none" display="none"/></g></g></g><path class="foreground" aria-hidden="true" d="" pointer-events="none" display="none"/></g></g></g><path class="foreground" aria-hidden="true" d="" display="none"/></g></g></g></svg>