<?xml version="1.0" encoding="UTF-8" standalone="no"?>
<!DOCTYPE svg PUBLIC "-//W3C//DTD SVG 1.1//EN" "http://www.w3.org/Graphics/SVG/1.1/DTD/svg11.dtd">
<!-- Generated by Microsoft Visio, SVG Export API_view.svg Page-1 -->
<svg xmlns="http://www.w3.org/2000/svg" xmlns:xlink="http://www.w3.org/1999/xlink" xmlns:ev="http://www.w3.org/2001/xml-events"
		xmlns:v="http://schemas.microsoft.com/visio/2003/SVGExtensions/" width="2.94318in" height="2.3931in"
		viewBox="0 0 211.909 172.303" xml:space="preserve" color-interpolation-filters="sRGB" class="st9">
	<v:documentProperties v:langID="1033" v:metric="true" v:viewMarkup="false">
		<v:userDefs>
			<v:ud v:nameU="msvNoAutoConnect" v:val="VT0(1):26"/>
		</v:userDefs>
	</v:documentProperties>

	<style type="text/css">
	<![CDATA[
		.st1 {fill:#ffffff;stroke:#000000;stroke-linecap:round;stroke-linejoin:round;stroke-width:0.24}
		.st2 {fill:#000000;font-family:Calibri;font-size:0.833336em}
		.st3 {font-size:1em}
		.st4 {fill:#595959;stroke:none;stroke-linecap:butt;stroke-width:0.75}
		.st5 {fill:none;stroke:none;stroke-linecap:round;stroke-linejoin:round;stroke-width:0.75}
		.st6 {marker-end:url(#mrkr14-22);stroke:#000000;stroke-linecap:round;stroke-linejoin:round;stroke-width:0.75}
		.st7 {fill:#000000;fill-opacity:1;stroke:#000000;stroke-opacity:1;stroke-width:0.22935779816514}
		.st8 {stroke:#000000;stroke-linecap:round;stroke-linejoin:round;stroke-width:0.75}
		.st9 {fill:none;fill-rule:evenodd;font-size:12px;overflow:visible;stroke-linecap:square;stroke-miterlimit:3}
	]]>
	</style>

	<defs id="Markers">
		<g id="lend14">
			<path d="M 3 -1 L 0 0 L 3 1 L 3 -1 " style="stroke-linecap:round;stroke-linejoin:round;fill:none"/>
		</g>
		<marker id="mrkr14-22" class="st7" v:arrowType="14" v:arrowSize="2" v:setback="13.08" refX="-13.08" orient="auto"
				markerUnits="strokeWidth" overflow="visible">
			<use xlink:href="#lend14" transform="scale(-4.36,-4.36) "/>
		</marker>
	</defs>
	<g v:mID="0" v:index="1" v:groupContext="foregroundPage">
		<title>Page-1</title>
		<v:pageProperties v:drawingScale="0.0393701" v:pageScale="0.0393701" v:drawingUnits="24" v:shadowOffsetX="8.50394"
				v:shadowOffsetY="-8.50394"/>
		<v:layer v:name="Connector" v:index="0"/>
		<v:layer v:name="Container" v:index="1"/>
		<v:layer v:name="Flowchart" v:index="2"/>
		<g id="shape179-1" v:mID="179" v:groupContext="shape" transform="translate(18.1199,-137.175)">
			<title>Round Corner Rectangle</title>
			<desc>FastAPI App</desc>
			<v:userDefs>
				<v:ud v:nameU="CTypeTopLeftSnip" v:prompt="" v:val="VT0(0):5"/>
				<v:ud v:nameU="CTypeTopRightSnip" v:prompt="" v:val="VT0(0):5"/>
				<v:ud v:nameU="CTypeBotLeftSnip" v:prompt="" v:val="VT0(0):5"/>
				<v:ud v:nameU="CTypeBotRightSnip" v:prompt="" v:val="VT0(0):5"/>
				<v:ud v:nameU="CornerLockHoriz" v:prompt="" v:val="VT0(0):5"/>
				<v:ud v:nameU="CornerLockVert" v:prompt="" v:val="VT0(0):5"/>
				<v:ud v:nameU="CornerLockDiag" v:prompt="" v:val="VT0(0):5"/>
				<v:ud v:nameU="TopLeftOffset" v:prompt="" v:val="VT0(0.15748031496063):24"/>
				<v:ud v:nameU="TopRightOffset" v:prompt="" v:val="VT0(0.15748031496063):24"/>
				<v:ud v:nameU="BotLeftOffset" v:prompt="" v:val="VT0(0.15748031496063):24"/>
				<v:ud v:nameU="BotRightOffset" v:prompt="" v:val="VT0(0.15748031496063):24"/>
				<v:ud v:nameU="visVersion" v:prompt="" v:val="VT0(15):26"/>
				<v:ud v:nameU="TopLeftOffset" v:prompt="" v:val="VT0(0.086614173228346):1"/>
				<v:ud v:nameU="TopRightOffset" v:prompt="" v:val="VT0(0.086614173228346):1"/>
				<v:ud v:nameU="BotLeftOffset" v:prompt="" v:val="VT0(0.086614173228346):1"/>
				<v:ud v:nameU="BotRightOffset" v:prompt="" v:val="VT0(0.086614173228346):1"/>
			</v:userDefs>
			<v:textBlock v:margins="rect(4,4,4,4)" v:tabSpace="42.5197"/>
			<v:textRect cx="31.1811" cy="163.799" width="62.37" height="17.0079"/>
			<path d="M6.24 172.3 L56.13 172.3 A6.23612 6.23612 -180 0 0 62.36 166.07 L62.36 161.53 A6.23612 6.23612 -180 0 0 56.13
						 155.3 L6.24 155.3 A6.23612 6.23612 -180 0 0 -0 161.53 L0 166.07 A6.23612 6.23612 -180 0 0 6.24 172.3 Z"
					class="st1"/>
			<text x="6.85" y="166.8" class="st2" v:langID="1033"><v:paragraph v:horizAlign="1"/><v:tabList/>FastAPI App</text>		</g>
		<g id="shape181-4" v:mID="181" v:groupContext="shape" transform="translate(18.1199,-101.742)">
			<title>Round Corner Rectangle.181</title>
			<desc>Webserver</desc>
			<v:userDefs>
				<v:ud v:nameU="CTypeTopLeftSnip" v:prompt="" v:val="VT0(0):5"/>
				<v:ud v:nameU="CTypeTopRightSnip" v:prompt="" v:val="VT0(0):5"/>
				<v:ud v:nameU="CTypeBotLeftSnip" v:prompt="" v:val="VT0(0):5"/>
				<v:ud v:nameU="CTypeBotRightSnip" v:prompt="" v:val="VT0(0):5"/>
				<v:ud v:nameU="CornerLockHoriz" v:prompt="" v:val="VT0(0):5"/>
				<v:ud v:nameU="CornerLockVert" v:prompt="" v:val="VT0(0):5"/>
				<v:ud v:nameU="CornerLockDiag" v:prompt="" v:val="VT0(0):5"/>
				<v:ud v:nameU="TopLeftOffset" v:prompt="" v:val="VT0(0.15748031496063):24"/>
				<v:ud v:nameU="TopRightOffset" v:prompt="" v:val="VT0(0.15748031496063):24"/>
				<v:ud v:nameU="BotLeftOffset" v:prompt="" v:val="VT0(0.15748031496063):24"/>
				<v:ud v:nameU="BotRightOffset" v:prompt="" v:val="VT0(0.15748031496063):24"/>
				<v:ud v:nameU="visVersion" v:prompt="" v:val="VT0(15):26"/>
				<v:ud v:nameU="TopLeftOffset" v:prompt="" v:val="VT0(0.086614173228346):1"/>
				<v:ud v:nameU="TopRightOffset" v:prompt="" v:val="VT0(0.086614173228346):1"/>
				<v:ud v:nameU="BotLeftOffset" v:prompt="" v:val="VT0(0.086614173228346):1"/>
				<v:ud v:nameU="BotRightOffset" v:prompt="" v:val="VT0(0.086614173228346):1"/>
			</v:userDefs>
			<v:textBlock v:margins="rect(4,4,4,4)" v:tabSpace="42.5197"/>
			<v:textRect cx="31.1811" cy="162.382" width="62.37" height="19.8425"/>
			<path d="M6.24 172.3 L56.13 172.3 A6.23612 6.23612 -180 0 0 62.36 166.07 L62.36 158.7 A6.23612 6.23612 -180 0 0 56.13
						 152.46 L6.24 152.46 A6.23612 6.23612 -180 0 0 0 158.7 L0 166.07 A6.23612 6.23612 -180 0 0 6.24 172.3 Z"
					class="st1"/>
			<text x="8.94" y="165.38" class="st2" v:langID="1033"><v:paragraph v:horizAlign="1"/><v:tabList/>Webserver</text>		</g>
		<g id="shape182-7" v:mID="182" v:groupContext="shape" transform="translate(18.1199,-57.805)">
			<title>Round Corner Rectangle.182</title>
			<desc>Connection Manager</desc>
			<v:userDefs>
				<v:ud v:nameU="CTypeTopLeftSnip" v:prompt="" v:val="VT0(0):5"/>
				<v:ud v:nameU="CTypeTopRightSnip" v:prompt="" v:val="VT0(0):5"/>
				<v:ud v:nameU="CTypeBotLeftSnip" v:prompt="" v:val="VT0(0):5"/>
				<v:ud v:nameU="CTypeBotRightSnip" v:prompt="" v:val="VT0(0):5"/>
				<v:ud v:nameU="CornerLockHoriz" v:prompt="" v:val="VT0(0):5"/>
				<v:ud v:nameU="CornerLockVert" v:prompt="" v:val="VT0(0):5"/>
				<v:ud v:nameU="CornerLockDiag" v:prompt="" v:val="VT0(0):5"/>
				<v:ud v:nameU="TopLeftOffset" v:prompt="" v:val="VT0(0.15748031496063):24"/>
				<v:ud v:nameU="TopRightOffset" v:prompt="" v:val="VT0(0.15748031496063):24"/>
				<v:ud v:nameU="BotLeftOffset" v:prompt="" v:val="VT0(0.15748031496063):24"/>
				<v:ud v:nameU="BotRightOffset" v:prompt="" v:val="VT0(0.15748031496063):24"/>
				<v:ud v:nameU="visVersion" v:prompt="" v:val="VT0(15):26"/>
				<v:ud v:nameU="TopLeftOffset" v:prompt="" v:val="VT0(0.1456692886905):1"/>
				<v:ud v:nameU="TopRightOffset" v:prompt="" v:val="VT0(0.1456692886905):1"/>
				<v:ud v:nameU="BotLeftOffset" v:prompt="" v:val="VT0(0.1456692886905):1"/>
				<v:ud v:nameU="BotRightOffset" v:prompt="" v:val="VT0(0.1456692886905):1"/>
			</v:userDefs>
			<v:textBlock v:margins="rect(4,4,4,4)" v:tabSpace="42.5197"/>
			<v:textRect cx="52.4409" cy="158.13" width="104.89" height="28.3465"/>
			<path d="M10.49 172.3 L94.39 172.3 A10.488 10.488 -180 0 0 104.88 161.81 L104.88 154.44 A10.488 10.488 -180 0 0 94.39
						 143.96 L10.49 143.96 A10.488 10.488 -180 0 0 -0 154.44 L0 161.81 A10.488 10.488 -180 0 0 10.49 172.3 Z"
					class="st1"/>
			<text x="29.2" y="155.13" class="st2" v:langID="1033"><v:paragraph v:horizAlign="1"/><v:tabList/>Connection<v:newlineChar/><tspan
						x="34.16" dy="1.2em" class="st3">Manager</tspan></text>		</g>
		<g id="shape187-11" v:mID="187" v:groupContext="shape" transform="translate(100.325,-95.7906)">
			<title>Network</title>
			<v:userDefs>
				<v:ud v:nameU="msvShapeCategories" v:prompt="" v:val="VT4(Icon)"/>
				<v:ud v:nameU="visVersion" v:prompt="" v:val="VT0(15):26"/>
			</v:userDefs>
			<path d="M6.05 145.52 L6.05 156.43 L22.17 156.43 L22.17 145.52 L6.05 145.52 ZM5.04 157.42 L5.04 144.53 L23.18 144.53
						 L23.18 157.42 L5.04 157.42 ZM26.21 169.33 L26.21 167.34 L19.15 167.34 L19.15 169.33 L26.21 169.33 ZM17.13
						 170.32 L17.13 166.35 L11.09 166.35 L11.09 170.32 L17.13 170.32 ZM15.12 161.39 L13.1 161.39 L13.1 164.37
						 L15.12 164.37 L15.12 161.39 ZM3.02 159.41 L25.2 159.41 L25.2 142.54 L3.02 142.54 L3.02 159.41 ZM9.07 169.33
						 L9.07 167.34 L2.02 167.34 L2.02 169.33 L9.07 169.33 ZM27.04 165.36 C27.69 165.36 28.22 165.88 28.22 166.52
						 L28.22 170.15 C28.22 170.79 27.69 171.31 27.04 171.31 L19.12 171.31 C19.03 171.87 18.56 172.3 17.97 172.3
						 L10.25 172.3 C9.66 172.3 9.19 171.87 9.11 171.31 L1.18 171.31 C0.53 171.31 0 170.79 0 170.15 L0 166.52 C0
						 165.88 0.53 165.36 1.18 165.36 L9.11 165.36 C9.19 164.8 9.66 164.37 10.25 164.37 L11.09 164.37 L11.09 161.39
						 L2.19 161.39 C1.54 161.39 1.01 160.87 1.01 160.23 L1.01 141.72 C1.01 141.08 1.54 140.56 2.19 140.56 L26.04
						 140.56 C26.69 140.56 27.21 141.08 27.21 141.72 L27.21 160.23 C27.21 160.87 26.69 161.39 26.04 161.39 L17.13
						 161.39 L17.13 164.37 L17.97 164.37 C18.56 164.37 19.03 164.8 19.12 165.36 L27.04 165.36 Z" class="st4"/>
		</g>
		<g id="shape188-13" v:mID="188" v:groupContext="shape" transform="translate(90.341,-131.811)">
			<title>Sheet.188</title>
			<desc>Network</desc>
			<v:textBlock v:margins="rect(4,4,4,4)" v:tabSpace="42.5197"/>
			<v:textRect cx="24.0945" cy="168.051" width="48.19" height="8.50394"/>
			<rect x="0" y="163.799" width="48.189" height="8.50394" class="st5"/>
			<text x="6.48" y="171.05" class="st2" v:langID="1033"><v:paragraph v:horizAlign="1"/><v:tabList/>Network</text>		</g>
		<g id="group189-16" transform="translate(80.4821,-103.159)" v:mID="189" v:groupContext="group" v:layerMember="0">
			<v:userDefs>
				<v:ud v:nameU="visVersion" v:prompt="" v:val="VT0(15):26"/>
				<v:ud v:nameU="RelationshipName" v:prompt="" v:val="VT4()"/>
				<v:ud v:nameU="ShowMulti" v:prompt="" v:val="VT0(0):26"/>
				<v:ud v:nameU="Identifying" v:prompt="" v:val="VT0(1):26"/>
				<v:ud v:nameU="DXBegin" v:prompt="" v:val="VT0(0):1"/>
				<v:ud v:nameU="DYBegin" v:prompt="" v:val="VT0(-0.029527559055118):1"/>
				<v:ud v:nameU="DXEnd" v:prompt="" v:val="VT0(0.029527559055118):1"/>
				<v:ud v:nameU="DYEnd" v:prompt="" v:val="VT0(0):1"/>
				<v:ud v:nameU="BeginAngle" v:prompt="" v:val="VT0(-1.5707963267949):32"/>
				<v:ud v:nameU="EndAngle" v:prompt="" v:val="VT0(0):32"/>
				<v:ud v:nameU="DXBegin" v:prompt="" v:val="VT0(0.0043438413948256):1"/>
				<v:ud v:nameU="DYBegin" v:prompt="" v:val="VT0(0):1"/>
				<v:ud v:nameU="DXEnd" v:prompt="" v:val="VT0(0.0043438413948256):1"/>
				<v:ud v:nameU="BeginAngle" v:prompt="" v:val="VT0(0):32"/>
			</v:userDefs>
			<title>Inheritance</title>
			<g id="shape189-17" v:mID="189" v:groupContext="groupContent" v:layerMember="0">
				<path d="M0 165.22 L11.04 165.22" class="st6"/>
			</g>
		</g>
		<g id="group194-23" transform="translate(101.333,-126.718)" v:mID="194" v:groupContext="group" v:layerMember="0">
			<v:userDefs>
				<v:ud v:nameU="visVersion" v:prompt="" v:val="VT0(15):26"/>
				<v:ud v:nameU="RelationshipName" v:prompt="" v:val="VT4()"/>
				<v:ud v:nameU="ShowMulti" v:prompt="" v:val="VT0(0):26"/>
				<v:ud v:nameU="Identifying" v:prompt="" v:val="VT0(1):26"/>
				<v:ud v:nameU="DXBegin" v:prompt="" v:val="VT0(0):1"/>
				<v:ud v:nameU="DYBegin" v:prompt="" v:val="VT0(-0.029527559055118):1"/>
				<v:ud v:nameU="DXEnd" v:prompt="" v:val="VT0(0.029527559055118):1"/>
				<v:ud v:nameU="DYEnd" v:prompt="" v:val="VT0(0):1"/>
				<v:ud v:nameU="BeginAngle" v:prompt="" v:val="VT0(-1.5707963267949):32"/>
				<v:ud v:nameU="EndAngle" v:prompt="" v:val="VT0(0):32"/>
				<v:ud v:nameU="DXBegin" v:prompt="" v:val="VT0(-0.0043438627891386):1"/>
				<v:ud v:nameU="DYBegin" v:prompt="" v:val="VT0(-1.3104387512897E-05):1"/>
				<v:ud v:nameU="DXEnd" v:prompt="" v:val="VT0(-0.0043438627891392):1"/>
				<v:ud v:nameU="DYEnd" v:prompt="" v:val="VT0(-1.3104387513341E-05):1"/>
				<v:ud v:nameU="BeginAngle" v:prompt="" v:val="VT0(-3.1385759036611):32"/>
				<v:ud v:nameU="EndAngle" v:prompt="" v:val="VT0(-3.1385759036611):32"/>
			</v:userDefs>
			<title>Inheritance.194</title>
			<g id="shape194-24" v:mID="194" v:groupContext="groupContent" v:layerMember="0">
				<path d="M0 179.36 L-11.04 179.39" class="st6"/>
			</g>
		</g>
		<g id="shape199-29" v:mID="199" v:groupContext="shape" transform="translate(154.892,-98.9074)">
			<title>Users</title>
			<v:userDefs>
				<v:ud v:nameU="msvShapeCategories" v:prompt="" v:val="VT4(Icon)"/>
				<v:ud v:nameU="visVersion" v:prompt="" v:val="VT0(15):26"/>
			</v:userDefs>
			<path d="M28.02 150.82 A4.09269 4.15817 -180 0 0 32.11 146.66 A4.09269 4.15817 -180 0 0 28.02 142.51 A4.09422 4.15973
						 -180 0 0 23.93 146.66 A4.09499 4.16051 -180 0 0 28.02 150.82 ZM28.02 140.43 A6.13355 6.23168 0 0 1 34.16
						 146.66 A6.13355 6.23168 0 0 1 28.02 152.9 A6.13329 6.23142 0 0 1 21.89 146.66 A6.13329 6.23142 0 0 1 28.02
						 140.43 ZM10.24 169.91 A7.14763 7.26199 -180 0 0 18.42 165.75 A8.99183 9.1357 -180 0 0 14.5 157.69 A30079.1
						 30560.4 -180 0 0 10.24 166.18 A15280.4 15524.9 0 0 1 6 157.69 A8.99283 9.13671 -180 0 0 2.07 165.75 A7.14682
						 7.26117 -180 0 0 10.24 169.91 ZM14.29 155.13 A10.7767 10.9491 0 0 1 20.47 165.75 A8.16706 8.29773 0 0 1
						 10.24 171.98 A8.16639 8.29705 0 0 1 0.02 165.75 A10.7812 10.9537 0 0 1 6.2 155.13 A7.34111 7.45856 -180
						 0 0 7.32 155.75 L10.24 161.6 L13.17 155.75 A7.22891 7.34457 -180 0 0 14.29 155.13 ZM32.06 152.66 A10.7767
						 10.9491 0 0 1 38.25 163.28 A8.16706 8.29773 0 0 1 28.02 169.51 A16.28 16.5405 0 0 1 21.18 168.25 A6.20611
						 6.30541 -180 0 0 21.64 166.15 A14.0916 14.3171 -180 0 0 28.02 167.44 A7.14763 7.26199 -180 0 0 36.2 163.28
						 A8.98969 9.13353 -180 0 0 32.27 155.22 A19236.7 19544.5 -180 0 0 28.02 163.71 A21409.9 21752.5 0 0 1 23.77
						 155.22 A8.14878 8.27916 -180 0 0 20.4 159.68 A11.5733 11.7585 -180 0 0 19.09 157.45 A9.61909 9.773 0 0 1
						 23.98 152.66 A7.34111 7.45856 -180 0 0 25.1 153.28 L28.02 159.13 L30.95 153.28 A7.22891 7.34457 -180 0 0
						 32.06 152.66 ZM10.24 153.29 A4.09192 4.15739 -180 0 0 14.33 149.13 A4.09269 4.15817 -180 0 0 10.24 144.98
						 A4.09422 4.15973 -180 0 0 6.15 149.13 A4.09499 4.16051 -180 0 0 10.24 153.29 ZM10.24 142.9 A6.13355 6.23168
						 0 0 1 16.38 149.13 A6.13355 6.23168 0 0 1 10.24 155.37 A6.13329 6.23142 0 0 1 4.11 149.13 A6.13329 6.23142
						 0 0 1 10.24 142.9 Z" class="st4"/>
		</g>
		<g id="shape200-31" v:mID="200" v:groupContext="shape" transform="translate(155.955,-127.559)">
			<title>Sheet.200</title>
			<desc>Users</desc>
			<v:textBlock v:margins="rect(4,4,4,4)" v:tabSpace="42.5197"/>
			<v:textRect cx="18.0709" cy="163.799" width="36.15" height="17.0079"/>
			<rect x="0" y="155.295" width="36.1417" height="17.0079" class="st5"/>
			<text x="6.72" y="166.8" class="st2" v:langID="1033"><v:paragraph v:horizAlign="1"/><v:tabList/>Users</text>		</g>
		<g id="group201-34" transform="translate(157.428,-113.081)" v:mID="201" v:groupContext="group" v:layerMember="0">
			<v:userDefs>
				<v:ud v:nameU="visVersion" v:prompt="" v:val="VT0(15):26"/>
				<v:ud v:nameU="RelationshipName" v:prompt="" v:val="VT4()"/>
				<v:ud v:nameU="ShowMulti" v:prompt="" v:val="VT0(0):26"/>
				<v:ud v:nameU="Identifying" v:prompt="" v:val="VT0(1):26"/>
				<v:ud v:nameU="DXBegin" v:prompt="" v:val="VT0(0):1"/>
				<v:ud v:nameU="DYBegin" v:prompt="" v:val="VT0(-0.029527559055118):1"/>
				<v:ud v:nameU="DXEnd" v:prompt="" v:val="VT0(0.029527559055118):1"/>
				<v:ud v:nameU="DYEnd" v:prompt="" v:val="VT0(0):1"/>
				<v:ud v:nameU="BeginAngle" v:prompt="" v:val="VT0(-1.5707963267949):32"/>
				<v:ud v:nameU="EndAngle" v:prompt="" v:val="VT0(0):32"/>
				<v:ud v:nameU="DXBegin" v:prompt="" v:val="VT0(-0.0062270526306358):1"/>
				<v:ud v:nameU="DYBegin" v:prompt="" v:val="VT0(0):1"/>
				<v:ud v:nameU="DXEnd" v:prompt="" v:val="VT0(-0.0062270526306383):1"/>
				<v:ud v:nameU="BeginAngle" v:prompt="" v:val="VT0(3.1415926535898):32"/>
				<v:ud v:nameU="EndAngle" v:prompt="" v:val="VT0(3.1415926535898):32"/>
			</v:userDefs>
			<title>Inheritance.201</title>
			<g id="shape201-35" v:mID="201" v:groupContext="groupContent" v:layerMember="0">
				<path d="M0 165.22 L-20.08 165.22" class="st6"/>
			</g>
		</g>
		<g id="group206-40" transform="translate(127.538,-103.585)" v:mID="206" v:groupContext="group" v:layerMember="0">
			<v:userDefs>
				<v:ud v:nameU="visVersion" v:prompt="" v:val="VT0(15):26"/>
				<v:ud v:nameU="RelationshipName" v:prompt="" v:val="VT4()"/>
				<v:ud v:nameU="ShowMulti" v:prompt="" v:val="VT0(0):26"/>
				<v:ud v:nameU="Identifying" v:prompt="" v:val="VT0(1):26"/>
				<v:ud v:nameU="DXBegin" v:prompt="" v:val="VT0(0):1"/>
				<v:ud v:nameU="DYBegin" v:prompt="" v:val="VT0(-0.029527559055118):1"/>
				<v:ud v:nameU="DXEnd" v:prompt="" v:val="VT0(0.029527559055118):1"/>
				<v:ud v:nameU="DYEnd" v:prompt="" v:val="VT0(0):1"/>
				<v:ud v:nameU="BeginAngle" v:prompt="" v:val="VT0(-1.5707963267949):32"/>
				<v:ud v:nameU="EndAngle" v:prompt="" v:val="VT0(0):32"/>
				<v:ud v:nameU="DXBegin" v:prompt="" v:val="VT0(0.0057733169833334):1"/>
				<v:ud v:nameU="DYBegin" v:prompt="" v:val="VT0(0):1"/>
				<v:ud v:nameU="DXEnd" v:prompt="" v:val="VT0(0.0057733169833352):1"/>
				<v:ud v:nameU="BeginAngle" v:prompt="" v:val="VT0(0):32"/>
			</v:userDefs>
			<title>Inheritance.206</title>
			<g id="shape206-41" v:mID="206" v:groupContext="groupContent" v:layerMember="0">
				<path d="M0 165.22 L17.9 165.22" class="st6"/>
			</g>
		</g>
		<g id="shape211-46" v:mID="211" v:groupContext="shape" v:layerMember="0" transform="translate(218.769,35.1279) rotate(90)">
			<title>1-D double</title>
			<v:userDefs>
				<v:ud v:nameU="visVersion" v:val="VT0(15):26"/>
			</v:userDefs>
			<path d="M2.83 167.77 L2.83 166.63 L0 169.47 L2.83 172.3 L2.83 171.17 L12.76 171.17 L12.76 172.3 L15.59 169.47 L12.76
						 166.63 L12.76 167.77 L2.83 167.77 Z" class="st1"/>
		</g>
		<g id="shape212-48" v:mID="212" v:groupContext="shape" v:layerMember="0" transform="translate(218.769,70.5609) rotate(90)">
			<title>1-D double.212</title>
			<v:userDefs>
				<v:ud v:nameU="visVersion" v:val="VT0(15):26"/>
			</v:userDefs>
			<path d="M2.83 167.77 L2.83 166.63 L0 169.47 L2.83 172.3 L2.83 171.17 L12.76 171.17 L12.76 172.3 L15.59 169.47 L12.76
						 166.63 L12.76 167.77 L2.83 167.77 Z" class="st1"/>
		</g>
		<g id="shape213-50" v:mID="213" v:groupContext="shape" transform="translate(18.1199,-18.12)">
			<title>Round Corner Rectangle.213</title>
			<desc>Internal Server</desc>
			<v:userDefs>
				<v:ud v:nameU="CTypeTopLeftSnip" v:prompt="" v:val="VT0(0):5"/>
				<v:ud v:nameU="CTypeTopRightSnip" v:prompt="" v:val="VT0(0):5"/>
				<v:ud v:nameU="CTypeBotLeftSnip" v:prompt="" v:val="VT0(0):5"/>
				<v:ud v:nameU="CTypeBotRightSnip" v:prompt="" v:val="VT0(0):5"/>
				<v:ud v:nameU="CornerLockHoriz" v:prompt="" v:val="VT0(0):5"/>
				<v:ud v:nameU="CornerLockVert" v:prompt="" v:val="VT0(0):5"/>
				<v:ud v:nameU="CornerLockDiag" v:prompt="" v:val="VT0(0):5"/>
				<v:ud v:nameU="TopLeftOffset" v:prompt="" v:val="VT0(0.15748031496063):24"/>
				<v:ud v:nameU="TopRightOffset" v:prompt="" v:val="VT0(0.15748031496063):24"/>
				<v:ud v:nameU="BotLeftOffset" v:prompt="" v:val="VT0(0.15748031496063):24"/>
				<v:ud v:nameU="BotRightOffset" v:prompt="" v:val="VT0(0.15748031496063):24"/>
				<v:ud v:nameU="visVersion" v:prompt="" v:val="VT0(15):26"/>
				<v:ud v:nameU="TopLeftOffset" v:prompt="" v:val="VT0(0.066929133858268):1"/>
				<v:ud v:nameU="TopRightOffset" v:prompt="" v:val="VT0(0.066929133858268):1"/>
				<v:ud v:nameU="BotLeftOffset" v:prompt="" v:val="VT0(0.066929133858268):1"/>
				<v:ud v:nameU="BotRightOffset" v:prompt="" v:val="VT0(0.066929133858268):1"/>
			</v:userDefs>
			<v:textBlock v:margins="rect(4,4,4,4)" v:tabSpace="42.5197"/>
			<v:textRect cx="24.0945" cy="158.13" width="48.19" height="28.3465"/>
			<path d="M4.82 172.3 L43.37 172.3 A4.81882 4.81882 -180 0 0 48.19 167.48 L48.19 148.78 A4.81882 4.81882 -180 0 0 43.37
						 143.96 L4.82 143.96 A4.81882 4.81882 -180 0 0 0 148.78 L0 167.48 A4.81882 4.81882 -180 0 0 4.82 172.3 Z"
					class="st1"/>
			<text x="8.13" y="155.13" class="st2" v:langID="1033"><v:paragraph v:horizAlign="1"/><v:tabList/>Internal <tspan
						x="11.08" dy="1.2em" class="st3">Server</tspan></text>		</g>
		<g id="shape214-54" v:mID="214" v:groupContext="shape" transform="translate(76.2302,-18.12)">
			<title>Round Corner Rectangle.214</title>
			<desc>Internal Client</desc>
			<v:userDefs>
				<v:ud v:nameU="CTypeTopLeftSnip" v:prompt="" v:val="VT0(0):5"/>
				<v:ud v:nameU="CTypeTopRightSnip" v:prompt="" v:val="VT0(0):5"/>
				<v:ud v:nameU="CTypeBotLeftSnip" v:prompt="" v:val="VT0(0):5"/>
				<v:ud v:nameU="CTypeBotRightSnip" v:prompt="" v:val="VT0(0):5"/>
				<v:ud v:nameU="CornerLockHoriz" v:prompt="" v:val="VT0(0):5"/>
				<v:ud v:nameU="CornerLockVert" v:prompt="" v:val="VT0(0):5"/>
				<v:ud v:nameU="CornerLockDiag" v:prompt="" v:val="VT0(0):5"/>
				<v:ud v:nameU="TopLeftOffset" v:prompt="" v:val="VT0(0.15748031496063):24"/>
				<v:ud v:nameU="TopRightOffset" v:prompt="" v:val="VT0(0.15748031496063):24"/>
				<v:ud v:nameU="BotLeftOffset" v:prompt="" v:val="VT0(0.15748031496063):24"/>
				<v:ud v:nameU="BotRightOffset" v:prompt="" v:val="VT0(0.15748031496063):24"/>
				<v:ud v:nameU="visVersion" v:prompt="" v:val="VT0(15):26"/>
				<v:ud v:nameU="TopLeftOffset" v:prompt="" v:val="VT0(0.066929133858268):1"/>
				<v:ud v:nameU="TopRightOffset" v:prompt="" v:val="VT0(0.066929133858268):1"/>
				<v:ud v:nameU="BotLeftOffset" v:prompt="" v:val="VT0(0.066929133858268):1"/>
				<v:ud v:nameU="BotRightOffset" v:prompt="" v:val="VT0(0.066929133858268):1"/>
			</v:userDefs>
			<v:textBlock v:margins="rect(4,4,4,4)" v:tabSpace="42.5197"/>
			<v:textRect cx="24.0945" cy="158.13" width="48.19" height="28.3465"/>
			<path d="M4.82 172.3 L43.37 172.3 A4.81882 4.81882 -180 0 0 48.19 167.48 L48.19 148.78 A4.81882 4.81882 -180 0 0 43.37
						 143.96 L4.82 143.96 A4.81882 4.81882 -180 0 0 0 148.78 L0 167.48 A4.81882 4.81882 -180 0 0 4.82 172.3 Z"
					class="st1"/>
			<text x="8.13" y="155.13" class="st2" v:langID="1033"><v:paragraph v:horizAlign="1"/><v:tabList/>Internal<v:newlineChar/><tspan
						x="12.34" dy="1.2em" class="st3">Client</tspan></text>		</g>
		<g id="shape215-58" v:mID="215" v:groupContext="shape" v:layerMember="0" transform="translate(269.793,114.498) rotate(90)">
			<title>1-D double.215</title>
			<v:userDefs>
				<v:ud v:nameU="visVersion" v:val="VT0(15):26"/>
			</v:userDefs>
			<path d="M2.83 167.77 L2.83 166.63 L0 169.47 L2.83 172.3 L2.83 171.17 L8.5 171.17 L8.5 172.3 L11.34 169.47 L8.5 166.63
						 L8.5 167.77 L2.83 167.77 Z" class="st1"/>
		</g>
		<g id="shape216-60" v:mID="216" v:groupContext="shape" v:layerMember="0" transform="translate(76.2302,309.478) rotate(180)">
			<title>1-D double.216</title>
			<v:userDefs>
				<v:ud v:nameU="visVersion" v:val="VT0(15):26"/>
			</v:userDefs>
			<path d="M2.83 167.77 L2.83 166.63 L0 169.47 L2.83 172.3 L2.83 171.17 L7.09 171.17 L7.09 172.3 L9.92 169.47 L7.09 166.63
						 L7.09 167.77 L2.83 167.77 Z" class="st1"/>
		</g>
		<g id="shape217-62" v:mID="217" v:groupContext="shape" transform="translate(214.539,114.828) rotate(90.1098)">
			<title>Sheet.217</title>
			<path d="M0 172.3 L11.34 172.3" class="st8"/>
		</g>
	</g>
</svg>
