<?xml version="1.0" encoding="UTF-8" standalone="no"?>
<!DOCTYPE svg PUBLIC "-//W3C//DTD SVG 1.1//EN" "http://www.w3.org/Graphics/SVG/1.1/DTD/svg11.dtd">
<!-- Generated by Microsoft Visio, SVG Export GUI_view.svg Page-1 -->
<svg xmlns="http://www.w3.org/2000/svg" xmlns:xlink="http://www.w3.org/1999/xlink" xmlns:ev="http://www.w3.org/2001/xml-events"
		xmlns:v="http://schemas.microsoft.com/visio/2003/SVGExtensions/" width="3.12438in" height="2.39997in"
		viewBox="0 0 224.955 172.798" xml:space="preserve" color-interpolation-filters="sRGB" class="st16">
	<v:documentProperties v:langID="1033" v:metric="true" v:viewMarkup="false">
		<v:userDefs>
			<v:ud v:nameU="msvNoAutoConnect" v:val="VT0(1):26"/>
		</v:userDefs>
	</v:documentProperties>

	<style type="text/css">
	<![CDATA[
		.st1 {fill:#ffffff;stroke:#000000;stroke-linecap:round;stroke-linejoin:round;stroke-width:0.24}
		.st2 {fill:#000000;font-family:Calibri;font-size:0.833336em}
		.st3 {font-size:1em}
		.st4 {stroke:#000000;stroke-linecap:round;stroke-linejoin:round;stroke-width:0.75}
		.st5 {fill:#ffffff;stroke:#000000;stroke-dasharray:1.68,1.2;stroke-linecap:round;stroke-linejoin:round;stroke-width:0.24}
		.st6 {fill:#000000;font-family:Calibri;font-size:0.666664em}
		.st7 {marker-end:url(#mrkr5-41);stroke:#000000;stroke-linecap:round;stroke-linejoin:round;stroke-width:0.75}
		.st8 {fill:#000000;fill-opacity:1;stroke:#000000;stroke-opacity:1;stroke-width:0.22935779816514}
		.st9 {marker-end:url(#mrkr5-41);stroke:#000000;stroke-dasharray:5.25,3.75,0,3.75;stroke-linecap:round;stroke-linejoin:round;stroke-width:0.75}
		.st10 {fill:#ffffff;stroke:none;stroke-linecap:butt;stroke-width:7.2}
		.st11 {fill:#000000;font-family:Calibri;font-size:0.499992em}
		.st12 {fill:none;stroke:none;stroke-linecap:round;stroke-linejoin:round;stroke-width:0.75}
		.st13 {fill:#c05046;stroke:#c05046;stroke-linecap:round;stroke-linejoin:round;stroke-width:0.24}
		.st14 {fill:#9dbb61;stroke:#9dbb61;stroke-linecap:round;stroke-linejoin:round;stroke-width:0.24}
		.st15 {fill:#4bacc6;stroke:#4bacc6;stroke-linecap:round;stroke-linejoin:round;stroke-width:0.24}
		.st16 {fill:none;fill-rule:evenodd;font-size:12px;overflow:visible;stroke-linecap:square;stroke-miterlimit:3}
	]]>
	</style>

	<defs id="Markers">
		<g id="lend5">
			<path d="M 2 1 L 0 0 L 1.98117 -0.993387 C 1.67173 -0.364515 1.67301 0.372641 1.98465 1.00043 " style="stroke:none"/>
		</g>
		<marker id="mrkr5-41" class="st8" v:arrowType="5" v:arrowSize="2" v:setback="7.63" refX="-7.63" orient="auto"
				markerUnits="strokeWidth" overflow="visible">
			<use xlink:href="#lend5" transform="scale(-4.36,-4.36) "/>
		</marker>
	</defs>
	<g v:mID="0" v:index="1" v:groupContext="foregroundPage">
		<title>Page-1</title>
		<v:pageProperties v:drawingScale="0.0393701" v:pageScale="0.0393701" v:drawingUnits="24" v:shadowOffsetX="8.50394"
				v:shadowOffsetY="-8.50394"/>
		<v:layer v:name="Connector" v:index="0"/>
		<v:layer v:name="Container" v:index="1"/>
		<v:layer v:name="Flowchart" v:index="2"/>
		<g id="shape228-1" v:mID="228" v:groupContext="shape" transform="translate(83.3168,-74.0758)">
			<title>Round Corner Rectangle.228</title>
			<desc>Setup</desc>
			<v:userDefs>
				<v:ud v:nameU="CTypeTopLeftSnip" v:prompt="" v:val="VT0(0):5"/>
				<v:ud v:nameU="CTypeTopRightSnip" v:prompt="" v:val="VT0(0):5"/>
				<v:ud v:nameU="CTypeBotLeftSnip" v:prompt="" v:val="VT0(0):5"/>
				<v:ud v:nameU="CTypeBotRightSnip" v:prompt="" v:val="VT0(0):5"/>
				<v:ud v:nameU="CornerLockHoriz" v:prompt="" v:val="VT0(0):5"/>
				<v:ud v:nameU="CornerLockVert" v:prompt="" v:val="VT0(0):5"/>
				<v:ud v:nameU="CornerLockDiag" v:prompt="" v:val="VT0(0):5"/>
				<v:ud v:nameU="TopLeftOffset" v:prompt="" v:val="VT0(0.15748031496063):24"/>
				<v:ud v:nameU="TopRightOffset" v:prompt="" v:val="VT0(0.15748031496063):24"/>
				<v:ud v:nameU="BotLeftOffset" v:prompt="" v:val="VT0(0.15748031496063):24"/>
				<v:ud v:nameU="BotRightOffset" v:prompt="" v:val="VT0(0.15748031496063):24"/>
				<v:ud v:nameU="visVersion" v:prompt="" v:val="VT0(15):26"/>
				<v:ud v:nameU="TopLeftOffset" v:prompt="" v:val="VT0(0.059055116876262):1"/>
				<v:ud v:nameU="TopRightOffset" v:prompt="" v:val="VT0(0.059055116876262):1"/>
				<v:ud v:nameU="BotLeftOffset" v:prompt="" v:val="VT0(0.059055116876262):1"/>
				<v:ud v:nameU="BotRightOffset" v:prompt="" v:val="VT0(0.059055116876262):1"/>
			</v:userDefs>
			<v:textBlock v:margins="rect(4,4,4,4)" v:tabSpace="42.5197" v:verticalAlign="0"/>
			<v:textRect cx="21.2598" cy="147.286" width="42.52" height="51.0236"/>
			<path d="M4.25 172.8 L38.27 172.8 A4.2519 4.2519 -180 0 0 42.52 168.55 L42.52 126.03 A4.2519 4.2519 -180 0 0 38.27 121.77
						 L4.25 121.77 A4.2519 4.2519 -180 0 0 -0 126.03 L0 168.55 A4.2519 4.2519 -180 0 0 4.25 172.8 Z" class="st1"/>
			<text x="9.55" y="134.77" class="st2" v:langID="1033"><v:paragraph v:horizAlign="1"/><v:tabList/>Setup</text>		</g>
		<g id="shape218-4" v:mID="218" v:groupContext="shape" transform="translate(22.1684,-80.0231)">
			<title>Round Corner Rectangle</title>
			<desc>Main Menu</desc>
			<v:userDefs>
				<v:ud v:nameU="CTypeTopLeftSnip" v:prompt="" v:val="VT0(0):5"/>
				<v:ud v:nameU="CTypeTopRightSnip" v:prompt="" v:val="VT0(0):5"/>
				<v:ud v:nameU="CTypeBotLeftSnip" v:prompt="" v:val="VT0(0):5"/>
				<v:ud v:nameU="CTypeBotRightSnip" v:prompt="" v:val="VT0(0):5"/>
				<v:ud v:nameU="CornerLockHoriz" v:prompt="" v:val="VT0(0):5"/>
				<v:ud v:nameU="CornerLockVert" v:prompt="" v:val="VT0(0):5"/>
				<v:ud v:nameU="CornerLockDiag" v:prompt="" v:val="VT0(0):5"/>
				<v:ud v:nameU="TopLeftOffset" v:prompt="" v:val="VT0(0.15748031496063):24"/>
				<v:ud v:nameU="TopRightOffset" v:prompt="" v:val="VT0(0.15748031496063):24"/>
				<v:ud v:nameU="BotLeftOffset" v:prompt="" v:val="VT0(0.15748031496063):24"/>
				<v:ud v:nameU="BotRightOffset" v:prompt="" v:val="VT0(0.15748031496063):24"/>
				<v:ud v:nameU="visVersion" v:prompt="" v:val="VT0(15):26"/>
				<v:ud v:nameU="TopLeftOffset" v:prompt="" v:val="VT0(0.051746274508034):1"/>
				<v:ud v:nameU="TopRightOffset" v:prompt="" v:val="VT0(0.051746274508034):1"/>
				<v:ud v:nameU="BotLeftOffset" v:prompt="" v:val="VT0(0.051746274508034):1"/>
				<v:ud v:nameU="BotRightOffset" v:prompt="" v:val="VT0(0.051746274508034):1"/>
			</v:userDefs>
			<v:textBlock v:margins="rect(4,4,4,4)" v:tabSpace="42.5197"/>
			<v:textRect cx="18.6287" cy="160.32" width="37.26" height="24.9557"/>
			<path d="M3.73 172.8 L33.53 172.8 A3.72567 3.72567 -180 0 0 37.26 169.07 L37.26 151.57 A3.72567 3.72567 -180 0 0 33.53
						 147.84 L3.73 147.84 A3.72567 3.72567 -180 0 0 0 151.57 L0 169.07 A3.72567 3.72567 -180 0 0 3.73 172.8 Z"
					class="st1"/>
			<text x="8.18" y="157.32" class="st2" v:langID="1033"><v:paragraph v:horizAlign="1"/><v:tabList/>Main <tspan x="6.61"
						dy="1.2em" class="st3">Menu</tspan></text>		</g>
		<g id="shape220-8" v:mID="220" v:groupContext="shape" transform="translate(18.1199,-115.456)">
			<title>Round Corner Rectangle.220</title>
			<desc>Config Menu</desc>
			<v:userDefs>
				<v:ud v:nameU="CTypeTopLeftSnip" v:prompt="" v:val="VT0(0):5"/>
				<v:ud v:nameU="CTypeTopRightSnip" v:prompt="" v:val="VT0(0):5"/>
				<v:ud v:nameU="CTypeBotLeftSnip" v:prompt="" v:val="VT0(0):5"/>
				<v:ud v:nameU="CTypeBotRightSnip" v:prompt="" v:val="VT0(0):5"/>
				<v:ud v:nameU="CornerLockHoriz" v:prompt="" v:val="VT0(0):5"/>
				<v:ud v:nameU="CornerLockVert" v:prompt="" v:val="VT0(0):5"/>
				<v:ud v:nameU="CornerLockDiag" v:prompt="" v:val="VT0(0):5"/>
				<v:ud v:nameU="TopLeftOffset" v:prompt="" v:val="VT0(0.15748031496063):24"/>
				<v:ud v:nameU="TopRightOffset" v:prompt="" v:val="VT0(0.15748031496063):24"/>
				<v:ud v:nameU="BotLeftOffset" v:prompt="" v:val="VT0(0.15748031496063):24"/>
				<v:ud v:nameU="BotRightOffset" v:prompt="" v:val="VT0(0.15748031496063):24"/>
				<v:ud v:nameU="visVersion" v:prompt="" v:val="VT0(15):26"/>
				<v:ud v:nameU="TopLeftOffset" v:prompt="" v:val="VT0(0.06299212524093):1"/>
				<v:ud v:nameU="TopRightOffset" v:prompt="" v:val="VT0(0.062992125240929):1"/>
				<v:ud v:nameU="BotLeftOffset" v:prompt="" v:val="VT0(0.06299212524093):1"/>
				<v:ud v:nameU="BotRightOffset" v:prompt="" v:val="VT0(0.062992125240929):1"/>
			</v:userDefs>
			<v:textBlock v:margins="rect(4,4,4,4)" v:tabSpace="42.5197"/>
			<v:textRect cx="22.6772" cy="160.32" width="45.36" height="24.9557"/>
			<path d="M4.54 172.8 L40.82 172.8 A4.53536 4.53536 -180 0 0 45.35 168.26 L45.35 152.38 A4.53536 4.53536 -180 0 0 40.82
						 147.84 L4.54 147.84 A4.53536 4.53536 -180 0 0 0 152.38 L0 168.26 A4.53536 4.53536 -180 0 0 4.54 172.8 Z"
					class="st1"/>
			<text x="9.72" y="157.32" class="st2" v:langID="1033"><v:paragraph v:horizAlign="1"/><v:tabList/>Config <tspan
						x="10.66" dy="1.2em" class="st3">Menu</tspan></text>		</g>
		<g id="shape221-12" v:mID="221" v:groupContext="shape" transform="translate(18.1199,-24.7475)">
			<title>Round Corner Rectangle.221</title>
			<desc>Path Selection</desc>
			<v:userDefs>
				<v:ud v:nameU="CTypeTopLeftSnip" v:prompt="" v:val="VT0(0):5"/>
				<v:ud v:nameU="CTypeTopRightSnip" v:prompt="" v:val="VT0(0):5"/>
				<v:ud v:nameU="CTypeBotLeftSnip" v:prompt="" v:val="VT0(0):5"/>
				<v:ud v:nameU="CTypeBotRightSnip" v:prompt="" v:val="VT0(0):5"/>
				<v:ud v:nameU="CornerLockHoriz" v:prompt="" v:val="VT0(0):5"/>
				<v:ud v:nameU="CornerLockVert" v:prompt="" v:val="VT0(0):5"/>
				<v:ud v:nameU="CornerLockDiag" v:prompt="" v:val="VT0(0):5"/>
				<v:ud v:nameU="TopLeftOffset" v:prompt="" v:val="VT0(0.15748031496063):24"/>
				<v:ud v:nameU="TopRightOffset" v:prompt="" v:val="VT0(0.15748031496063):24"/>
				<v:ud v:nameU="BotLeftOffset" v:prompt="" v:val="VT0(0.15748031496063):24"/>
				<v:ud v:nameU="BotRightOffset" v:prompt="" v:val="VT0(0.15748031496063):24"/>
				<v:ud v:nameU="visVersion" v:prompt="" v:val="VT0(15):26"/>
				<v:ud v:nameU="TopLeftOffset" v:prompt="" v:val="VT0(0.062992125240929):1"/>
				<v:ud v:nameU="TopRightOffset" v:prompt="" v:val="VT0(0.062992125240929):1"/>
				<v:ud v:nameU="BotLeftOffset" v:prompt="" v:val="VT0(0.062992125240929):1"/>
				<v:ud v:nameU="BotRightOffset" v:prompt="" v:val="VT0(0.062992125240929):1"/>
			</v:userDefs>
			<v:textBlock v:margins="rect(4,4,4,4)" v:tabSpace="42.5197"/>
			<v:textRect cx="22.6772" cy="160.32" width="45.36" height="24.9557"/>
			<path d="M4.54 172.8 L40.82 172.8 A4.53536 4.53536 -180 0 0 45.35 168.26 L45.35 152.38 A4.53536 4.53536 -180 0 0 40.82
						 147.84 L4.54 147.84 A4.53536 4.53536 -180 0 0 0 152.38 L0 168.26 A4.53536 4.53536 -180 0 0 4.54 172.8 Z"
					class="st1"/>
			<text x="13.4" y="157.32" class="st2" v:langID="1033"><v:paragraph v:horizAlign="1"/><v:tabList/>Path <tspan x="4.06"
						dy="1.2em" class="st3">Selection</tspan></text>		</g>
		<g id="shape222-16" v:mID="222" v:groupContext="shape" transform="translate(-132.001,67.8191) rotate(-90)">
			<title>Sheet.222</title>
			<path d="M0 172.8 L10.48 172.8" class="st4"/>
		</g>
		<g id="shape223-19" v:mID="223" v:groupContext="shape" transform="translate(213.595,92.7749) rotate(90)">
			<title>Sheet.223</title>
			<path d="M0 172.8 L30.32 172.8" class="st4"/>
		</g>
		<g id="shape224-22" v:mID="224" v:groupContext="shape" v:layerMember="0" transform="translate(59.4257,-92.501)">
			<title>Double tree sloped</title>
			<v:userDefs>
				<v:ud v:nameU="Scale" v:val="VT0(1):26"/>
				<v:ud v:nameU="AntiScale" v:val="VT0(1):26"/>
				<v:ud v:nameU="visVersion" v:val="VT0(15):26"/>
			</v:userDefs>
			<path d="M0 172.8 L12.35 172.8" class="st4"/>
			<path d="M12.35 172.8 L14.12 165.71 L26.52 165.71" class="st4"/>
			<path d="M12.35 172.8 L14.86 182.86 L26.52 182.86" class="st4"/>
		</g>
		<g id="shape226-27" v:mID="226" v:groupContext="shape" transform="translate(85.948,-92.64)">
			<title>Round Corner Rectangle.226</title>
			<desc>Train</desc>
			<v:userDefs>
				<v:ud v:nameU="CTypeTopLeftSnip" v:prompt="" v:val="VT0(0):5"/>
				<v:ud v:nameU="CTypeTopRightSnip" v:prompt="" v:val="VT0(0):5"/>
				<v:ud v:nameU="CTypeBotLeftSnip" v:prompt="" v:val="VT0(0):5"/>
				<v:ud v:nameU="CTypeBotRightSnip" v:prompt="" v:val="VT0(0):5"/>
				<v:ud v:nameU="CornerLockHoriz" v:prompt="" v:val="VT0(0):5"/>
				<v:ud v:nameU="CornerLockVert" v:prompt="" v:val="VT0(0):5"/>
				<v:ud v:nameU="CornerLockDiag" v:prompt="" v:val="VT0(0):5"/>
				<v:ud v:nameU="TopLeftOffset" v:prompt="" v:val="VT0(0.15748031496063):24"/>
				<v:ud v:nameU="TopRightOffset" v:prompt="" v:val="VT0(0.15748031496063):24"/>
				<v:ud v:nameU="BotLeftOffset" v:prompt="" v:val="VT0(0.15748031496063):24"/>
				<v:ud v:nameU="BotRightOffset" v:prompt="" v:val="VT0(0.15748031496063):24"/>
				<v:ud v:nameU="visVersion" v:prompt="" v:val="VT0(15):26"/>
				<v:ud v:nameU="TopLeftOffset" v:prompt="" v:val="VT0(0.051746274508034):1"/>
				<v:ud v:nameU="TopRightOffset" v:prompt="" v:val="VT0(0.051746274508034):1"/>
				<v:ud v:nameU="BotLeftOffset" v:prompt="" v:val="VT0(0.051746274508034):1"/>
				<v:ud v:nameU="BotRightOffset" v:prompt="" v:val="VT0(0.051746274508034):1"/>
			</v:userDefs>
			<v:textBlock v:margins="rect(4,4,4,4)" v:tabSpace="42.5197"/>
			<v:textRect cx="18.6287" cy="165.85" width="37.26" height="13.8952"/>
			<path d="M3.73 172.8 L33.53 172.8 A3.72567 3.72567 -180 0 0 37.26 169.07 L37.26 162.63 A3.72567 3.72567 -180 0 0 33.53
						 158.9 L3.73 158.9 A3.72567 3.72567 -180 0 0 0 162.63 L0 169.07 A3.72567 3.72567 -180 0 0 3.73 172.8 Z"
					class="st5"/>
			<text x="8.28" y="168.85" class="st2" v:langID="1033"><v:paragraph v:horizAlign="1"/><v:tabList/>Train</text>		</g>
		<g id="shape227-30" v:mID="227" v:groupContext="shape" transform="translate(85.948,-75.4931)">
			<title>Round Corner Rectangle.227</title>
			<desc>Test</desc>
			<v:userDefs>
				<v:ud v:nameU="CTypeTopLeftSnip" v:prompt="" v:val="VT0(0):5"/>
				<v:ud v:nameU="CTypeTopRightSnip" v:prompt="" v:val="VT0(0):5"/>
				<v:ud v:nameU="CTypeBotLeftSnip" v:prompt="" v:val="VT0(0):5"/>
				<v:ud v:nameU="CTypeBotRightSnip" v:prompt="" v:val="VT0(0):5"/>
				<v:ud v:nameU="CornerLockHoriz" v:prompt="" v:val="VT0(0):5"/>
				<v:ud v:nameU="CornerLockVert" v:prompt="" v:val="VT0(0):5"/>
				<v:ud v:nameU="CornerLockDiag" v:prompt="" v:val="VT0(0):5"/>
				<v:ud v:nameU="TopLeftOffset" v:prompt="" v:val="VT0(0.15748031496063):24"/>
				<v:ud v:nameU="TopRightOffset" v:prompt="" v:val="VT0(0.15748031496063):24"/>
				<v:ud v:nameU="BotLeftOffset" v:prompt="" v:val="VT0(0.15748031496063):24"/>
				<v:ud v:nameU="BotRightOffset" v:prompt="" v:val="VT0(0.15748031496063):24"/>
				<v:ud v:nameU="visVersion" v:prompt="" v:val="VT0(15):26"/>
				<v:ud v:nameU="TopLeftOffset" v:prompt="" v:val="VT0(0.051746274508034):1"/>
				<v:ud v:nameU="TopRightOffset" v:prompt="" v:val="VT0(0.051746274508034):1"/>
				<v:ud v:nameU="BotLeftOffset" v:prompt="" v:val="VT0(0.051746274508034):1"/>
				<v:ud v:nameU="BotRightOffset" v:prompt="" v:val="VT0(0.051746274508034):1"/>
			</v:userDefs>
			<v:textBlock v:margins="rect(4,4,4,4)" v:tabSpace="42.5197"/>
			<v:textRect cx="18.6287" cy="165.85" width="37.26" height="13.8952"/>
			<path d="M3.73 172.8 L33.53 172.8 A3.72567 3.72567 -180 0 0 37.26 169.07 L37.26 162.63 A3.72567 3.72567 -180 0 0 33.53
						 158.9 L3.73 158.9 A3.72567 3.72567 -180 0 0 0 162.63 L0 169.07 A3.72567 3.72567 -180 0 0 3.73 172.8 Z"
					class="st5"/>
			<text x="10.07" y="168.85" class="st2" v:langID="1033"><v:paragraph v:horizAlign="1"/><v:tabList/>Test</text>		</g>
		<g id="shape232-33" v:mID="232" v:groupContext="shape" v:layerMember="2" transform="translate(65.6985,-140.412)">
			<title>External interactor</title>
			<desc>Config file</desc>
			<v:custProps>
				<v:cp v:nameU="Cost" v:lbl="Cost" v:type="7" v:format="@" v:langID="1033"/>
				<v:cp v:nameU="Duration" v:lbl="Duration" v:type="2" v:langID="1033"/>
				<v:cp v:nameU="Resources" v:lbl="Resources" v:langID="1033"/>
			</v:custProps>
			<v:userDefs>
				<v:ud v:nameU="visVersion" v:val="VT0(15):26"/>
			</v:userDefs>
			<v:textBlock v:margins="rect(1,1,1,1)" v:tabSpace="42.5197"/>
			<v:textRect cx="18.6287" cy="165.665" width="37.26" height="14.2661"/>
			<rect x="0" y="158.532" width="37.2573" height="14.2661" class="st1"/>
			<text x="2.31" y="168.06" class="st6" v:langID="1033"><v:paragraph v:horizAlign="1"/><v:tabList/>Config file</text>		</g>
		<g id="shape233-36" v:mID="233" v:groupContext="shape" v:layerMember="0" transform="translate(84.3272,-141.26)">
			<title>Dynamic connector</title>
			<path d="M0 173.65 L0 186.12 L-15.13 186.12" class="st7"/>
		</g>
		<g id="shape234-42" v:mID="234" v:groupContext="shape" v:layerMember="0" transform="translate(124.591,-70.5855)">
			<title>Dynamic connector.234</title>
			<desc>Experiments &#38; Tests</desc>
			<v:textBlock v:margins="rect(4,4,4,4)" v:tabSpace="42.5197"/>
			<v:textRect cx="-42.2237" cy="181.756" width="39.79" height="29.6033"/>
			<path d="M0 168.06 L-0 181.76 L-79.75 181.76 L-79.75 169.08" class="st9"/>
			<rect v:rectContext="textBkgnd" x="-57.4342" y="170.956" width="30.4211" height="21.5999" class="st10"/>
			<text x="-57.43" y="176.36" class="st11" v:langID="1033"><v:paragraph v:horizAlign="1"/><v:tabList/>Experiments<v:newlineChar/><tspan
						x="-44.27" dy="1.2em" class="st3">&#38;<v:newlineChar/></tspan><tspan x="-48.53" dy="1.2em" class="st3">Tests</tspan></text>		</g>
		<g id="shape276-51" v:mID="276" v:groupContext="shape" transform="translate(136.187,-18.375)">
			<title>Sheet.276</title>
			<desc>KG visualizer</desc>
			<v:textBlock v:margins="rect(4,4,4,4)" v:tabSpace="42.5197"/>
			<v:textRect cx="30.5482" cy="166.969" width="61.1" height="11.6584"/>
			<rect x="0" y="161.14" width="61.0964" height="11.6584" class="st12"/>
			<text x="4.78" y="169.97" class="st2" v:langID="1033"><v:paragraph v:horizAlign="1"/><v:tabList/>KG visualizer</text>		</g>
		<g id="group277-54" transform="translate(138.672,-29.2884)" v:mID="277" v:groupContext="group">
			<title>Sheet.277</title>
			<g id="shape236-55" v:mID="236" v:groupContext="shape">
				<title>Round Corner Rectangle.236</title>
				<v:userDefs>
					<v:ud v:nameU="CTypeTopLeftSnip" v:prompt="" v:val="VT0(0):5"/>
					<v:ud v:nameU="CTypeTopRightSnip" v:prompt="" v:val="VT0(0):5"/>
					<v:ud v:nameU="CTypeBotLeftSnip" v:prompt="" v:val="VT0(0):5"/>
					<v:ud v:nameU="CTypeBotRightSnip" v:prompt="" v:val="VT0(0):5"/>
					<v:ud v:nameU="CornerLockHoriz" v:prompt="" v:val="VT0(0):5"/>
					<v:ud v:nameU="CornerLockVert" v:prompt="" v:val="VT0(0):5"/>
					<v:ud v:nameU="CornerLockDiag" v:prompt="" v:val="VT0(0):5"/>
					<v:ud v:nameU="TopLeftOffset" v:prompt="" v:val="VT0(0.15748031496063):24"/>
					<v:ud v:nameU="TopRightOffset" v:prompt="" v:val="VT0(0.15748031496063):24"/>
					<v:ud v:nameU="BotLeftOffset" v:prompt="" v:val="VT0(0.15748031496063):24"/>
					<v:ud v:nameU="BotRightOffset" v:prompt="" v:val="VT0(0.15748031496063):24"/>
					<v:ud v:nameU="visVersion" v:prompt="" v:val="VT0(15):26"/>
					<v:ud v:nameU="TopLeftOffset" v:prompt="" v:val="VT0(0.077952743033684):1"/>
					<v:ud v:nameU="TopRightOffset" v:prompt="" v:val="VT0(0.077952743033684):1"/>
					<v:ud v:nameU="BotLeftOffset" v:prompt="" v:val="VT0(0.077952743033684):1"/>
					<v:ud v:nameU="BotRightOffset" v:prompt="" v:val="VT0(0.077952743033684):1"/>
				</v:userDefs>
				<path d="M5.61 172.8 L50.51 172.8 A5.61251 5.61251 -180 0 0 56.13 167.19 L56.13 121.72 A5.61251 5.61251 -180 0 0
							 50.51 116.11 L5.61 116.11 A5.61251 5.61251 -180 0 0 -0 121.72 L0 167.19 A5.61251 5.61251 -180 0 0 5.61
							 172.8 Z" class="st1"/>
			</g>
			<g id="shape237-57" v:mID="237" v:groupContext="shape" v:layerMember="0"
					transform="translate(114.51,-20.592) rotate(26.8658)">
				<title>Line connector.35</title>
				<v:userDefs>
					<v:ud v:nameU="visVersion" v:val="VT0(15):26"/>
				</v:userDefs>
				<path d="M0 172.8 L11.4 172.8" class="st4"/>
			</g>
			<g id="shape238-60" v:mID="238" v:groupContext="shape" v:layerMember="0"
					transform="translate(-89.1202,31.7369) rotate(-51.754) scale(-1,1)">
				<title>Line connector.38</title>
				<v:userDefs>
					<v:ud v:nameU="visVersion" v:val="VT0(15):26"/>
				</v:userDefs>
				<path d="M0 172.8 L10.7 172.8" class="st4"/>
			</g>
			<g id="shape239-63" v:mID="239" v:groupContext="shape" v:layerMember="0"
					transform="translate(170.986,60.264) rotate(67.793)">
				<title>Line connector</title>
				<v:userDefs>
					<v:ud v:nameU="visVersion" v:val="VT0(15):26"/>
				</v:userDefs>
				<path d="M0 172.8 L11.67 172.8" class="st4"/>
			</g>
			<g id="shape240-66" v:mID="240" v:groupContext="shape" v:layerMember="0"
					transform="translate(45.7498,-43.6952) rotate(11.5996)">
				<title>Line connector.5</title>
				<v:userDefs>
					<v:ud v:nameU="visVersion" v:val="VT0(15):26"/>
				</v:userDefs>
				<path d="M0 172.8 L12.97 172.8" class="st4"/>
			</g>
			<g id="shape241-69" v:mID="241" v:groupContext="shape" v:layerMember="0"
					transform="translate(-141.927,92.2899) rotate(-78.0117) scale(-1,1)">
				<title>Line connector.6</title>
				<v:userDefs>
					<v:ud v:nameU="visVersion" v:val="VT0(15):26"/>
				</v:userDefs>
				<path d="M0 172.8 L13.86 172.8" class="st4"/>
			</g>
			<g id="shape242-72" v:mID="242" v:groupContext="shape" v:layerMember="0"
					transform="translate(35.5667,300.773) rotate(-2.80771) scale(1,-1)">
				<title>Line connector.7</title>
				<v:userDefs>
					<v:ud v:nameU="visVersion" v:val="VT0(15):26"/>
				</v:userDefs>
				<path d="M0 172.8 L18.66 172.8" class="st4"/>
			</g>
			<g id="shape243-75" v:mID="243" v:groupContext="shape" v:layerMember="0"
					transform="translate(113.412,-21.5168) rotate(29.9658)">
				<title>Line connector.8</title>
				<v:userDefs>
					<v:ud v:nameU="visVersion" v:val="VT0(15):26"/>
				</v:userDefs>
				<path d="M0 172.8 L10.76 172.8" class="st4"/>
			</g>
			<g id="shape244-78" v:mID="244" v:groupContext="shape" v:layerMember="0"
					transform="translate(-145.692,73.8965) rotate(-68.8031) scale(-1,1)">
				<title>Line connector.25</title>
				<v:userDefs>
					<v:ud v:nameU="visVersion" v:val="VT0(15):26"/>
				</v:userDefs>
				<path d="M0 172.8 L14.54 172.8" class="st4"/>
			</g>
			<g id="shape245-81" v:mID="245" v:groupContext="shape" v:layerMember="0"
					transform="translate(15.4149,-36.4222) scale(-1,1)">
				<title>Line connector.26</title>
				<v:userDefs>
					<v:ud v:nameU="visVersion" v:val="VT0(15):26"/>
				</v:userDefs>
				<path d="M0 172.8 L8.81 172.8" class="st4"/>
			</g>
			<g id="shape246-84" v:mID="246" v:groupContext="shape" v:layerMember="0"
					transform="translate(105.261,-11.2278) rotate(31.3288)">
				<title>Line connector.27</title>
				<v:userDefs>
					<v:ud v:nameU="visVersion" v:val="VT0(15):26"/>
				</v:userDefs>
				<path d="M0 172.8 L10.31 172.8" class="st4"/>
			</g>
			<g id="shape247-87" v:mID="247" v:groupContext="shape" v:layerMember="0" transform="translate(24.2239,-31.0602)">
				<title>Line connector.28</title>
				<v:userDefs>
					<v:ud v:nameU="visVersion" v:val="VT0(15):26"/>
				</v:userDefs>
				<path d="M0 172.8 L8.81 172.8" class="st4"/>
			</g>
			<g id="shape248-90" v:mID="248" v:groupContext="shape" v:layerMember="0"
					transform="translate(185.014,78.446) rotate(68.5138)">
				<title>Line connector.29</title>
				<v:userDefs>
					<v:ud v:nameU="visVersion" v:val="VT0(15):26"/>
				</v:userDefs>
				<path d="M0 172.8 L10.85 172.8" class="st4"/>
			</g>
			<g id="shape249-93" v:mID="249" v:groupContext="shape" v:layerMember="0"
					transform="translate(197.771,187.775) rotate(-82.5579) scale(1,-1)">
				<title>Line connector.30</title>
				<v:userDefs>
					<v:ud v:nameU="visVersion" v:val="VT0(15):26"/>
				</v:userDefs>
				<path d="M0 172.8 L13.67 172.8" class="st4"/>
			</g>
			<g id="shape250-96" v:mID="250" v:groupContext="shape" v:layerMember="0"
					transform="translate(203.26,205.235) rotate(-74.9077) scale(1,-1)">
				<title>Line connector.31</title>
				<v:userDefs>
					<v:ud v:nameU="visVersion" v:val="VT0(15):26"/>
				</v:userDefs>
				<path d="M0 172.8 L13.6 172.8" class="st4"/>
			</g>
			<g id="shape251-99" v:mID="251" v:groupContext="shape" v:layerMember="0"
					transform="translate(92.6234,312.177) rotate(-21.8901) scale(1,-1)">
				<title>Line connector.32</title>
				<v:userDefs>
					<v:ud v:nameU="visVersion" v:val="VT0(15):26"/>
				</v:userDefs>
				<path d="M0 172.8 L12.68 172.8" class="st4"/>
			</g>
			<g id="shape252-102" v:mID="252" v:groupContext="shape" v:layerMember="0"
					transform="translate(-122.836,67.1446) rotate(-64.4259) scale(-1,1)">
				<title>Line connector.33</title>
				<v:userDefs>
					<v:ud v:nameU="visVersion" v:val="VT0(15):26"/>
				</v:userDefs>
				<path d="M0 172.8 L11.2 172.8" class="st4"/>
			</g>
			<g id="shape253-105" v:mID="253" v:groupContext="shape" v:layerMember="0"
					transform="translate(70.753,310.369) rotate(-12.6086) scale(1,-1)">
				<title>Line connector.34</title>
				<v:userDefs>
					<v:ud v:nameU="visVersion" v:val="VT0(15):26"/>
				</v:userDefs>
				<path d="M0 172.8 L13.89 172.8" class="st4"/>
			</g>
			<g id="shape254-108" v:mID="254" v:groupContext="shape" v:layerMember="0"
					transform="translate(-125.737,151.471) rotate(-94.2364)">
				<title>Line connector.36</title>
				<v:userDefs>
					<v:ud v:nameU="visVersion" v:val="VT0(15):26"/>
				</v:userDefs>
				<path d="M0 172.8 L11.47 172.8" class="st4"/>
			</g>
			<g id="shape255-111" v:mID="255" v:groupContext="shape" v:layerMember="0"
					transform="translate(206.851,74.0906) rotate(68.0415)">
				<title>Line connector.37</title>
				<v:userDefs>
					<v:ud v:nameU="visVersion" v:val="VT0(15):26"/>
				</v:userDefs>
				<path d="M0 172.8 L9.06 172.8" class="st4"/>
			</g>
			<g id="shape256-114" v:mID="256" v:groupContext="shape" v:layerMember="0"
					transform="translate(71.7666,-1.83843) rotate(19.3915)">
				<title>Line connector.39</title>
				<v:userDefs>
					<v:ud v:nameU="visVersion" v:val="VT0(15):26"/>
				</v:userDefs>
				<path d="M0 172.8 L12.76 172.8" class="st4"/>
			</g>
			<g id="shape257-117" v:mID="257" v:groupContext="shape" v:layerMember="0"
					transform="translate(-147.276,222.165) rotate(-110.674)">
				<title>Line connector.40</title>
				<v:userDefs>
					<v:ud v:nameU="visVersion" v:val="VT0(15):26"/>
				</v:userDefs>
				<path d="M0 172.8 L12 172.8" class="st4"/>
			</g>
			<g id="shape258-120" v:mID="258" v:groupContext="shape" v:layerMember="0"
					transform="translate(-68.4816,8.61779) rotate(-34.0215) scale(-1,1)">
				<title>Line connector.41</title>
				<v:userDefs>
					<v:ud v:nameU="visVersion" v:val="VT0(15):26"/>
				</v:userDefs>
				<path d="M0 172.8 L16.66 172.8" class="st4"/>
			</g>
			<g id="shape259-123" v:mID="259" v:groupContext="shape" v:layerMember="0"
					transform="translate(151.724,31.0034) rotate(45.6307)">
				<title>Line connector.42</title>
				<v:userDefs>
					<v:ud v:nameU="visVersion" v:val="VT0(15):26"/>
				</v:userDefs>
				<path d="M0 172.8 L11.76 172.8" class="st4"/>
			</g>
			<g id="shape260-126" v:mID="260" v:groupContext="shape" transform="translate(20.835,-27.6713)">
				<title>Circle</title>
				<v:userDefs>
					<v:ud v:nameU="visVersion" v:val="VT0(15):26"/>
				</v:userDefs>
				<path d="M0 169.41 A3.38889 3.38889 0 1 1 6.78 169.41 A3.38889 3.38889 0 1 1 0 169.41 Z" class="st13"/>
			</g>
			<g id="shape261-128" v:mID="261" v:groupContext="shape" transform="translate(3.217,-33.0333)">
				<title>Circle.2</title>
				<v:userDefs>
					<v:ud v:nameU="visVersion" v:val="VT0(15):26"/>
				</v:userDefs>
				<path d="M0 169.41 A3.38889 3.38889 0 1 1 6.78 169.41 A3.38889 3.38889 0 1 1 0 169.41 Z" class="st13"/>
			</g>
			<g id="shape262-130" v:mID="262" v:groupContext="shape" transform="translate(23.7135,-41.2269)">
				<title>Circle.3</title>
				<v:userDefs>
					<v:ud v:nameU="visVersion" v:val="VT0(15):26"/>
				</v:userDefs>
				<path d="M0 169.41 A3.38889 3.38889 0 1 1 6.78 169.41 A3.38889 3.38889 0 1 1 0 169.41 Z" class="st13"/>
			</g>
			<g id="shape263-132" v:mID="263" v:groupContext="shape" transform="translate(12.026,-33.0333)">
				<title>Circle.4</title>
				<v:userDefs>
					<v:ud v:nameU="visVersion" v:val="VT0(15):26"/>
				</v:userDefs>
				<path d="M0 169.41 A3.38889 3.38889 0 1 1 6.78 169.41 A3.38889 3.38889 0 1 1 0 169.41 Z" class="st13"/>
			</g>
			<g id="shape264-134" v:mID="264" v:groupContext="shape" transform="translate(7.61621,-43.8354)">
				<title>Circle.5</title>
				<v:userDefs>
					<v:ud v:nameU="visVersion" v:val="VT0(15):26"/>
				</v:userDefs>
				<path d="M0 169.41 A3.38889 3.38889 0 1 1 6.78 169.41 A3.38889 3.38889 0 1 1 0 169.41 Z" class="st13"/>
			</g>
			<g id="shape265-136" v:mID="265" v:groupContext="shape" transform="translate(6.76898,-19.4777)">
				<title>Circle.6</title>
				<v:userDefs>
					<v:ud v:nameU="visVersion" v:val="VT0(15):26"/>
				</v:userDefs>
				<path d="M0 169.41 A3.38889 3.38889 0 1 1 6.78 169.41 A3.38889 3.38889 0 1 1 0 169.41 Z" class="st14"/>
			</g>
			<g id="shape266-138" v:mID="266" v:groupContext="shape" transform="translate(23.0399,-4.01591)">
				<title>Circle.7</title>
				<v:userDefs>
					<v:ud v:nameU="visVersion" v:val="VT0(15):26"/>
				</v:userDefs>
				<path d="M0 169.41 A3.38889 3.38889 0 1 1 6.78 169.41 A3.38889 3.38889 0 1 1 0 169.41 Z" class="st14"/>
			</g>
			<g id="shape267-140" v:mID="267" v:groupContext="shape" transform="translate(11.0051,-8.25203)">
				<title>Circle.8</title>
				<v:userDefs>
					<v:ud v:nameU="visVersion" v:val="VT0(15):26"/>
				</v:userDefs>
				<path d="M0 169.41 A3.38889 3.38889 0 1 1 6.78 169.41 A3.38889 3.38889 0 1 1 0 169.41 Z" class="st14"/>
			</g>
			<g id="shape268-142" v:mID="268" v:groupContext="shape" transform="translate(24.8106,-17.5715)">
				<title>Circle.9</title>
				<v:userDefs>
					<v:ud v:nameU="visVersion" v:val="VT0(15):26"/>
				</v:userDefs>
				<path d="M0 169.41 A3.38889 3.38889 0 1 1 6.78 169.41 A3.38889 3.38889 0 1 1 0 169.41 Z" class="st14"/>
			</g>
			<g id="shape269-144" v:mID="269" v:groupContext="shape" transform="translate(36.5743,-22.2981)">
				<title>Circle.10</title>
				<v:userDefs>
					<v:ud v:nameU="visVersion" v:val="VT0(15):26"/>
				</v:userDefs>
				<path d="M0 169.41 A3.38889 3.38889 0 1 1 6.78 169.41 A3.38889 3.38889 0 1 1 0 169.41 Z" class="st15"/>
			</g>
			<g id="shape270-146" v:mID="270" v:groupContext="shape" transform="translate(29.644,-27.6713)">
				<title>Circle.11</title>
				<v:userDefs>
					<v:ud v:nameU="visVersion" v:val="VT0(15):26"/>
				</v:userDefs>
				<path d="M0 169.41 A3.38889 3.38889 0 1 1 6.78 169.41 A3.38889 3.38889 0 1 1 0 169.41 Z" class="st14"/>
			</g>
			<g id="shape271-148" v:mID="271" v:groupContext="shape" transform="translate(33.0329,-9.16614)">
				<title>Circle.12</title>
				<v:userDefs>
					<v:ud v:nameU="visVersion" v:val="VT0(15):26"/>
				</v:userDefs>
				<path d="M0 169.41 A3.38889 3.38889 0 1 1 6.78 169.41 A3.38889 3.38889 0 1 1 0 169.41 Z" class="st14"/>
			</g>
			<g id="shape272-150" v:mID="272" v:groupContext="shape" transform="translate(33.0329,-35.8537)">
				<title>Circle.13</title>
				<v:userDefs>
					<v:ud v:nameU="visVersion" v:val="VT0(15):26"/>
				</v:userDefs>
				<path d="M0 169.41 A3.38889 3.38889 0 1 1 6.78 169.41 A3.38889 3.38889 0 1 1 0 169.41 Z" class="st15"/>
			</g>
			<g id="shape273-152" v:mID="273" v:groupContext="shape" transform="translate(42.3524,-42.141)">
				<title>Circle.14</title>
				<v:userDefs>
					<v:ud v:nameU="visVersion" v:val="VT0(15):26"/>
				</v:userDefs>
				<path d="M0 169.41 A3.38889 3.38889 0 1 1 6.78 169.41 A3.38889 3.38889 0 1 1 0 169.41 Z" class="st15"/>
			</g>
			<g id="shape274-154" v:mID="274" v:groupContext="shape" transform="translate(46.5885,-22.2981)">
				<title>Circle.15</title>
				<v:userDefs>
					<v:ud v:nameU="visVersion" v:val="VT0(15):26"/>
				</v:userDefs>
				<path d="M0 169.41 A3.38889 3.38889 0 1 1 6.78 169.41 A3.38889 3.38889 0 1 1 0 169.41 Z" class="st15"/>
			</g>
			<g id="shape275-156" v:mID="275" v:groupContext="shape" transform="translate(43.1996,-30.7035)">
				<title>Circle.16</title>
				<v:userDefs>
					<v:ud v:nameU="visVersion" v:val="VT0(15):26"/>
				</v:userDefs>
				<path d="M0 169.41 A3.38889 3.38889 0 1 1 6.78 169.41 A3.38889 3.38889 0 1 1 0 169.41 Z" class="st15"/>
			</g>
		</g>
		<g id="shape278-158" v:mID="278" v:groupContext="shape" v:layerMember="0" transform="translate(63.4743,-30.1388)">
			<title>Dynamic connector.278</title>
			<path d="M0 165.71 L69.48 165.71" class="st7"/>
		</g>
	</g>
</svg>
