<?xml version="1.0" encoding="UTF-8" standalone="no"?>
<!DOCTYPE svg PUBLIC "-//W3C//DTD SVG 1.1//EN" "http://www.w3.org/Graphics/SVG/1.1/DTD/svg11.dtd">
<!-- Generated by Microsoft Visio, SVG Export Example_KG.svg Page-1 -->
<svg xmlns="http://www.w3.org/2000/svg" xmlns:xlink="http://www.w3.org/1999/xlink" xmlns:ev="http://www.w3.org/2001/xml-events"
		xmlns:v="http://schemas.microsoft.com/visio/2003/SVGExtensions/" width="4.07715in" height="3.04941in"
		viewBox="0 0 293.555 219.558" xml:space="preserve" color-interpolation-filters="sRGB" class="st12">
	<v:documentProperties v:langID="3082" v:metric="true" v:viewMarkup="false">
		<v:userDefs>
			<v:ud v:nameU="msvNoAutoConnect" v:val="VT0(1):26"/>
		</v:userDefs>
	</v:documentProperties>

	<style type="text/css">
	<![CDATA[
		.st1 {fill:#ffffff;stroke:#636363;stroke-linecap:round;stroke-linejoin:round;stroke-width:0.5}
		.st2 {fill:#000000;font-family:Calibri;font-size:0.583328em}
		.st3 {fill:#000000;font-family:Calibri;font-size:0.499992em}
		.st4 {font-size:1em}
		.st5 {marker-end:url(#mrkr5-31);stroke:#000000;stroke-linecap:round;stroke-linejoin:round;stroke-width:1}
		.st6 {fill:#000000;fill-opacity:1;stroke:#000000;stroke-opacity:1;stroke-width:0.35714285714286}
		.st7 {fill:#ffffff;stroke:none;stroke-linecap:butt;stroke-width:7.2}
		.st8 {fill:#000000;font-family:Calibri;font-size:0.666664em}
		.st9 {marker-end:url(#mrkr5-53);stroke:#000000;stroke-linecap:round;stroke-linejoin:round;stroke-width:1}
		.st10 {fill:#ffffff;stroke:none;stroke-linecap:butt}
		.st11 {marker-end:url(#mrkr5-31);stroke:#000000;stroke-dasharray:3,3;stroke-linecap:round;stroke-linejoin:round;stroke-width:1}
		.st12 {fill:none;fill-rule:evenodd;font-size:12px;overflow:visible;stroke-linecap:square;stroke-miterlimit:3}
	]]>
	</style>

	<defs id="Markers">
		<g id="lend5">
			<path d="M 2 1 L 0 0 L 1.98117 -0.993387 C 1.67173 -0.364515 1.67301 0.372641 1.98465 1.00043 " style="stroke:none"/>
		</g>
		<marker id="mrkr5-31" class="st6" v:arrowType="5" v:arrowSize="1" v:setback="4.54" refX="-4.54" orient="auto"
				markerUnits="strokeWidth" overflow="visible">
			<use xlink:href="#lend5" transform="scale(-2.8,-2.8) "/>
		</marker>
		<marker id="mrkr5-53" class="st6" v:arrowType="5" v:arrowSize="1" v:setback="4.9" refX="-4.9" orient="auto"
				markerUnits="strokeWidth" overflow="visible">
			<use xlink:href="#lend5" transform="scale(-2.8,-2.8) "/>
		</marker>
	</defs>
	<g v:mID="0" v:index="1" v:groupContext="foregroundPage">
		<v:userDefs>
			<v:ud v:nameU="msvThemeOrder" v:val="VT0(0):26"/>
		</v:userDefs>
		<title>Page-1</title>
		<v:pageProperties v:drawingScale="0.0393701" v:pageScale="0.0393701" v:drawingUnits="24" v:shadowOffsetX="8.50394"
				v:shadowOffsetY="-8.50394"/>
		<v:layer v:name="Connector" v:index="0"/>
		<v:layer v:name="Flowchart" v:index="1"/>
		<g id="shape76-1" v:mID="76" v:groupContext="shape" transform="translate(67.4611,-139.845)">
			<title>Circle.76</title>
			<desc>Canada</desc>
			<v:userDefs>
				<v:ud v:nameU="visVersion" v:val="VT0(15):26"/>
			</v:userDefs>
			<v:textBlock v:margins="rect(4,4,4,4)" v:tabSpace="42.5197"/>
			<v:textRect cx="27.9519" cy="209.75" width="55.91" height="19.6154"/>
			<path d="M16.09 200.87 A27.9519 9.8077 0 0 1 39.81 200.87 A9 9 0 0 1 39.81 218.63 A27.9519 9.8077 0 0 1 16.09 218.63
						 A9 9 0 0 1 16.09 200.87 Z" class="st1"/>
			<text x="17.38" y="211.85" class="st2" v:langID="1033"><v:paragraph v:horizAlign="1"/><v:tabList/>Canada</text>		</g>
		<g id="shape73-4" v:mID="73" v:groupContext="shape" transform="translate(175.68,-149.897)">
			<title>Circle.73</title>
			<desc>Céline Dion</desc>
			<v:userDefs>
				<v:ud v:nameU="visVersion" v:val="VT0(15):26"/>
			</v:userDefs>
			<v:textBlock v:margins="rect(4,4,4,4)" v:tabSpace="42.5197"/>
			<v:textRect cx="27.9519" cy="209.75" width="55.91" height="19.6154"/>
			<path d="M16.09 200.87 A27.9519 9.8077 0 0 1 39.81 200.87 A9 9 0 0 1 39.81 218.63 A27.9519 9.8077 0 0 1 16.09 218.63
						 A9 9 0 0 1 16.09 200.87 Z" class="st1"/>
			<text x="14.04" y="211.55" class="st3" v:langID="1033"><v:paragraph v:horizAlign="1"/><v:tabList/>Céline Dion</text>		</g>
		<g id="shape78-7" v:mID="78" v:groupContext="shape" transform="translate(149.526,-39.9122)">
			<title>Circle.78</title>
			<desc>Keanu Reeves</desc>
			<v:userDefs>
				<v:ud v:nameU="visVersion" v:val="VT0(15):26"/>
			</v:userDefs>
			<v:textBlock v:margins="rect(4,4,4,4)" v:tabSpace="42.5197"/>
			<v:textRect cx="27.9519" cy="209.75" width="55.91" height="19.6154"/>
			<path d="M16.09 200.87 A27.9519 9.8077 0 0 1 39.81 200.87 A9 9 0 0 1 39.81 218.63 A27.9519 9.8077 0 0 1 16.09 218.63
						 A9 9 0 0 1 16.09 200.87 Z" class="st1"/>
			<text x="11" y="211.55" class="st3" v:langID="1033"><v:paragraph v:horizAlign="1"/><v:tabList/>Keanu Reeves</text>		</g>
		<g id="shape72-10" v:mID="72" v:groupContext="shape" transform="translate(119.776,-176.051)">
			<title>Circle</title>
			<desc>René Angélil</desc>
			<v:userDefs>
				<v:ud v:nameU="visVersion" v:val="VT0(15):26"/>
			</v:userDefs>
			<v:textBlock v:margins="rect(4,4,4,4)" v:tabSpace="42.5197"/>
			<v:textRect cx="27.9519" cy="209.75" width="55.91" height="19.6154"/>
			<path d="M16.09 200.87 A27.9519 9.8077 0 0 1 39.81 200.87 A9 9 0 0 1 39.81 218.63 A27.9519 9.8077 0 0 1 16.09 218.63
						 A9 9 0 0 1 16.09 200.87 Z" class="st1"/>
			<text x="10.28" y="211.85" class="st2" v:langID="1033"><v:paragraph v:horizAlign="1"/><v:tabList/>René Angélil</text>		</g>
		<g id="shape77-13" v:mID="77" v:groupContext="shape" transform="translate(47.6186,-65.424)">
			<title>Circle.77</title>
			<desc>English</desc>
			<v:userDefs>
				<v:ud v:nameU="visVersion" v:val="VT0(15):26"/>
			</v:userDefs>
			<v:textBlock v:margins="rect(4,4,4,4)" v:tabSpace="42.5197"/>
			<v:textRect cx="27.9519" cy="209.75" width="55.91" height="19.6154"/>
			<path d="M16.09 200.87 A27.9519 9.8077 0 0 1 39.81 200.87 A9 9 0 0 1 39.81 218.63 A27.9519 9.8077 0 0 1 16.09 218.63
						 A9 9 0 0 1 16.09 200.87 Z" class="st1"/>
			<text x="17.94" y="211.85" class="st2" v:langID="1033"><v:paragraph v:horizAlign="1"/><v:tabList/>English</text>		</g>
		<g id="shape74-16" v:mID="74" v:groupContext="shape" transform="translate(219.651,-77.9743)">
			<title>Circle.74</title>
			<desc>French</desc>
			<v:userDefs>
				<v:ud v:nameU="visVersion" v:val="VT0(15):26"/>
			</v:userDefs>
			<v:textBlock v:margins="rect(4,4,4,4)" v:tabSpace="42.5197"/>
			<v:textRect cx="27.9519" cy="209.75" width="55.91" height="19.6154"/>
			<path d="M16.09 200.87 A27.9519 9.8077 0 0 1 39.81 200.87 A9 9 0 0 1 39.81 218.63 A27.9519 9.8077 0 0 1 16.09 218.63
						 A9 9 0 0 1 16.09 200.87 Z" class="st1"/>
			<text x="18.22" y="211.85" class="st2" v:langID="1033"><v:paragraph v:horizAlign="1"/><v:tabList/>French</text>		</g>
		<g id="shape75-19" v:mID="75" v:groupContext="shape" transform="translate(149.526,-100.614)">
			<title>Circle.75</title>
			<desc>Toronto</desc>
			<v:userDefs>
				<v:ud v:nameU="visVersion" v:val="VT0(15):26"/>
			</v:userDefs>
			<v:textBlock v:margins="rect(4,4,4,4)" v:tabSpace="42.5197"/>
			<v:textRect cx="27.9519" cy="209.75" width="55.91" height="19.6154"/>
			<path d="M16.09 200.87 A27.9519 9.8077 0 0 1 39.81 200.87 A9 9 0 0 1 39.81 218.63 A27.9519 9.8077 0 0 1 16.09 218.63
						 A9 9 0 0 1 16.09 200.87 Z" class="st1"/>
			<text x="16.48" y="211.85" class="st2" v:langID="1033"><v:paragraph v:horizAlign="1"/><v:tabList/>Toronto</text>		</g>
		<g id="shape79-22" v:mID="79" v:groupContext="shape" transform="translate(103.757,-18.25)">
			<title>Circle.79</title>
			<desc>Alexandra Grant</desc>
			<v:userDefs>
				<v:ud v:nameU="visVersion" v:val="VT0(15):26"/>
			</v:userDefs>
			<v:textBlock v:margins="rect(4,4,4,4)" v:tabSpace="42.5197"/>
			<v:textRect cx="27.9519" cy="209.75" width="55.91" height="19.6154"/>
			<path d="M16.09 200.87 A27.9519 9.8077 0 0 1 39.81 200.87 A9 9 0 0 1 39.81 218.63 A27.9519 9.8077 0 0 1 16.09 218.63
						 A9 9 0 0 1 16.09 200.87 Z" class="st1"/>
			<text x="15.66" y="207.95" class="st3" v:langID="1033"><v:paragraph v:horizAlign="1"/><v:tabList/>Alexandra <v:newlineChar/><tspan
						x="21" dy="1.2em" class="st4">Grant</tspan></text>		</g>
		<g id="shape45-26" v:mID="45" v:groupContext="shape" v:layerMember="0" transform="translate(203.632,-169.513)">
			<title>Dynamic connector.45</title>
			<desc>is_partner</desc>
			<v:textBlock v:margins="rect(4,4,4,4)" v:tabSpace="42.5197"/>
			<v:textRect cx="-5.77684" cy="196.315" width="43.24" height="17.6036"/>
			<path d="M0 219.56 C0 215.47 0 209.76 -4.54 206.71 C-8.66 203.95 -16.49 203.37 -23.05 203.24 L-23.41 203.24"
					class="st5"/>
			<rect v:rectContext="textBkgnd" x="-22.4895" y="191.515" width="33.4256" height="9.59985" class="st7"/>
			<text x="-22.49" y="198.71" class="st8" v:langID="3082"><v:paragraph v:horizAlign="1"/><v:tabList/>is_partner</text>		</g>
		<g id="shape46-34" v:mID="46" v:groupContext="shape" v:layerMember="0" transform="translate(184.23,-161.329)">
			<title>Dynamic connector.46</title>
			<desc>nationality</desc>
			<v:textBlock v:margins="rect(4,4,4,4)" v:tabSpace="42.5197"/>
			<v:textRect cx="-26.0603" cy="227.816" width="44.59" height="17.6036"/>
			<path d="M0 221.25 C-27.3 216.74 -41.46 216.49 -65.2 229.61 L-65.51 229.79" class="st5"/>
			<rect v:rectContext="textBkgnd" x="-43.4486" y="223.016" width="34.7767" height="9.59985" class="st7"/>
			<text x="-43.45" y="230.22" class="st8" v:langID="3082"><v:paragraph v:horizAlign="1"/><v:tabList/>nationality</text>		</g>
		<g id="shape48-41" v:mID="48" v:groupContext="shape" v:layerMember="0" transform="translate(203.632,-149.897)">
			<title>Dynamic connector.48</title>
			<desc>lives_in</desc>
			<v:textBlock v:margins="rect(4,4,4,4)" v:tabSpace="42.5197"/>
			<v:textRect cx="-12.8468" cy="234.584" width="40" height="17.6036"/>
			<path d="M0 219.56 C-0 232.92 -20.04 234.58 -25.04 244.45 L-25.12 244.81" class="st5"/>
			<rect v:rectContext="textBkgnd" x="-25.0556" y="229.784" width="24.4177" height="9.59985" class="st7"/>
			<text x="-25.06" y="236.98" class="st8" v:langID="3082"><v:paragraph v:horizAlign="1"/><v:tabList/>lives_in</text>		</g>
		<g id="shape49-48" v:mID="49" v:groupContext="shape" v:layerMember="0" transform="translate(170.391,-59.5276)">
			<title>Dynamic connector.49</title>
			<desc>lives_in</desc>
			<v:textBlock v:margins="rect(4,4,4,4)" v:tabSpace="42.5197"/>
			<v:textRect cx="7.08661" cy="199.014" width="40" height="17.6036"/>
			<path d="M7.09 219.56 C7.09 210.73 7.09 194.33 7.09 183.37" class="st9"/>
			<rect v:rectContext="textBkgnd" x="-5.12216" y="194.215" width="24.4177" height="9.59985" class="st7"/>
			<text x="-5.12" y="201.41" class="st8" v:langID="3082"><v:paragraph v:horizAlign="1"/><v:tabList/>lives_in</text>		</g>
		<g id="shape50-56" v:mID="50" v:groupContext="shape" v:layerMember="0" transform="translate(177.478,-41.0715)">
			<title>Dynamic connector.50</title>
			<desc>is_partner</desc>
			<v:textBlock v:margins="rect(4,4,4,4)" v:tabSpace="42.5197"/>
			<v:textRect cx="7.62111" cy="229.448" width="43.24" height="17.6036"/>
			<path d="M0 220.72 C0 223.68 -0 227.88 -2.99 230.1 C-5.25 231.78 -9.21 232.32 -12.92 232.49 L-13.28 232.5" class="st5"/>
			<rect v:rectContext="textBkgnd" x="-9.0916" y="224.648" width="33.4256" height="9.59985" class="st7"/>
			<text x="-9.09" y="231.85" class="st8" v:langID="3082"><v:paragraph v:horizAlign="1"/><v:tabList/>is_partner</text>		</g>
		<g id="shape51-63" v:mID="51" v:groupContext="shape" v:layerMember="0" transform="translate(149.526,-49.7199)">
			<title>Dynamic connector.51</title>
			<desc>speaks</desc>
			<v:textBlock v:margins="rect(4,4,4,4)" v:tabSpace="42.5197"/>
			<v:textRect cx="-42.8498" cy="215.313" width="40" height="17.6036"/>
			<path d="M0 219.56 C-18.49 219.56 -49.83 219.56 -63.46 215.8 C-69.92 214.02 -72.4 211.39 -73.36 208.72 L-73.4 208.36"
					class="st5"/>
			<rect v:rectContext="textBkgnd" x="-53.8047" y="210.513" width="21.91" height="9.59985" class="st7"/>
			<text x="-53.8" y="217.71" class="st8" v:langID="3082"><v:paragraph v:horizAlign="1"/><v:tabList/>speaks</text>		</g>
		<g id="shape54-70" v:mID="54" v:groupContext="shape" v:layerMember="0" transform="translate(205.43,-111.047)">
			<title>Dynamic connector.54</title>
			<desc>official lang</desc>
			<v:textBlock v:margins="rect(4,4,4,4)" v:tabSpace="42.5197"/>
			<v:textRect cx="20.7715" cy="214.384" width="40" height="27.2035"/>
			<path d="M0 220.18 C5.55 212.46 13.01 215.17 20 217.02 C26.72 218.79 33.01 219.77 36.81 228.47 L36.92 228.81"
					class="st5"/>
			<rect v:rectContext="textBkgnd" x="9.8597" y="204.785" width="21.8238" height="19.1997" class="st7"/>
			<text x="9.86" y="211.98" class="st8" v:langID="1033"><v:paragraph v:horizAlign="1"/><v:tabList/>of<tspan class="st4"
						v:langID="3082">ficial<v:newlineChar/></tspan><tspan x="13.95" dy="1.2em" class="st4" v:langID="3082">lang</tspan></text>		</g>
		<g id="shape55-79" v:mID="55" v:groupContext="shape" v:layerMember="0" transform="translate(149.526,-110.422)">
			<title>Dynamic connector.55</title>
			<desc>official_lang</desc>
			<v:textBlock v:margins="rect(4,4,4,4)" v:tabSpace="42.5197"/>
			<v:textRect cx="-33.9328" cy="226.604" width="49.26" height="17.6036"/>
			<path d="M0 219.56 C-24.6 218.7 -38.5 220.08 -50.21 222.74 C-58.86 224.7 -66.31 227.36 -72.14 240.39 L-72.27 240.72"
					class="st5"/>
			<rect v:rectContext="textBkgnd" x="-53.655" y="221.804" width="39.4448" height="9.59985" class="st10"/>
			<text x="-53.66" y="229" class="st8" v:langID="3082"><v:paragraph v:horizAlign="1"/><v:tabList/>official_lang</text>		</g>
		<g id="shape58-86" v:mID="58" v:groupContext="shape" v:layerMember="0" transform="translate(231.584,-159.705)">
			<title>Dynamic connector.58</title>
			<desc>speaks</desc>
			<v:textBlock v:margins="rect(4,4,4,4)" v:tabSpace="42.5197"/>
			<v:textRect cx="23.3806" cy="243.44" width="40" height="17.6036"/>
			<path d="M0 219.56 C16.44 220.48 30.06 248.7 18.09 277.23 L17.94 277.56" class="st5"/>
			<rect v:rectContext="textBkgnd" x="12.4257" y="238.64" width="21.91" height="9.59985" class="st7"/>
			<text x="12.43" y="245.84" class="st8" v:langID="3082"><v:paragraph v:horizAlign="1"/><v:tabList/>speaks</text>		</g>
		<g id="shape59-93" v:mID="59" v:groupContext="shape" v:layerMember="0" transform="translate(149.526,-110.422)">
			<title>Dynamic connector.59</title>
			<desc>city_in</desc>
			<v:textBlock v:margins="rect(4,4,4,4)" v:tabSpace="42.5197"/>
			<v:textRect cx="-26.0545" cy="208.051" width="40" height="17.6036"/>
			<path d="M0 219.56 C-13.53 219.56 -35.37 219.56 -45.46 213.16 C-52.31 208.82 -53.74 201.53 -54.03 195.03 L-54.04 194.67"
					class="st5"/>
			<rect v:rectContext="textBkgnd" x="-36.8257" y="203.251" width="21.5425" height="9.59985" class="st7"/>
			<text x="-36.83" y="210.45" class="st8" v:langID="3082"><v:paragraph v:horizAlign="1"/><v:tabList/>city_in</text>		</g>
		<g id="shape60-100" v:mID="60" v:groupContext="shape" v:layerMember="0" transform="translate(67.4611,-149.653)">
			<title>Dynamic connector.60</title>
			<desc>official_lang?</desc>
			<v:textBlock v:margins="rect(4,4,4,4)" v:tabSpace="42.5197"/>
			<v:textRect cx="-22.9791" cy="255.555" width="52.97" height="17.6036"/>
			<path d="M0 219.56 C-31.39 219.56 -34.71 279.05 -24.15 291.65 L-23.84 291.82" class="st11"/>
			<rect v:rectContext="textBkgnd" x="-44.5549" y="250.755" width="43.1518" height="9.59985" class="st10"/>
			<text x="-44.55" y="257.96" class="st8" v:langID="3082"><v:paragraph v:horizAlign="1"/><v:tabList/>official_lang?</text>		</g>
		<g id="shape65-107" v:mID="65" v:groupContext="shape" v:layerMember="0" transform="translate(205.43,-49.7199)">
			<title>Dynamic connector.65</title>
			<desc>speaks?</desc>
			<v:textBlock v:margins="rect(4,4,4,4)" v:tabSpace="42.5197"/>
			<v:textRect cx="22.6646" cy="209.056" width="40" height="17.6036"/>
			<path d="M0 219.56 C10.54 219.56 27.2 219.56 35.09 213.68 C40.65 209.53 41.84 202.47 42.1 196.2 L42.11 195.84"
					class="st11"/>
			<rect v:rectContext="textBkgnd" x="9.85593" y="204.256" width="25.6171" height="9.59985" class="st7"/>
			<text x="9.86" y="211.46" class="st8" v:langID="3082"><v:paragraph v:horizAlign="1"/><v:tabList/>speaks?</text>		</g>
		<g id="shape67-114" v:mID="67" v:groupContext="shape" v:layerMember="0" transform="translate(119.776,-185.859)">
			<title>Dynamic connector.67</title>
			<desc>nationality?</desc>
			<v:textBlock v:margins="rect(4,4,4,4)" v:tabSpace="42.5197"/>
			<v:textRect cx="-29.0696" cy="224.358" width="48.3" height="17.6036"/>
			<path d="M0 219.56 C-6.09 219.56 -15.12 219.56 -19.69 224.4 C-23.31 228.23 -24.12 235.09 -24.31 241.06 L-24.31 241.42"
					class="st11"/>
			<rect v:rectContext="textBkgnd" x="-48.3113" y="219.558" width="38.4837" height="9.59985" class="st7"/>
			<text x="-48.31" y="226.76" class="st8" v:langID="3082"><v:paragraph v:horizAlign="1"/><v:tabList/>nationality?</text>		</g>
		<g id="shape70-121" v:mID="70" v:groupContext="shape" v:layerMember="0" transform="translate(103.757,-28.0577)">
			<title>Dynamic connector.70</title>
			<desc>speaks?</desc>
			<v:textBlock v:margins="rect(4,4,4,4)" v:tabSpace="42.5197" v:verticalAlign="2"/>
			<v:textRect cx="-40.89" cy="211.931" width="40" height="17.6036"/>
			<path d="M0 219.56 C-7.05 219.56 -17.21 219.56 -22.49 213.08 C-27.26 207.22 -28.04 196.05 -28.16 187.09 L-28.16 186.73"
					class="st11"/>
			<rect v:rectContext="textBkgnd" x="-53.6986" y="207.133" width="25.6171" height="9.59985" class="st7"/>
			<text x="-53.7" y="214.33" class="st8" v:langID="3082"><v:paragraph v:horizAlign="1"/><v:tabList/>speaks?</text>		</g>
	</g>
</svg>
